<mxfile host="65bd71144e">
    <diagram id="P4nvPs_DULSkEQK1wCNG" name="Page-1">
        <mxGraphModel dx="877" dy="884" grid="1" gridSize="10" guides="1" tooltips="1" connect="1" arrows="1" fold="1" page="1" pageScale="1" pageWidth="1600" pageHeight="1000" math="0" shadow="0">
            <root>
                <mxCell id="0"/>
                <mxCell id="1" parent="0"/>
                <mxCell id="9" style="edgeStyle=none;sketch=0;hachureGap=4;jiggle=2;curveFitting=1;html=1;entryX=0;entryY=0;entryDx=0;entryDy=27.5;fontFamily=Helvetica;fontSize=14;exitX=1;exitY=0.75;exitDx=0;exitDy=0;entryPerimeter=0;" edge="1" parent="1" source="14" target="16">
                    <mxGeometry relative="1" as="geometry"/>
                </mxCell>
                <mxCell id="11" value="&lt;div style=&quot;color: rgb(59, 59, 59); font-size: 11px; line-height: 15px;&quot;&gt;exclusive lock&lt;/div&gt;" style="edgeLabel;html=1;align=center;verticalAlign=middle;resizable=0;points=[];fontSize=14;fontFamily=Helvetica;" vertex="1" connectable="0" parent="9">
                    <mxGeometry x="0.2623" y="2" relative="1" as="geometry">
                        <mxPoint x="-17" y="-17" as="offset"/>
                    </mxGeometry>
                </mxCell>
                <mxCell id="10" style="edgeStyle=none;sketch=0;hachureGap=4;jiggle=2;curveFitting=1;html=1;entryX=0;entryY=0;entryDx=0;entryDy=52.5;dashed=1;fontFamily=Helvetica;fontSize=14;exitX=1;exitY=0.25;exitDx=0;exitDy=0;entryPerimeter=0;" edge="1" parent="1" source="13" target="16">
                    <mxGeometry relative="1" as="geometry"/>
                </mxCell>
                <mxCell id="12" value="&lt;div style=&quot;color: rgb(59, 59, 59); font-size: 11px; line-height: 15px;&quot;&gt;waiting for exclusive lock&lt;/div&gt;" style="edgeLabel;html=1;align=center;verticalAlign=middle;resizable=0;points=[];fontSize=14;fontFamily=Helvetica;" vertex="1" connectable="0" parent="10">
                    <mxGeometry x="-0.1921" relative="1" as="geometry">
                        <mxPoint x="22" y="25" as="offset"/>
                    </mxGeometry>
                </mxCell>
                <mxCell id="6" style="edgeStyle=none;hachureGap=4;html=1;entryX=0;entryY=0.75;entryDx=0;entryDy=0;fontFamily=Helvetica;fontSize=16;" edge="1" parent="1" source="5" target="14">
                    <mxGeometry relative="1" as="geometry"/>
                </mxCell>
                <mxCell id="7" style="edgeStyle=none;sketch=0;hachureGap=4;jiggle=2;curveFitting=1;html=1;exitX=1;exitY=0.75;exitDx=0;exitDy=0;entryX=0;entryY=0.25;entryDx=0;entryDy=0;fontFamily=Helvetica;fontSize=16;dashed=1;" edge="1" parent="1" source="5" target="13">
                    <mxGeometry relative="1" as="geometry"/>
                </mxCell>
                <mxCell id="5" value="&lt;font face=&quot;Helvetica&quot; style=&quot;font-size: 14px;&quot;&gt;Client&lt;/font&gt;" style="rounded=1;whiteSpace=wrap;html=1;hachureGap=4;fontFamily=Architects Daughter;fontSource=https%3A%2F%2Ffonts.googleapis.com%2Fcss%3Ffamily%3DArchitects%2BDaughter;fontSize=14;" vertex="1" parent="1">
                    <mxGeometry x="200" y="340" width="120" height="60" as="geometry"/>
                </mxCell>
                <mxCell id="13" value="" style="swimlane;startSize=0;sketch=0;hachureGap=4;jiggle=2;curveFitting=1;fontFamily=Helvetica;fontSize=14;" vertex="1" parent="1">
                    <mxGeometry x="440" y="380" width="160" height="120" as="geometry"/>
                </mxCell>
                <mxCell id="4" value="server node" style="shape=image;verticalLabelPosition=bottom;labelBackgroundColor=default;verticalAlign=top;aspect=fixed;imageAspect=0;image=data:image/png,iVBORw0KGgoAAAANSUhEUgAAAZcAAAFOCAYAAABKV1DqAAAABHNCSVQICAgIfAhkiAAAIABJREFUeF7sXQd4FFXXPmkEEnonQOgdAUGqoiA2muCnYsFeEBBQEFTws30WbOAvYMeCFStKl16U3pv0EmqoIRBSSf7zbnaSmdnZzW52drOze87z3Gczd+7ce+57N3P23tOIhAQBQUAQEAQEAUFAEBAEBAFBQBAQBAQBQUAQEAQEAUFAEBAEBAFBQBAQBAQBQUAQEAQEAUFAEBAEBAFBQBAQBAQBQUAQEAQEAUFAEBAEBAFBQBAQBAQBQUAQEAQEAUFAEBAEBAFBQBAQBAQBQUAQEAQEAUFAEBAEBAFBQBAQBAQBQUAQEAQEAUFAEBAEBAFBQBAQBAQBQUAQEAQEAUFAEBAEBAFBQBAQBAQBQUAQEAQEAUFAEBAEBAFBQBAQBAQBQUAQEAQEAUFAEBAEBAFBQBAQBAQBQUAQEAQEAUFAEBAEBAFBQBAIUATCApQvYUsQCHoEcnJyWvIkI51MNIPrU5zc01fncEWSvtLF9YWwsLAsF/flliAgCAgCgoAVEWDBchMXK1AqM3mWy+NWxFl4LjoEZOdSdNjLyCGKAL+osVvZyKW5hSA4xbw25B2PJzskC01PWDUbgXCzO5T+BAFBoEAEhnELKwkWTKgSlxcKnJk0EATsCMjORb4KgoAfEeBdS2UebheXsn4c1qyhMhISEq6sVavWXu4Qep5se8HfQoKABgFnykSBSRAQBHyDwFjuViNY0nbvoeQlyyi8VEkKCzP/MCG8ZCyFRUR4PJuY5s2oWM0a6ueKlS1bdjxXDOQCg4BL9gLjAwgaIUEgDwHZuciXQRDwEwK8a2nDQ63hki9BsrNp95330qUtW/3EhfvDxLZqSQ1+/p5Y4mkeGj9+/EvPPPPMSq6EHuYEF+hhIGBkB+M+vEHf0vyfSUEPmUxQEPAcARYseENP4qL5nzv7+x8BKVgww5RNm+nczNkOk73vvvueiI6Ors83anOBLqaEfl4OD0lFyCEgwiXkllwmXEQIPMjjdlCPnZ2SQsfHTygidtwb9tjb4yg7NVXTuHLlytXff//9G7gS+qMqXMpwKcZFTkLcgzUkWnl+EBsSsMgkBQHzEOBdSynu7Q8u+Myj4+M/oAt/rzBvIB/0BAEYFhlJJdu30/TetGnTWt9///2G8+fP4zgM0gf6F9G9+GANrNql7FysunLCt5UQeImZraZmOP1QAp369gdLzOHk519SxtFjGl5jmT766KObuLIcF+xgYKQQzUXeKZZYVd8zKTsX32MsI4QwArxrgW5iCheNZWbCqOcpfd9+SyCTk5VFWafPUNlbIEvyqW7dujVXrly5Y//+/QhTk8YFu5d0LqLY1yAVmhfyKyM0111m7T8EoFTBL/o8Sl6y1GZ6bCU6N2sOpaxbr2E5gumdd97pxZXYtWD3gl1McS7yXrHS4vqIV9m5+AhY6VYQ4F3LrYzCi2okcjIz6cCgYXQ5yXpRVFJ37qKK/e7QmCZXrVq1Mutdjq5ateoMzxO7Fuxi8Cl+LyH+LyC/MEL8CyDT9w0CLFhgPfWuvvdTU76l9AMH9NWWuE7dvoPO/jnDgddnn322J5smK7uXCtxATJMdUAq9ChEuobfmMmP/IDCSh2moHgp6i8SPPvPP6D4a5dg74+jyxYua3qsxvffee1dzJQQLjsfENNlH+FupWxEuVlot4dUSCPCupSoz+pye2WPvjqfLFy7oqy11DQEJ6zE9Pfzww7fUrFmzItfDqRJCJoaLHLvrgQqhaxEuIbTYMlW/IfAej1RaPdqlbdvp7B/T/caALwc69cXXbJp8VDOE3TT5Rq4U02Rfgm+hvuWXhYUWS1gNfAR419KJuXyfS763ek4OHXz6GcrU+YoE/myMOcy5fJkyE09S2e43axrUq1ev5ooVK8Q02Ri2kKuVnUvILblM2FcIsGDB/9P/cdGEQcGOJWXdBl8NWyT9Js35iy6uWasZG6bJb7/9dk+uFNPkIlmVwBpUhEtgrYdwY20EkAq4rXoK2Zcu0fH3IG+Cj46+/hYbHGstjlu3bt180KBBTXm20LtA/4KQN3AglbhjwfcVcDkjES4u4ZGbgoB7CPCuBbqG1/StT3z4CWWePKmvDorr1H93EqI66+mFF17oExUVBYsxWI6JabIeoBC5FuESIgst0/Q5Aq/yCPilnkfpCYfp1Nff+nzgohzg2HvvO1jAVa9evRp77sM0uTwXCBgYN0jU5KJcqCIYWxT6RQC6DBlcCPCuBcdAk7lo/p8Snh1D6Xv3BddkdbOxheNng4VSV3fU3GnevHn8d999tyE5OVmiJgf1N8D55GTn4hwbuSMIuIsArMOi1I0vrFhJyYuWuPu8pdud+uobSj94SDOHkkwTJ05Ezhe9abLoXiy92u4zLzsX97GSloKAAwK8a7mTK59X34Cp7oHBwyjrzFmH9kFZwUr9zMREKtezu2Z69evXr7lkyZKtCQkJyPei5HyRqMlB+SVwnJTsXBwxkRpBwC0EWLAghtY7+sanv/me0nbv0VcH9fX5eQvowj/axGeRTJyxUh01GSbKEjU5qL8J+ZMT4RIiCy3T9AkCCPFSW90zdisnJn3kk8ECvdOjb7xN2LWpqU2bNi2eeOIJ6KQQGgbKfTFNDvSFNIk/ES4mASndhBYCvGupyTMepZ81UhdfTrZ2/DD9nNy9Ttuzl87+8rtD8xdffPFWMU12gCXoK0S4BP0SywR9hACU+AjOmEepO/6ls79N89FwBXcbFhVFkeXKUVhE0alSj78/wUG4smly3FtvvYWwODBNhrm2mCYXvJyWbyGWG5ZfQpmAvxHgXcv1POZCzbhsjru3/0N0ce06v7ITVa0qVX7oASp9fReKrl0rd2xWsKeyzuf8X/Pp1Lff0+XzyX7lqfKjD1Hc89pNHZskJzds2HBsYmIiktns5pLA5TyXLL8yJ4P5DYGi+4njtynKQIKAeQiwYMH/DLYnVdS9nps5m059NcW8gdzoqdIjD1KdjydSybZtKLIsdOV2CgujqIoVqWSHdlTxrjsp41ACpe3b70aP5jRBBOhyPW7hXVQ+T5xMLJoDW4b/9NNPEC7wfbnEJY2LCBdzYA+4XuRYLOCWRBgKcASeZP5aqHnMTk3j+GE4JfMfVR/9LKGER0e7HDSiTBmqPfF9qnB3P5ftzLyJVM5H33JIwkm9e/fufPXVV9fgsXA0BgV/LBfEHRMKQgREuAThosqUfIMA71qgM3hJ33viJ59RxrHj+mqfXZfveyth1+I28U6mxiv/pdjWrdx+xNuGcCC9sPwfTTdsmRzFpskSNdlbcC3yvAgXiyyUsBkQCIxlLhCIMY8yjhwhJM/yF4WXKEHVnh3h8XBQ8ld/gX09WdD4i46+8ZaDaXLbtm1bDBgwQDFNVqImI7qB/xjzFwAhPo4IlxD/Asj03UOAdy1XcstH9a2Pjn2XstPhdO4fKnNjN4qqpImP6fbAMS2uoBJNm7jd3tuG0POcmfqzvpswjprcOzw8XImajN2gOFbqUQqCaznvDIJFtPIU+KWNF0tvJ3OAstcTp5Ekbp/jpC99dQpXQLHsDmVyo0lcNAYwF1euJnim+5NKXQOL3sJT6c5XU+r2HYXvwMMnj78/kcpyWBi1wUF8fHwNNk3u8Oyzz2IN4FgJczasBRT87q6fh5xIc38jIMLF34jLeHoEYLP6P31loF/DE/0IH/v4m4rVqO7VkMWqe/e8p4NfPn+eEid9QtX/qwm/Rnw0dsu777676dSpUxAs57hA0ECIi/WYpyAHaHs5FgvQhQkFtnjXAsshhFCxJulCnfhjEmER3v0eDCumCd7sD5bp4rr1DuOUYerfv38DvqHkfMExGUzfRPfigJY1K0S4WHPdgoXr93giMEe1HNkU5C+O8Tvf3ma1zDyR6HeeYTKtpwMHDiRMmDDhINdj/aFEQhHTZD1QFr4W4WLhxbMy67xruYb595/zhQ/AKtWpA5Xucp0PenbSJVt65aR5ZzxwcfUaJ537prps95upZPu2ms557XNGjx49Nzs7G7sUZKiEtyV0L/jE7kXeS75ZDr/2KltQv8ItgwEBu5c7zkpaqhH598ASOnR8o+kgRUREUbEoTRgwj8ZoXu9GqlAGcSodKZ2933f26EM5Ge7aBjj24U5NTMsWNr1FbCsNZO48mtcm8/gJ2nH9zZST5R+1Rnjx4tR47nTS63kWLVq0tlu3brPsjGXzJxT5p7ggTwFSdyIRjm8BzUNF/vAVAt4d4PqKK+k32BEYyBPUvCUvpZ2nXxe+SJfSYPAVWLQnYQU91neyIVPRteKpYv+7OfTLN4b3va1E7LBqI56i8n3YoE7xUeE4ZoXxVzk27v/8Jlgw78qPP+IgWNLS0lIHDhy4WIULfuBCEYRglvAhgpCBhSCU+2I5pgLKan/K9tNqK2ZxfnnXgrS3r+inMW/VBwEpWMDnviOradeh5XqW866rDhlMkeWhlzaP4CxZddiT1GT+bIJHviJMLqxYRbtuu5MurvLseOvMz7/SuT9nmMdgAT1FVa1iEy56+vrrrxfv2bMHccUUgnCBiTcEDMzScUyGa3k35UFkzT9kAa25blbm+nVmHnGl8uj46Z20dvtvAT2nGcveosuX8WPakSJKl6KqTw9xvFGYGt6dQE/ReO4Mqjp0cF7ssPQDB+ngsBG078FH2U/lX9o/YDAlcdRjd+jUl1PoyEv/c6epaW1scc9YQKqJIyKfHD58uD5sNHYnOBoDuDgew3EYMo7JrkWDnvUuJCqy9dbMshzzrqUZM/85F82Pmh//GkXnko8G9LxS089TTIkyFF/VWOcBz/fkBQsp6/SZQs8DHvS1J46nyhw3LKIUEjbyW5bD5Z+Y+CElPDuG0nbtzusbepOk2XMpdecuimbfl6gqrA9XhXaBH85F3uUkjHqezvzCghtHaX6i2DZXUnWE3NeFmhk5cuQvq1evhk+LmsAYBAr0LEe4wJztIhf/KIY0rMiFmQiIQt9MNKUvlwiwcMFZexd1oy175hKEixWoeHQpGnn/LIotjpM9R4LH/t4HHI+CHFtqa3CEVO2Zp7V6Fc7Jcnb6TDrG0YWROrkgKtGkMTWanrv7S164mA49N8bveVxsPIaHU8PfplJMc/yOyKd169Zt57hiv+jmAcECIYK8Loe4QHoe44JjM+xmhCyMgByLWXjxrMQ6C5a7md8uap4zs9Jpzor3LTONtPQLtGDVh075LdmxPZW54Xqn9/U3wksUd65X6XM77zpGuyVY0G/mKejBcymTd0/+ThCmjI38MXrBkpWVlTls2DCjMzwIENhWYzeDHQs+cS2CRQHUwp8iXCy8eFZhnQULDt8dYqUsXT+Zki7gh6p1aM32X+jEmfzjKT3n1cc8R2HFoJN2QXl6lZm5ehU22QWlHzyUr1fZ6XwMw57Vx15FdB4RUaY0VR0+1IG933///e+VK1fqzQCxa4FuBUdgkIwoKfY6hz6kwnoIiHCx3ppZkeMxzHQtNePnL56gZRu/ttxcsnOyaebyd5zyXaxmDar0wH1O78e0aE4Npn5HtSeMp2Jx1WztLidfoGPvjqedPftS0py/nD4b6DeqDhvC2Se1R4ZJSUnnBw8evMKAdwiWVC5QUp3kgqMx6F5k12IAlhWrRLhYcdUsxDPvWuoyuyP1LM/8+13KzIJxkPUIpsn/HoD6yJiqDhnoEBYfepX4d8dSw1+n5iftgl7lj+n070096ORnX3jniKnW1/sxZ4uCQPH69ajivXc5ADJu3Li5Z86c0ZvZKdZhCFoJwXKaC/QsEDhCQYKACJcgWcgAnsY45i333MfO5MHjG2j7XqMj+ACehY61WSwcsy7jh7YjhcfG5pkmQ69SecCj1OSvmRp/FSj/d3moV3EcSVWjOhYLKwLhYjsOjNT6ZO/evfvA66+//q+Ob+U4DLsWCBUIF3GadLm41rwpHvrWXDdLcM27lm7MaF81szhWmr70TXZiUP/UtsR0NEyeOX+YVm75gTpf+ZAh8xXu+A9lJBymCvfcxV7qcXltEC7mOHvKm378pdG5+FfpUuamG6gU54nRrDMHDmPT47kG4GDhIZWhvIdgwSe2sHIcZgCWlatEuFh59QKYdxYs+G79n57FNdt+puOnd+mrLXm9cO0n1KpRLyoVo/EJzZ0Lm+RWGzk8b17Zly7RyS++psRPPvfu+CvAkILxQtwox7TL8+bNWzNjxgx9CGbF9FitxBeflgBbU7PYkWMxs5CUfvQIDOOK5urK1PRkWrD6I307y16nZ6TQ/NXOTZNtE+MdBfQqO7rdQicmfOgzwcLCPB9HPx6LVX7sYYqurbHVoBSmJ554YonBwqpNj7FrgQWZmB4bABUMVSJcgmEVA2wO/KJD+PQX9WzNXzWJUtL0Dtr6Vta6Xrfjdzp2aqdTppF/5ch/X/HKc99p55obGo2+e4942SqqShWq8sRjDr1Mnjx5YUJCgt5aw0iJL6bHDugFT4UIl+BZy0CayVhmBrk58ijx7F5avf3nQOLRa17COGli83qsb4g1OBaz944XcKWHH/B6rAI7KAI/l7jnnqHwmBgNa0eOHDnOupaNOn7VSnzF9BiWYrAis7byrcCFCd0GonMJ3bX3ycx519KaO35I3/ks9g3Jzg4eS9MalZtRr87PUa1qV+qn6nBdZdAAOvv7n+RtFkmHjouwIvbKVlSuVw89Bzkvv/zyXPbI1wsMXEOQwJcFehjEs4G1WPB8IfRIyLWEtZbvgHkIsGCBmdIHXDQ74m1759GewyvNG6gIeyodW5lu6/oyDb7zhzzBksMWcNv3c9BKZ6bJ/Ou+2jNP+ZZrzamYj63F2Fih+n9HOwSmXLFixZYvv/wSMcLUpOxacAQGL3zoWrBrkcCUOqCC7VJ2LsG2okU7H5z/IH1xHiF+2OwVcHWxNkVFRlOnFv2p61UDKLpYbN5k9h9da/PYR9qAmzs+TV3aPGo4UeRkOf39VLq0Zavhfa8r/ejnAjNrRBpQU0ZGRjp74i8wmAd0LdC/KPHDoMQXT3wDoIKtSoRLsK1oEc2Hdy2IEf+mfvhlG7/icPrWih+mn0OTOl2od+fRVK50vr8KwtfMWzWRNuycntd88brPqE3jW1kHU0nfhS1aMNIU77mLQ8Oo9SOOLQtV4y9rsYiSJdlB1DF+2E8//bRs8+bNcIZUE3Yt2KEopsdwmhQlfqFW2HoPiXCx3poFKsewDst/+/LF+YuJtGzDl4HKb4F8Va/c1KZXqV0NaqRcyshMpeUbv6Yl67/gYzBY0eZTRuYl+mvVBLqj22uaeuXCpqfo2Z3OzZxteN8KlciOGVVJa8DA4V3ODhkyZLUB/9CpYNcCJT50LdC5QPciDpMGYAVblQiXYFvRIpgP/2quz8PCr0VDs/95j/AythpBr9Kt3SBq2/Q/nO8qV30Evcqm3bNozj/j6cIl/AA3JuxkOlxxF9WorD02UlrHPTeSzi9cRNmpektd4/7crvWDnwv8WSred48DS2PHjp2TnJys16EopscQKNC1QMCIEt8BveCtEFPk4F1bf84MSvxo9YCHjm+krXusFeEXepXrWj9CI/pPp3bN7sgTLAknttDHv95PP88f41KwYP4QQkiJ7Cy8jS23/CMPmb82fhAuUOKHRSHVfT5t3bp1Nwen3KObkKLERzBKSGLsWiR+mA6kYL+UnUuwr7CP58e7lt48hMYmFS/YmcvfdvqC9TFLheo+V6/yPOtVquc9r+hVNu6c4dFcEk5spq1sIdei/s2GvFQe+DidnfYnZRw7bni/cJV669/C9eLsqdLXd6HS13XW3L7M9PTTTxv9ggAzSvwwJQmYxA9zBm6Q1otwCdKF9ce0WLAgK9Z7+rHWbP+Njpzcrq/2y3WxqBJUtmQ1KhYVY9tlJLPex9kuAgzZ9CrXsF4lzj29iruTmP33e9Sk9nUUFakJCG17PJyTg1Ub8RQdGvm8u90VaTvsVqo/P8qBh1mzZq1ctGgRjrvUpFfi40gMCn3xaXFAMLgrRLgE9/r6enbP8AAN1YMgftj81RN9Pa5D/41qXUNXt7yf6lZvSxER+Uc3ySknbbuIpWxYcCElPxUwLLpuaDeYrmK9SriiV2ExtGnXzAL1Kg6DG1Rg17N84xS6vu0TBneJyt3ai07/+BOlrNc7sxs2L7hStXExO+Q+IgxE16mt4eHChQsX2fR4uQFjiukxHCXh0yJJwAxACoUqES6hsMo+mCPvWqpytw4/vRes+YhSUv0XPww7lH43vEHNOAyLEUE5f3XL+2zK+d8WvWxzduzQ/C66sf2T7K9SMu+Rw4lbbEd50K+YRUs4jXNrNk0uW6qaY5ccXLL66Gdp9533mmOa7COdS2TFCoQIA3r66KOP5h09elRrLpdrBQZrMDhJQrBA3yJJwPTghci1CJcQWWgfTBPHYaXV/Z48t59Wb/3JB0MZdxkZEU2P9vmM4qu2NG6gqoUQuufmd+hSahLFlCiXdwfm0vPYfNhTvUqBA3IDZNqEL0y/Gx3cf2yPx7RsYdvBnPtzhjvduWzjKz+XuGefIfi2qOngwYOHx4wZo/cGVSvxJX6Yy9UKjZtiLRYa62zqLPlF1ok75J/cWkL8sMvZeotUfSvzrnt2HuWWYMkfMSxPsMBEeuGaj+m9b3vaHCFd6WW84RjHbNgVOaO4UcMpvEQJZ7eLtD6meTMq3wf2GvnEa58zevTouZwLTG9BgGt9/DAo8UXXUqSrWHSDy86l6LC35Mj8bsEPEiQB0wSw2rF/Ee1O+Mdvc6pUrg6bC99ZqPGg6P/ol3sp6YKZ1lrGrEBo4bht4B3fMWCOMb8QNTn+7Tc4LMw2unxR7+Bu3KdRbVhERF51sfiaVOHuXGyyL6ZQzuXCvd8rP86hbDiygJqWLl26YerUqUd1PCi7FnUSMEzGf780jECRuiJFQIRLkcJvycEfY67bqjm/fDmT5qwY79fJtG7cJ08R7+nAJWMq2PxR/EXQ42zePYdaNXSIImxjoWz3m23FLIpp1pRiXnvFrO7y+klLS0sdOHDgIoOOFSU+4oZB1wKlm8QPMwAqlKrkWCyUVtvLufKuBcqK1/XdLONwKKeT9MFw9a3Mva5fs32hO8QOAlZl/qQ5/4yzZLQCNUbffvvtkl27diE2mJoU02PsVESJ788vVYCPJcIlwBcowNiDs0MlNU84YoJVlL+pTEkYqxWeDC24Ct9dgU/CJBpBPK1KmUwjRoxYp+NfOQ5DWBclfphEPbbqIpvMtwgXkwEN8u6W6OdXvFgpiimuSTqpb+KTa2+Ptbx9vjCT8oeOpzB8ufNMFBNnmGysa6tW4mPXAgEjSnx3AA2BNiJcQmCRzZoiO+fN475mqvtDPK7unYabNYTb/cCE2BtKYidHfxJywNzcwSG2pz9Z8HqsYcOG3VC2bFlFT6vsWnBMBn8WCBclfpjXY0kH1kdAhIv119DfM4AkgbI2j1o0uIXqxLXxKx97vchsCZ+QfUfW+JXfbm0HGud58SsX3g1WjmnSpEkd7b1AuMCJUkkChk9c+89SwrvpyNM+RsDRNtLHA0r31keAX87v8yyeVs/k2Kl/adLPd/vNCqti2Vo0/N4/2VI23wTXE2Q37ppBs1nJfvGSPjSWJ72417ZCmXh6+t5pFBmBUGyOdPD9Pyjh0zmON9yoiYgtTmER/BuRPf47rc612Du7dBvtHPWFG08bNwkvFsm+N8WoUve2VGdEX00jzjiZ0bZt24lbtmyBMIF+ZR+X3VywFZTglMaQhmSt7FxCctm9nvT/uAccheRRXKUmtlAn/iJYp63aOrXQw13ZqDc903+GLcS+OhZZoTt08WDva593KljSDp+mI18bZQd20aHq1uWUNMpKvkRZ5/ONuODXYqsrZMk4nUw2vr74iy7t1WYRLcbEu5euzAJ2LtjBYmCEeJEkYO4tWci0EuESMktt3kRZ93KOPbQhYDR0C+eQV8fr0t83+xq+NQePbXC7Wzg0/r3pW067nOsDWDy6FN3C+qKn7v6dGsQj6ID51KBmR2pUSxuqXj3Kvrd+pux0vJdNJN7FmEE5l7Np35s/O3R1zTXXXHnXXXchNwHeH4gSCj0M/jZnYIcRpcKKCBTuTMGKMxWeTUWga9euG2rVqnU7C5rKSseI3wXad8Qo462pw9s6y865TFv2zKXypWtQ1QoNXA6QlnGRfvrrOfpn83e0ZvsvlJ19mUPHtOBjtUiKLVGWsJOpUbkZIckZ2ppB2BE90HOSrX8jSlq5k3AkZhbVerKX7Xgs9WAinZq11pRusYMp1aIOlaiVt8w8RFhYmzZtqkycOHE9H5FCzwLAsIOBRz52NEKCAIlwkS9BoRCYMmVKNseY2hMZGXm/uoOaVa6gzXvmUGo6Iq37nrI5ltm2fQtsOxiYRJcrHcee+/lf66QLx1iY/Eo//jWKjp7aYWMIgmX/0bW2mGKxHMSyWsVGtvqKZWtT++Z3UkR4FEdH3mwTXt7QNa0ecOqVj13BjiEfU+aZwod80fNWa0iucEk7lEgnZ5ojXDDGxe0JVO2uaylMFQqGdftl+NapJUuWwEoMx2M4GhMzZP2ihPC1HIuF8OJ7O/XixYsv4GSEmkyE+LV+SyeNrt/bYdx6HrulKTOfpO9mPZXXHtGO355ysy00jVEaAORcQeriyX88RojoDEJyr27tBtFT9/zu8jirIKZKlijvNJcLnj32/WJK2a0P0VVQrwXcz9szmHs6dWn/CTr2wxKHwYcOHdqzTJkyiNoAx9oKXBCBU36wOiAVmhUiXEJz3c2adU5qauoI7kyjNGhe70aqX7ODWWN41E9Wdj4r6Rn6SCXGXUEwTfjxdluASeUZWKM91PsjerDXJE3qY+MeHGuhyymuyhejbgHle8JHsxwf8rIGJtY2Mknnombn0KSZlHlOe1xYvnz5cpzXBcp9CBicm+H8DyZx5ko3NSPyt2UQEOFimaUKTEZLlSq1gyODfK7nrscInAxuAAAgAElEQVTVIwsdWFLflyfXeS9YPOTBSxapAqCPGf/9rQQzZSUEf2NOVQyTZwgLpFB2hwqynDswbhplJrkn+NwZzx9tYHl2aNIMh6HuuOOO61u1aoVsaNi9VOQSy0V2Lw5IhV6FCJfQW3PTZ3zy5MmX+KWOtLZ5BD1GG87+WJRkFOK+IH4QAwxHZZ9Pe4ROnNlja44oBDBZHsGmywWZW2NMmB6H2VMn68e7+O9hOvGbj1MT+GjfcHzqMoejPLZMjv7ggw968Dyxa8HuBbuY4lzk3aJf/BC7li9AiC24L6Zbo0aNM+xb94a+75s6DHV6NKRvG2jXB46uo4k/3Wk7KlOsx8qUrEJ3ckrlx/pOpsrl6xmy3KpRL6pdrbXhPVTCtBfKfJ+QD4/FwK8z0+TOnTtfde+99zbkJti5oCB1JcyTfSTmfIKedGoyAiJcTAY0VLubPn36JPZ9+Vc9/4KU2r7ASptR0rt3G6zKbEdl3/W2WZwpwS7r1WhPw+7+lXp3fp79enAKlEswxXZlzADz4PNr4czuI7ILFw9OAz1mJGnVTjqzWJtZE6bJr776KpuqESzIsHspz0V2Lx6jG1wPiHAJrvUsstn069cvg3Uvz+kZ6NSiP5v41tJX++5a+fXOI5j1kkVagWmLX7Vlr1RSFkewf0ynlv35qGy67agMx2FdrxpApWPz/UHUk8xOyyToWnxJqqn7chjaP5YdPzO0SSbr169f96WXXrqKB4bVGEAozQUOlt5JeJ/ORDr3JQIiXHyJboj1zabJM9k0GZGT8wimyd2vfqaIkDD3vXbk5Hb6+Nf76ZcFL+SZNkOY4Khs0J3fU+crNS4/mjknfDaH0o75Po6ZbVCzpKqTVUtNOGUzpdbTU0891UtMk/WohO61CJfQXXtfzDwnOTkZkkRjmty0TlefhVfRT0J7LKa/6/01jsbgfDnuu160YvP37GiZqz+B82hEuHFgyvTj5+jIl/O9H7ygHnysc1EPD9NkxCBTE0yT7XHHcCwmpskFrVeQ3xfhEuQL7O/p8QtmOx+POYTk7XXNs4WOYOzRHDTHYubuXNR8pKYn04zlb9GHHAk68SwCAzunfThGStNkKXDe2Js7fgy8goCZhyZMd+CWj0e7tWjRQkyTHZAJvQoRLqG35r6ecc7p06dfZNNkhGTPI1hXtWt6h6/HzvNPyR3Id8JFmciJM6ygd6HsQOiU0/PcD67pHUB+lC7M6PFf/+bQMIc0LNtNk2/hSsU0GZ+i3PduYS35tAgXSy5bYDMdFxd3mk2Tx+q5vJFNk/2ZEpmNmPQsmH7d8Yp7qUqF+k77Ldm0JjV6+2GKKl/KaRuzb/hj3jaes3No/zu/ObB/3XXXtb3ttttgqw2zZDhXimmyA0rBXyHCJfjXuEhmuGjRogm8e8n1QrRzEFO8DMfbGuBbfvz44x2C8vq2T7ieDwu4Kn06UNu5/6PqD3TLTezl+olC380P/1LoLjx+MGn1Ljo9f6PmORZu4W+//XZfrhTTZI8RDZ4HRLgEz1oG1Ex69OiRzrqXZ/VM2X7pl3f+S1/f3tNrM/1cChr7lo5P8U4M709HQriUnaO+pPTjuYELIkvHUL0x/ejKX8ZQ6dbGDpiOvXhYowhWP+zY1Jztf+dXh5w0DRo0qPvCCy/Am1RMkz1cxmBpLsIlWFYyAOcRHR39J5sma9IsIi0x4nT5jvK3Lr48FEP8MFfhbQ7+3590csZqWtv9ZY7JNTPPLwTHZK2+H2U7KitWEa4gJpIL3Y+Jozh0hZwvR79Z5FA/YsSI3mKa7ABLyFSIcAmZpS6SicI0eQSPrPG4a1z7WmoYf43PGfKl7qFX5+ecBuZEauDjPy2zzQ9WYgj4uL7Xq4Tc9jZSjsrmv061hvSmsChESjGR/LxzAecJn8ymjFPaHD5sOVie44514duKaTK2eeJYaeJSB3JXIlwCeXWCgDd+v2zj3cuX+qn07DyK/UJMfqnyIJqoyPpBTbpu2bAH1Ylr47Q3o/hhqQknadsTE2n7oA8p7chp27MRJaJZuPSiq6a/ROWuaea0P7dv+C7ifoEswDQZuzU9cTrkbo0bN67C9RI1WQ9OkF+LcAnyBQ6A6eWcOXMGUZM1P2srl6vLWR/7+YA9tUbf/IMxREiGrsUZnf5rA51boQmxpmmKuFzrer3CoWB+p8uXkCGYM2zVqUJXTB5GzT95korHQUVROMoXrObP2x2OTkxbQRe2HtQ05agNxTnnS3euVEdNjuZrefe4A6qF28gCW3jxrMJ6lSpVElm572CafEP7Jym2OCK0m0dqtYMvjsW6tHmcypaKM2Q4Oz2T9r/raJqrb4w4Y4c//4vW9XiZEv9clXe7fJcWdNXsV2xHZeHFCrGrKyKdS94E2DQZuza930+XLl3a6UyTYZctUZP1X4wguxbhEmQLGqjTWbFixQd60+QS0aVtKYV9R+b+gi9bqhrHD3vQKbtHvpiXd+TltJHqRvqJc7Trua9oy0Pv06W9x213wosXsx2VtZn5MpXvcoU73Ti2MXfajv27qEneuI9O8e5NTXbT5D5cJ6bJLrALtlsiXIJtRQN0Pl27dk3j3cvzevbaX3EXVa3QQF/txbXvHF0QwiYqEs7mjgRBgd1IYQhh7Nf3fc32qx+6C1CJ+Mp8TDYk96isJnwRXVNsw+oUHg1dOVGp5rWoDetxmk0aRNXuupYiS7mXQdP1CO7f3f/2Lw7hbtg0ud7zzz+vmCZD/yJRk92H1JItRbhYctmsyTSbJk9j5f5CNffhnLERlldmkVqhb+axGHK4NKt3g1M2cRx2OTVXh+K0kYsbOVmX2Zx3oc102XZUZj/iwlFZ29mvUr0X7qKIGKgqtAT/mcbvPUpt/nwxT7hg9wNhU+GGVtTg1f7Udv4bVPVO31vnKZzZAnV+rbFAt91i0+ResbGxiu4FyiVIPUmJrFvTYLkU4RIsK2mNeeSkp6ePYlYvq9nFixu56s0h83cuuQLQwR80j13bUdDsdaawn3EyyXZUtvmB8XkphWGqXP3+61kf8ypV6dshb5xilcvSlT89T5V7tXMZZj+qbCw1fO1+m4DyFyV8MocdSDXh5ahSpUoVJ06ciIUW02R/LUQRjiPCpQjBD8Wh+ZfrJt69fK2fe6/Oz1JkhHHIen1bd6+RwMsMyj26QxZfA4IS+42fHJTYBi09qkLGyg23vU57XvqOMpNSbM9GVy1Hjd56mFp8PZxiG9ekZh8OslmauUsQUAhB4w+Cf8/BD/5wGOqee+65oVGjRgjHL6bJDugEV4U5/33BhYnMxscInDx5smrFihV38bGVxkV92955dCb5iFejl4qpaMsMCTp4fAPtP7KWMjIvedXnta0fcRrm5fjPy20CwJeEnUf8k72oev+urPHP/ZfNyc6msHDPfxvCUm3tLS8SdEQ+J3bmxM6qVIvamqEWLly44oYbbvgeS8QF8eeOcUnlkpscR9NaLqyKgAgXq66cxfnm47ExHJ79DStPA/HD1t7yEmWeveCXaUBRX+/Fu6l0y7pejZfw8WzeVTg6PHrVqZOHwWurqXykqIoakM3EpsnvT58+fQs/BuFygAuCsCHJnPnnmk54k2rfIuD5Tx/f8iO9hwgCbJo8npXve608XcQM85dgAU4Xth2iTfe8Q4cmOibp8gTHQps4ezKIvW3y5v10ctZazZPhTGPHju3NlYppMpydJOdLIfAN5EdEuATy6gQxbzBNZt3LZ1adIqy7Etkj3e/EOp5LB096NWxMnapePe/pw4cmzHB4pGnTpg2HDh0KRx4larI4VjqgZO0KES7WXj9Lcx8ZGdnTqhMIi4yg6g85N0325bwiY419bdwdM7x4lPnBMl0MXvEWuLdoiZPJpS9btgxHYdC7QcEvpsl6kCx+LcLF4gtoVfb5SOxe5t0s++MigaHmozd7FQussEwr1mOFfT7rfArlZGoCVRe2qwKfK1ahNMUPQGgxLf34449LN2/eDDM4SErFNBk+MBI1WQ+WRa8LEcDIojMVtgMGARYsMcyMQ6yxhCPnKTXV+KUXGxNF4REF259ERYZTpYqxtrleuJjBxbVjYwn+FR/JzzgjGGfFxhqbSGMHUOeZ2+jfZyY7e9z0+gpdW1C95+/0ql99cEmvOivg4TrP3k4RJbU7LQ5kenbYsGFr+FEsKN5BSIMM02SYsF3kAsW+8ReBbwhZAwERLtZYp2Dj8gWeULx6UseOX6BHBk+nzEyNf6XH865buxx99THCWBH9MXMnTZ6ijXPlaYfhbOX0yQe9qFED42jFlXq2pWM/LqXz6zQZnT0dpsD2SDJWb/RdVKat96Fy9LG/Chy8kA1gKVbl1vYOT7/55ptzOM8PhAeECyQ7pDeU+hAwOCrDjgZfBLEcYxCsSs5/sll1RsJ3QCPAuxbY0Y7QMznhk9VeCxZ9n2ZcZ3MYlo8ma62d9P3WG8Oe73b/E/09b6+jypW0edYjPXKeYGGektjJsjCEvDKJ01YW5lHPnmE8bBEBdInLtmzZsmv8+PF6SYwQMNjeQKmPbSeOxuTd5BniAddaFjDgliToGXqfZ6g5J1m34RitXOOd86SCmvqnbsGHaO5hvWnLCVr2zyGnjbGrqNKno9P7hblhC/nC3vTtOC4YPOvDInL/VXGktened2nL/ePo6BRNmLYCh0FKgJ2jviRYuvmaqvbt6OA8ydaBl4cPHz5PN7Z6mbB8iiOl7Fp8vUg+7l+OxXwMsHSfjwDvWmBeles+b6/OysqmDz5ebR5MmoQu5nX78eR11KFtDSpWzDjOYp2Rt9Hp+Rvo8sXcqMbejGzTq/BuqLgqGnJ6YhIdfH8aB7VkrOxz3P/OrxTGeV/i7inYLgIOn/+OmEwXNsNf0bcUwdZstYf3dRhkxowZKxYtWnRGdwNCBNIOR2FIKIfPDC7ire+AoLUqjP9TrDUH4dYCCLBgwVEHHB408eN/mbaDFizZb9oMypYpTrf1bmzrb+uOk7R+U26eFG8HgHFADBsVXNHMOJaXLWIxvyYRPr+whB1Qk/GPU022roosA5sHfsNyjK4jXy2gf5/+jLM86nZPLGTOLt1KKbuOUskmNQlHaA7EfjGn5q63PX+RnTD9QXWG93FI28w6luSbb77515SUFP22CUIEoV/gvHOYyyn7tQgXfyyWD8eQnYsPwZWuNQg8xVe5b3179bmkNJry42bLwPTtj1vo5m71qUJ54/woNR6+kRJ/W0HQa3hCSuywuHu75B1/YXcCxfuBd36jtGP6H/va3k/P30inF2yiK38dQ6WaxVNORhYlfDaXE5edonPLd1DGmWRP2PGqLfLQxN13vUMfkyZNmp+YmIgdiZogQGAZBgYB2mkuCASnF0Cah+TCGgiIcLHGOlmaS9614Of+f/WT+Oyr9ZSSon/f6Ft5ds1j5T2g0yV71pFB60upmTbrs+eGX21wlzXQfEQF0+QdT31qeF9fCUdMCJRaQ3trEnpBr4LEYQjl7zbxvJVEY9nsw3JokqNXvNt9edEQSnx9iuYDBw4cfvHFF7fpulWOwyBMID0hXCBkJL6YF/gH0qMiXAJpNYKXl7d4aogjlUe7956hufPNDy2m1gKbFXJfzTd47tOzETVuaJwdsuLNrdmqqyEhZL4rgl6l7uh+nHES1re5ZKRXcdWHwz1FsJotVR0GMq4o16kJlb+uueYmC/ucMWPGzOVYlXoFPa4hSKBnSeQCE2QorGTXYgyv5WrFWsxyS2Ythvnd0oY5fkDNNd6BEz9dQzDzNZ200sX07sEzeHfFer0x/fKPt3QcxNSrRs0/H0bNPn4yT7BAr4IUyeu6v0SJf6wqfG6YPOFi+rQL7BDWbfVfvMeh3dKlS9dPnTr1qO6GsmuBwyR2LNCzILS0OE46IGjdCtm5WHftAp5zFiwwM/2Qi+ZHzPzF+2jLNvxYtSZtY0OBJcsPUtdraxtOAMr1Kv/pRCd++Tvvvrd6FcOB9JV2wWpmemf9EM6uYS6tT1yWlpaWOnDgwMUGz0DXgl0KPPIhXPApFmIGQFm5SoSLlVcv8Hl/iFnUuGinpWd57TXvatq+1Lmox4VjZcf2Nah4tPG/UJ2n+9JpttK6nJphrFdhy619b/5EyRs80Ku4mngR3ouqUIriB/Vw4OCbb75ZsmvXLpgWqwkiEDsU7FQUJb7ike/Qh1RYFwHj/wzrzkc4DxAE+CUPb2uHZGCwuEo8qX/fmMe09lTMLDdKR/5OnkohmFHff3cLx5tcgxdug//dR7ENqlNM/Wp5bTJOJrGyfSYd/5V3NQ5qCMOu3K7MF6y+m7cRM3We+Y/GIAFt2DLsFDtMrtO1V47DYHqsKPGhc4HuRUyPjcC1cJ0IFwsvXoCz/jLzl/9W5YtjJy7Qz9O2+5RttS7E13rt76bCNLkeVa6UGyhTP7FK3a/Kq0J64aPfLqKET2bnWXXp25t27UfZUrJpPMEbX08cP2zupUuX9Mp5CBdFiY9dCwSMKPH14AXJtSj0g2QhA2ka/Asa0RWH6Hn68DPOZ5+hf9/oW1nn2t0jvrNLttC6ni/TgXG/+1aw+NtajKW3LX6YLq7a+vXrt0+YMEF/3qfsWrBthT8LhAuOxiBshIIQAREuQbioATClD5gHdlnPJ3jK/70yweesqXUutpi7PqZ5i/bRzt14Vzqno98uprSjrh0hnT/twR1XJmwedONuU0Q8LtOmvqZ5VlZWJmeYnG/QB469kP8AyntYc+AT13IcZgBWMFSJcAmGVQygOfDLHfHuNdmhLl/OpklsvusXUild/GE11bpVHJUprc1Xop9nPfZnUQJP6u/54trXx4HgGeFu4DCqp2nTpv2zcuXKJF29smuB6THMjlFEia8HL8iuRecSZAtalNNhwYK8HO/qeZg2YyftP4gfqr6nHFUKEF9uXOJrlqEnH29rC2ZZEEGhX/XOa+j41GUFNfXqft7GxQ/SJX5gDypWGYkj8+k806BBg/4xmIRieqxW4ovpsQFQwVQlO5dgWs2in8soZkGTzSr5Qrql4ocVBGHpUtE0bGB7+poTkqkFy/qNxyk93bk+qQ5HCY4sY6z4L2hMt+/7SeeCaM3VH+zmwNa4ceP+4iyTeh2KEj8MVmHYsUDASPwwB/SCr0KES/CtaZHMiHct1Xng5/WDI35YcjKO1v1DWmsx8/YuSIXcu3tD+m7ybXR7nyYUYc+vsmvPGRo6ag6NGPMX/fjrVqeThGDBr32fktoO24cD4ZgvPBpBrvNp9+7dB1577bUdumGV4zCJH+bD9QjUruVYLFBXxnp84ThME/N97/6zNOuvPX6diUanbZJsaXNlHA19oh3VqZV/DHTmbCp99d1G2/yUsFk//LyVut9Yn6pUNgh9zyhUv78rHf95GaUesG50grIdG1OF61tq1pTjhmWPHDlyrsFCQ7jg+As6GHX8MFHiG4AVbFWycwm2FS2C+fCu5Woe9m790BM/4fhhJjsK6sdwvM7/+e6tbImvUYbeevUGGv/mTXmCJZOTm/325790/+O/04w5uzXzS2cz68++3uDIkr0GUZDrPXeH0/te37BLVl8ZMsAowZbSWUcLFixYw4nA9BJTrcRX4odBoS/xw/QABum17FyCdGH9NS0WLPiB8n9cNO/yhUsP0KatJ/zFhqnjQK/yUP9W1LdXo7zjLwywYvVhmvDJajp+Au9IY1rIic/6ctRkZ0nFyndpQeU7N6Ozy33hTGoXrN5KVeOpcZ6WrhxxIE5zNzU19dLgwYONLBX08cOwexHTYyfYBmO1CJdgXFX/zukJHi7fFR1vEP4F/+mX6/3LhX00b3Qu0KvgWOuxB1sTMloqhPQAMKXe7EawTYw/gXdsn07oxb6Fxm/5us/fSedW7jQ9l70v3VwQeLPW4J4Oa/r5558v3LdvH3QqalKU+OokYGJ67IBecFeIcAnu9fXp7HjXUo4H+J9+kO9/Qvww57/u9e3NvC5VMt9308m73XA4m15lQFuqUxtTyiUjvYrhw7pKCKP5i/bbQsMYEcLuV7vrWjr2/WKj297XeTJxN0erPeI2B2u3o0ePHh81atRGXRfKcZg6fpgkAXMT52BqJsIlmFbT/3N5jYesqB4WAR1/+s0XRz7OJ9e2dRzd2qMRtWtTnYoXz/9KX9MxnnayNddfC/Y61f1ArzLosauoU/uaeQNArzJ91i764psNlHJJb1nrnA/1nU++WEedO8VTTAmtVZXSpvZTt9KpWWsoM8nEIJ4+2rqUbFqTqt4OtZqGcl566aW5GRkZeuU8hAv0KjA9hq4FScAgaJzbaWv7lasgQUCES5AspL+nwbuWZjwmjsQ0NOmzNYSYW/6gkrHF6IVRnTWCQT1uxQox9DynJO53W1N66fXFdPhofi75UiWL0b39rqA7b2tGUXwcphD0KjBEQJBNb+jsuVT68Zdt9OgDVxp2E1k6huKH9KZ9r081vF+oynxbBtaA8ZGcScKm3ui7HCIMrFq1asuXX355SMensmvRxw/zzxeiUKDJQ75CQKzFfIVs8Pc7iaeo+XGycfMJWvq3/n3jGyAgWCaN6+FUsKhHrctHXR//Xy/bkRf8U3L9Vf5D9955RZ5g2bPvLA1jf5XRryz0WrAoY0/9bRudSHR+PBh3z3UOCnKv0NIonLzqKe/hyj3bctpmjV8sBx/NyOAkYAsMRlAr8SV+mAFAoVQlO5dQWm2T5sq7FtijdlF3B5PjiZ+uNmmEgrvBjkXtd1LQE9ipjHvjJrrAEQNqq/xVzien0TecY+b36f86PTorqG9n9xEB+pMv19ErozVQ5TWHaW9ddkjc+giM7QKPwotHUW2D+GG//PLLss2bN+u3dspxGKSpkgRMPPEDb1n9xpHsXPwGdXAMxIKlBM/kbf1s/mQdxb4D/okfBh2LWkei58XZdYXyJfIES5bdX+Weh3+jX//YYbpgUXhYvOygSyuzcp2aUPnrmjtj2aN6Xpu89mb4usQ/0YOKx1XQ8HCWiU2PVxkwBp0KcrMgvAt2LTA9lvhhBkCFSpXsXEJlpc2b52juqpa6uwsXM9hbfZN5IxTQE5T33pBNr8KmxceO6398e9Or82cnsm/MZxN7OzVNbv7pUOcPO7mTw5GmL6fgXZ5PESXyLeU6rhzn5EnX1VkXWPdud3yNrpZvOac89dZbb81NTk7W61CM4oeJEt811EF/V4RL0C+xeRPkX8bx3Nsz+h4nT9lAOF7yB0FPfRXvXLwh+OD4S7CAT+hz5s7fSz1u0uouvJkDjtRgFOCMXN1z9gzqXT23a9eufe++++5u3fNq02MktsGuRUkCpjYxcDWs3AtCBORYLAgX1YdTep/71rzRDhxKsoVB8ReVYu95Z+a97vJQpbKPoxMbMIKwMIU1azbozu9Vl5mGDBkyx2BgCBAcf6mTgOGXht5E2eBRqQpmBES4BPPqmjg33rXA3byuvsuNm48TkoH5iyJ0KXULMy488f1N59g0ednfB/09rGnjHTp06AjHENOn3DRS4kOhLz4tpiFv3Y78/19mXaxCmnNWEONFMlwPQm/Wf9SoXlpf7bPr8+fTCU6O3tCp0/poJd705t6z8Lnpem0d9xoHYKuaNWtWa9myZSkda4rpMRwlYSEmSvwAXLuiYkmES1Ehb8FxWcAsYbZ/V7MOB8SBj2pCi/l0ZtlsEbXFi4CYqWlZfrNqUwMxmKMAqKMH+BQkH3QeFRVV7MMPP7xe1bWixFfHDxPTYx9gb9UucdQhJAi4jQAfj+FoDEmh8k2T+GLkC/No7YZjbvfjTcObOGbXCyM7F7oLOHt+8PEqgr7IH9S8aWWa9F4Pm9O8EZ05nkypF6C2MKZiJSIpwo2jvFLlSlAx9k0BnT2R7NJBH86k0U5C0yhclGD9lpp47XPuvffeyVOnTj3K9bAYwxFYAhco3Q5zkeCUGsRC+8LJ1z20QZHZu0aA3zHwc3lW3epgQhI9Mni6X/QviDYM094G9cq7ZtTFXfi5wDfHm/hhLrrPuwVeP/6/ntS4oSYEW979FLayG3vfT3SJnTu9pQde6katuuYGy3zuli8p08swPAPe7k6N2+XHXAN/Bw4cOFy/fv0vOD8YGIYOBoIFGeFwNOb9JLwFQZ4PGATkWCxglsJSjLzO3GqStdSOL0u9bjHP1NYVGjgaQ6wwT9InI4IAcrHs2Ik07mxyyzsBpCv+9vP/2KIXO9tVuOLDnXs9bm7gVLDg+VmfrzFFsKAvs6O//PnRSrqs02/VqVOnJgesbMrDKfoW7FZgHab3fXEHHmkTxAiIcAnixfXV1Fj3coF/ub6i7x95UJBoyx+EwJJPjpytCUbpbNyLKRn03MsLbBkkB4+YRW++t5zOJeX65cBrfwwfsU14pzvVr1v4nZDR2LExUU4DV6L90T2nac3sXUaPFqpO7aGvTd1WqO4okY8NV0zHCaiWhg0bdmO5cuVw/hbBBZ/wl5NTED1QIX6NL4eQIOAxAs2bN9/UpEmTW1nQVFUejo6OtO0I1q73j+7lfHI6zZq7m1JSMymuWilS53IBT4gjBh+cV8YuoX3780PTIEzNrL92E/jFcRVCpSDvfe8eDalGtdK0ZdtJSvfySAnjP/HIVXQV54lxRt/+byHrRsyLEtCCrdGq2QXkgu83Ouw6nPHhqv7QvyepQ4/GrMvJ97cuwVSrVq2s3377bR8/CymNScjuxRWQIXhPfm2E4KKbNWVOcdutePHimui40GU8POhPSjiCdB7+JZhEQ0jAgg15ZaAHwnGYK8Ju5enB7TVpiZNZKE35YbNXwSxr1SxDX37UxyZsjWjDwr303euLjG4Vuu6+/15PrbvVtz0/usdXlM5C1wzq/J/mdNvQTpquEBm5Q4cOb23cuBE6F5SDXCDB5XjMDNCDoA/jb34QTEym4HsE+AfsInbcnqEeCS9TJN8qCjrC+VrWbzxGq9Yeof0HzxUoWMDj3v1naSiH2n/5zSU2gQTC0Vd0xmIAACAASURBVN7QJ9rRpx/0omZNKhVqKkMGtHMqWKBoh67FbNKkbzHxZ+M/f+6g4wegr8+nYkwTJ07swTVluVTmgkBkyA0t7xQ1UCH8t3wRQnjxTZh6TkpKCmKNaayEELG43VXVTejeP13gpbxk+UG6f8A0+vr7TXlOmg3rV6APx/W0mT2XK4v3pnt0dQfX81/AY5xzkefFvVEMWqmjIpuoAsnmCAx/TFrpMGCnTp3a9O/fvyHfgCkcpDCcLEX/4oBUaFaIcAnNdTdt1mXKlNmTmZn5sb5DV7/c9W0D5TqNHSwR3fnhgX/QmnVw5chN6Ai/mu8m/4fu6NvUlmzMFeFIbtBjbZ02OXfyIi39eYvT+4F6Y8+Go7RjVYKGPdZVhb3++ut9wsPDld0LLCJk9xKoi+hnvkSh72fAg3G4Rx55ZDULmUf4XZMXEbJsmeKUdD6N/t2lD0cV+AhA5zJ/8X7avfcMNW9SmUpyorFixSKoPe/GsCuBLifxZO4Rmn4299zRnK53Eeblp7eX0jE+ivMFXXFNHYqrl5t/ZeGPmygr09wQXwk7T1LH3k0oXCVgyzKxcDm9ePFihH+BJyi89KHcN3dwXwAmffoUAdc/w3w6tHQeLAiw70MS63df08/nkfuvpNKl/WOarB/bjGvkfXnwiT9sR2XIKgmCAcDEd7vT2Fe6UeVK2ujK5dhDvv9dLZwOvYf1QVuWH3B63/sb+cYLvvDbOc06rX84sZqeOFpyT/5xAZ0LjsYg3ZBQTn646oEKsWv5AoTYgvtquhzYcOOVV175H969QLlro2j+tQ9z39X2IyZfje3LfrNY37BpywlauPQAxVUtRTVrlLENh89buzeiqKhw2v7vKZvxwDNDOlKTRsae+Lj/9Yvz6AJHR/YVNb+mNlVnPRFo0dTNlGUXiGaOd2j7SWrHwUrVoWNgmhwfH5/1+++/H+KxYKKm7F7EcsxM8C3Wl+xcLLZggcruE088waqXzKf1/PXt2Yjq1HbMaKhvF+jXSC42+pWFNGLMPEo4nGtmjUCUD/VvRV9/3IfuvK0p3Xh9bugVo7msYIsrXx2HGY1norGYpvu0Sxn019frHYa84447rm/VqlU1voHdCyQstnXy49UBqdCpEOESOmvt85myz8tCNk2epR4ICnCY9QYLwdT5kcF/2tIkp9r9SOBfAwMGZ0dRiBtm9EI2HRPXLj2mDbdq5r8OgpItk6M/+OADMU02DWXrdyTCxfprGEgzgGkycr5oTJPb8A/aju1qBBKfXvGCfDK/su7hvsen0byFcFJ3TbO/WEsIUOlrUod/QdQBXxGO+P6YtMKh+86dO1/FUZPVpskluZGYJjsgFRoVIlxCY539Nku7afKn+gGxe4GZbjDR6TOX6P0PVxGsy5zRCXbmXDVzp7PbptZrNi6+ky02nvfyDm7r3wc1/MM0+dVXX+3FlVBMQfcmpskahELrIrj+20Nr7QJ2tomJia/yr+gzagarx5Wmvr0aByzPhWXswf4tXQbrhFK9Ug0/ZepUO1H6WLgAr+kfrXIwd+Zw/HU5ajJCNECwQMBg8ghu6QeOCruK8pwvEBDh4gtUQ7xPthw7y6bJ/9PD8NB9rahMafc93fXPB9o1BObttzZxyVYNDow5cvIdtthc0RwlOZgISc6W/7bNYUpPPfVULzFNdoAl5CpEuITckvtnwlOmTPmYw/JrnCJKxhbjEPSt/MOAH0YZNpCP+qKMDaKwYzm2L3fzhiySCP74/JR+dNVNUEn4hjSxxfy0UZj37QZK5uNBNZUvX77cpEmTunKdsnuBB38xLrJ78c3SB2SvIlwCclmsz5Qz0+Te7BtSr471TZOvah1HHdo6N1KAh/y4x3+nH8YuoRSOVAAqUzGW7h3dhQa/34uq1jE3d4xtAJXSxYf6fM2XM/1SJs39ap3DF7Zfv37dxDTZAZaQqhDhElLL7d/JIhw/mybPVY8aHh5GQyxumgzDhKcGtXcKZhJHV17MToyw3lo3bzeNvf8nWv77trwozfVbxdFIzoCJo7LivJszi3KKQrow86s54dnhXbkZPpW52E2Tb+FrJe4YPiXumFmLbYF+RLhYYJEszGIO53xB1GRNYpHWLavRNR3jLTut2/s0pXi7p77RJKZzeuAMDoKpEPxcpk1cQf83cBod3J5oq0Z8LhyVjf6mH3Xs1cSWsMyqBCGKqMnaYzkiNk1ue/vttyPBjBI1WUyTrbrIheBbhEshQJNH3EegVKlSO9hz/zP9E08OaOtUX6FvG0jXCL3/wD3O44cd2HaCNi/db8jyEU5rPHHon7ajsotJuWFgSpWPoTuf6UxPfdSX4hvnRc4xfL7AyiI4FlN4wry3LNPOmwVm+NixY/twGzFNLnDxgq+BsTYy+OYpMypCBFj/spqFzGP8skFAQxshJXFKSiZt4zS6VqKn+TisKUdKNqIcdi786qX5DgpufVso+lfN2mlLHVwTaZb5qBD6mPYcs6ti9TKEF7V656N/3tl10w7xVLNRbnKzJRzW36xMlM7G09cf2sFRk9l6DgYMClWoUKEcH42eWrZsGc7NEDUZ4aThGCRRk/UABtm17FyCbEEDcTo1atQ4w6bJr+t5g49IeY4kbBVC8rCbb8xNI2zE80oOi3Jkt3spBlIvZtiOyt555Ffave6IrTsImatuakDPf3MXXXt7c4J+yiPS7Fw8fNajgYwbJ3GummW/bnW4OXz4cDFNdkAl+Ctk5xL8axwQM2zRosWGJk2a3MG7l9yf1swVzHhhnozQ9oFOUIm8OqYLVa0MtYEjpbJeBbsWpDD2hGBJtm7+HsKRWZ0rqlIJxiOKI0k3bleTmnaqRcc59wsMBJxRLOfNaXdLQ7rpgda2Z7AbAsEUGiHy01KwWfAfJXCE6Ha3cNRklU8PoiZXr149c9q0aVhodc4Xz8Dy3zRkJBMQ8P/PGxOYli6siUBaWlqv6OjoGWrus1kLPPCpmbRrj8ahP+AmiGyUSHfsjLALgUWYNwTB0PXultTt3lYUafefgZJ8PQufGZ+s0oTrh7C77s4WdNODral4jLHFGZKFwckRsc0uczw0f1FbFnb3PNdFMxyvfRqnZBi7c+fOvXxjN5dDXM5xEQHjr4Xx8zgiXPwMeIgPF5aVlTU3IiLiJjUOW/msfujI2Q7WRoGCVYkSUfTd57dRxQoxhiwlHjpH7z32m2kv8EpsidZ3SCdq0r5m3ng4Rlv4wyZa+ssWgm7n3jFdqXU350d0akb3bTlOnz83p1B6HMMJF1AJy7enPurjYKCwZMmSVV27dv2WHz/IZQ+X41zggek/yVcA73LbPATkWMw8LKUnNxB4+umnN/EpyePcNO+7V4UzOu7nAI+HEnLzpLjRjV+bIKOmK4fJH95cTKeOmMf7peR02rBgr+2orHazKlSCjR+iOPFawzbVqVWXulSnRTW60kXuGD045auUosq1ytImTt3sL0LAznbdG2vSENSqVStuy5Ytu3n3cpH5gGepotwX4eKvhfHjOLJz8SPYMpQNgTBW7n8YFRU1SI3H8RMX6eU3l3CVY1KSy5dz6BJ7gptNFznxFXYBrgipjD/9oJdTs+mtyw+yrmWeqy68ugf9y/X38FHZPXxUxgLGG/rihb9o+wqcRvmH7n+xm4MQ3LNnz/6GDRt+wBwkcMHxGKwZIGTEesw/y+K3UUS4+A1qGUhB4MiRIxXi4uJ28/GJD2Kg+A9n6DTeZWsvM3ctzrivUK009eKEZC1551JYOrD1BE0cNr2wj3v8XFkWzLB8U4wMlA5Gjx799VtvvfU3X0P/goQ4MLGDebJrSe8xB/JAUSIgpshFiX6Ijm03TX7T6tNf8tMWvwgW4IQIxN/8b4FX1l84YoN1mb8IVm7wt9HTiBEjesXGxiphYSrwfdije7ct0w8i10WOgAiXIl+C0GRg0aJFkzhsCI5FLEnnT6fYFOz+JAgGb2KRwY8GxgL+JGB0jv1f1FSpUqWKEydO7MJ1StRkMCU5X/y5MH4YS4SLH0CWIRwR6NGjRzrrXkY53rFGDfw5/O0BH+3E5NgTxEqUNDZb9qQPT9rC72ftXMffEBw1uWtkZGQp7gt+T4g9FstFdi+egBvgbXM9rgKcSWEvOBHgqMkzLl26NOz06dPVoIc5efJkBQ50GcPmyrbvJe9sbDrBsmU5oJebxH40URyR163vdTi7wPPxTHRBXbN1WzF2AK2PNL5K2+bX1LY5PUKP4S9S4pF5M17y2dyYZt704cmzcKbs0NMxA+ny5cs38zpjt6Icj8HcDszBckysxzwBOUDbuvVPGKC8C1vWRyAnJibmI54GfrUiOQoyacVzCbjouXPmzLmFqYMCOcQMQua//8Q0W2h9fxByp5w8nESVa+J97Dll8C7iVEKS5w968cRND7Sh0jr/oBQmjje3lLvFTgVrj50LHCovcIFZIIp/QOWBhHyDgByL+QZX6dV9BPArFT4PZ7kgiiV+wSJECF4uAfOCGTRo0FLeZWlSLtZoUJHa3NjA/Zma0HLLsgOF7mXHygSCgPEXVaxemtMKNHMY7rPPPluQkJAA6zC8f3BOp0RNRhY57CTlveSAmvUq5IzTemsWjBwrggQvFVgOoSgJ55VjEv0nntHXmXWt8JP3mZSUlFG7du3MNm3aYHeVR7WbV6FVM3YSzJL9Qcf2nqWOvZvYnCo9oWz25/n2fws51H9uVkxPni1s2/4vdKUq8dqso3z8eaxXr16zOQU2ulWOGfEJrHEsBu2/RE0uLOgB9Jxn39AAYlxYCSoE1C9zfCdxXIu3D3YweOGoC96O6oIXkb5Of402KOhP+dvVp9IOn3ll3rx5B/k4pwXraaCItlE0h4bBi3LvxmNKlU8/oSA/dSSJWl1X16MEY7M+W0Nb/z7oU97UnTe8qgZ1f/gq/Xg5Tz755M+bNm1K1t2AcMGWCoIFO1c4Vfpvi6XnUq5NQUCEiykwSicmIKDsRLAFwJk7XjA4h8dxmbNS0H08hzZKcdaPUo92UEqgKH/nPc95Sc5WqVLlcKdOna7n+3lUi/O7rOdwLYj/5Q86yXqT5DOXbFGQCwrLD3XQgu820PxvN/qDNdsYyOfy2Js3O/jU/PPPP5s5/M8aA0bwQwLrDWdK5H2BkPHPVtCAGakyBwHx0DcHR+nFHASUM3hEiHR29q4+SnHn+6tuDy4L84xmdnxE9mWZMmWuVVduWrKfvnl1gTkouNkLEoPdOqgD1eO00UZ0jMP1z/h4Fe2y54sxauOLuq53taDeA/NsH2xDsNl5etu2bSdxbDEo7dUEIQJdFrZ+sFk+yAU7G9m5qFGy4N/u/KNZcFrCsoURwHcSO+qClLqefHc9aQvoXLbnY53GLVu2XM3tFL2QDe4Pn5pBiEDsb4JjZKO2NagcB6iMiAhjp8UU2rvpGB3lwJf+ppJlS9CY7+5ycPacMmXK/IceeugfHT/YrWK7h50jwsAgHAyMOnBkaVPKCFkXAZf/RNadlnAuCPgUAQTfnMTBNwerR8HLfLwfTZN9OsNCdn73s9dxNORGmqfPnDlztm7duh8lJyerdyMQLNi14DjsMBfsWvCJIzHZtWgQtOZFQb8OrTkr4VoQ8C0COezw+RL7t+AXdx5VZ9NkZIUMVYJpdtubHec/duzYOTrBAoggXKBbgwIfuxVki4PhhuhagE4QkAiXIFhEmYL/EbAH33xDP3JPjlzsTfwvfX9WuVacShG/TE1bt27dNW7cOCQGU5Oya4GuBWd3EC6KAyXuCQUBAiJcgmARZQpFg8D06dMnsRnyv+rRoXNAmuJQIziTIhyOmti67jJbh80zwAICBHoVWOIl2j9hPi56FgOwrFolwsWqKyd8FzkCHHwxIzMz8zk9I136tfB79GE9D/68hq9PrwHtHYacOXPmCo5+jeMuNUGwKD4tMDsW02MH5IKjQoRLcKyjzKKIEODgmzP5B7rm1zn8PHA8Fip0w31XOsQPu3DhwkV2mERCMD1hd4JdCnYt6nA/smvRI2XxaxEuFl9AYb/IEchhZfUzzIUmD3OLznUIXurBTsiQed0dVzhMc9KkSfOOHj2Koy81QYAAJ/ixQLBA3wK9iyjxNTAFx4UIl+BYR5lFESJQvnz57Xw89oWehVsHti/Qg17/jNWu+w7pSJG6OGcHDhw4/N///nerbi5qJT6OyiBcIGQkArLVFt1NfkW4uAmUNBMEXCCQwzlpXmTTZBz15FFcvQrUvodjLhMX/VjqVoPW1alZp1oanhmDnDFjxsxlQwe91Zfa9BhKfJhx43hMdi2WWnX3mRXh4j5W0lIQcIpAXFzcaXasHKtv0P3RtuTv7I96HnxxHR4RTti16Gnp0qXrp06delRXr+xa4CCpKPFheizOknoAg+hahEsQLaZMpWgRYMuoCfzDXePTUZKTaN5wX+uiZcwHo19zWzOqVqe8pue0tLTUgQMHLjYYTq/Exw4PYV9EiW8AVrBUiXAJlpWUeRQ5Aj169Ehn3cuzekauvb15UJkmQ2De/GAb/TTpm2++WbJr1y6Ec1GTYnqMnYoo8R1QC94KES7Bu7YysyJAIDo6+k82TdaER4ZpMqIXBwv1eLSdw1FfYmLiqeHDh6/TzVE5DkNYF0WJj3QGsmsJli+Di3mIcHEBjtwSBAqBAEyTR/BzGn0CFN+NOXKx1ckWP62HNjAl5vTmm2/O5SzQeuW8WomvxA8TJb7VvwRu8i/CxU2gpJkg4C4CbJq8jXcvX+rb93myI0ERbmWCEl+foGz9+vXbJ0yYgJD5alJ2LUoSMHX8MCtDILy7iYC1v+luTlKaCQJ+RiCHw8wjajIi/uZRlVrlqGMv65omt+5Wn+q10CYmy8rKyhw6dOh8A3yhrNfHD5M8LQZABWuVCJdgXVmZV5EiwOmQE1m5b2iaHFu6eJHyVpjBo6IjqefjjiFtpk2b9s/KlSuhR1GTkekxdjD6Y7PCsCLPWAQBES4WWShh03oIrFix4gO9aXJMqWi68f4rLTeZG/q34kyXJTV8n2caNGiQPrsk2iimx4oSHzs4UeJbbtW9Y1iEi3f4ydOCgFMEunbtmsa7l+f1DeAjUrV2OX11wF6Xq1ySruNIz3riPC1/8fGfJqYat1Hih0GgwGESAkbih+nBC4FrES4hsMgyxaJDgE2Tp7Fyf6GaAyj1e3PcMatQH1biF+NjMTXt3r37wGuvvbZDNwflOAzCROKHWWWBfcSnCBcfASvdCgJ2BHLS09NH8d8afUOT9vHUpH3NgAepwZVxhAjPauKjvuyRI0fONWAewgXHX9DBqOOHiSe+AVjBXiXCJdhXWOZX5AjExsZu4t3L13pG+gzuSHCwDFSCyXGfIZ0c2Js/f/7aGTNmQHioSa3Eh9mxkgRM4oc5IBgaFYH7zQ4N/GWWoYFAztmzZ//Lv/gRYj6PKseXpU63Ng1YBDr1aUpxdbXxw1KZBg8evNSAaX38MOxexPTYAKhQqdIepIbKrGWegoCfEahcufIJPh57u1ixYm+oh775oTZ0eNcpyso0ttJNS8mgHB8cKqVdyiDHqPj5nBWPiaJbHr7KAaXJkycv2LdvH3QqalKU+OokYGJ67IBeaFWEhdZ0ZbaCQNEhsHjx4uLXXXfd1rCwsPpFx0XhR+bMksfr1q37OacWUIs7JTAlwukf5rKbyxEuuDaWmIVnQZ60EAJyLGahxRJWrY2A3TR5jEVnkfPKK6/M1QkWTEURLjA9hq4FScAQqFIEi0UX2iy2ZediFpLSjyDgHgJhHDJlQURExPXuNQ+MVqtWrdrSsWPH33XcqAXLQb6HXctxLjg288FhXmBgIVy4h4DsXNzDSVoJAmYhYGiabFbnvuiHdysZrMTXpBGwj6NW4sN6DEnARInvi0WwYJ+i0LfgognL1kaATZM3Xrx48VEOzd/gyJEj5TkXSsWUlJRY9uaPwszYqsx2osAOmBElSpSw1RVE4Ww3zP26HbSM20bjmYL6xX1OXbx348aNGks3rlbrWiQJmDtAhlgbt75cIYaJTFcQ8AcCODWI4RLHpSGXWlzKcMEPPiv8X8J/BRZhUOIjtTM+kW1S/FoYBCGiCAFBEBAEigQB/PJHARXjEsulBBdFuASygMFxGDzxobyHZRgKdjYiWBgEoVwE5FhMvgmCQNEhAIsq/PqHN3tZLhAw2NG4OgrzpdBxp2/FE19JAgZdC3YsCGCpCEv+UyjUERDhEurfAJl/USKAHQAU4PBmP8EFOhO8pKOdMKW8/PHpjiBAN562VZ5xwoJNgGDXgsCUsAzD7gWpi8U6zBliIVpvCeHCCk78klOSSWSwExp+NbkkfgZHfqUNGmXx8/il5TbZFaz4ZQnK5uc1GQbd7ogbcl8N+KM+lwpc8CKBMnSDsz51Y6dxO/gQuCR+Ronnns7tNd7UfA9rXsplB9qbXs3Xg3FCtSleylgj7ADw4sbLGsdkRsLDE+GitHXXIlQRQgUJI8UbH5ZhEIjiLMkgCDkiYPQFdmxVxDX8QoTjmRI24wD/XZ9fmi5/KfEziF2x1gnr+CdO4IJER59yX8uctLNVc19d+WORvQ2OMmrzMzhndov4eQi54Vwe5lLL4CHMZQWXT7n8oJ4bPwtBoFjqjON7Iw2ez6vi9niZKA5sH3P7wer2fL8zX7ucr67/E9yHNretKwbkXmEQwJpBoEDngl2LM11oYYSL+pmCeHOnrXIshh85ECzYeYnDZEHIhuD9gN+58MsQX3i8lBWqw3904aK87FW33P4TfeIlj3IvjzGeX6DPuHj6EdU9/OM/yEUTI8rZs9w3Enf8waWqqg0E2zEu6KsGF7y8r7GXQfx5taqt/Bn8CCjHY4oFVkEzVoRAQe1w35O27rZXBAyEissfee4wKG0EgSJBgF/O13JRKNH+x7cFMcPtrlI99xT/Xc5eKvNney4juJxVtXnUqE++X4ZLir2dMv4evi7wn5bbdOJyyf5sOn+O5wLhqCGua8LlXXtbHDfkEdeVsj+Pj/f0z+qvuU24qv1HBvc7q+4P57/rFlCMdlr6buVaEBAEBAFrIcAvvq/tL8Ot/ImXIQgvbPgEOCW+rxYujxs15DatuWTmdpmz00mbJ+z3IRx62f/Gx7VG7ZU6vg9hlmBvD35vdNUe97hNbS4aT2i+9qVwua8gnuS+ICAICAKFQQBnvQFLeLEyc3fYGfyGP3/ggqMDnE3f7S3jfBS2gftYbu+nEY9X2aBP5UhuFrefyfd32duoj8oMHqOhXFnTfuN5fna+USN1Hbc5yNfdC2on9wUBQUAQCHQEAlq4MHj9uMD2H2e73/PLFxY1SnpVtR7GG5zVOxaNcGFh04w7VpKdQ7iBlCO5O+zCz2FsrgeuT9pvQLfysUMjJxU8R1iQCQkCgoAgYGkEAl24KLuDBfzSxUsapLzkoTfBy99bqqLqQG/irAiw09xmtr0dhAuUmBB6EH5GdAVXKoLqVxEYRhBJnSAgCAQzAgFrLcaCozEDryTwVgQK1mI6Fyi94cuBl79L01xXi8djILaTYpkFc9/DSnu+B9+a++3XU1lAwHGM+BN6lMX8ZzcuGP8L5RnVZzvV32sM7he2qgqP3aaAhz35wQAdT0H9HVcJ9gKGltuCgCAgCAQ4AvzSe5sL6DwXCIE84uuP7fdO8CeEgANxvUuFPt+vyGW6vR98fKYbo6/qXlvdvQdU9xrpB+d7o1X3u+jve3LN/agV+qpu3fqzIGsxdzp5xRN+pa0gIAgIAkDAk1+5fkOM33jYUSm7BhwrXdINPsV+jSOtHm4wBouvn+1lGn9u5meOcultf/YAf76o60c5ktvB4+udMX/jtnAgAxnpftSWbEo7XfdyKQgIAoKAIOBXBPjl31v1k/o6o8H5/k57mz+d3FfvXFTdaf6EefF3XNR6F5gEV+WimCg/56R/xUT6GLfVHC/y9X9Vo7g0WTbqW13H/YgpckEgyX1BQBAIOAQCVeei7Aawo1jmBDXoYeAl3x3CgHcXiHPkjJCeVdF9wBoLscGgX1nLz2mcFu0dYNcEbKC4/95ep//A7gme+vCuv4ULzJQVQlA/hTSCS1UvfwoCgoAgELQIBJxwYUEBK6tedsQRGuUM1xktgKJrwSecAV15r89lIfK5USdO6tRHXVucjB+mehbt1cIF/jMKXcV//OJkHKkWBAQBQSAoEQhEnQsEhVpwwCrMqChRkrEwRnqPQi0YC5KO/GAT+8PAx2hs1ClRktEUnvuVVANCuCjBJv/D99SCSNVM/hQEBAFBIDgRCLidC8OsCIr1/PcTBcAOc+C3uTTlF3gH3p2sKqC9O7cVRT6MCNC/K6dG7LJmc0FEWwjF9zEA8wF9DUyUh3Opz+UuLlNxT0gQEAQEAUHAzwjwC7kdF4WGFTQ8NyzJRQkqiXD1ecT1Lk2RjfrmZ2K5wPQZhFAzBRK3W2Vvv0XdmOuqczlnv3eaP5sX1Bm3KcsFuqQ84mtR6BcEnNwXBASBgEMg0I7FlF0L4of9VBBavEOAma9iLXYXv4g1/jAFPW9w/3auUxKMuSVcuL3S7goeH/oVGzFvMHXGLggKIyQGW873h3BBXDQNcV1pLsi7soOLYh6tb+aLawhTJVq0q89A+574AgvpUxAQBIIRAbx0uSRxAc1xd47cVh2pWPGNgTlxYXYuS+zjn+JPQ+dMPV/cDl7zitnyhwb3EYNM2V2he0RIXsrlBy5TufzDBSbRCv2r7oMrfblzUQ3r8s96+nnJtSAgCAgClkCAX239Va+3PCFREPP8TBQXCANQXgIx/tsj4cLt63PJtvfjICRc8cHPzLE/h/wwyIOuIa5DzpQpXFLt7Yw+DnDlc1z00QhEuOgBlWtBQBAIeAQCxoqJX6oVGS3lSOowlOLuosfPwtcEx005/Bx8Y7BzQbrY6vY+TnH9BVf9cXtYn0FBDyqwvbovfrY8XyvWY0d4LFscMj3ZBQfipTXkgvlijse5wHhhKL/TQgAAIABJREFUOz/nkNWPn8GRVG0uoPPcRu1DY6/WfvAzde01ydweQTfziO9B+MUZPui80qP1cN6N3BEEBIFgQIDfI3i33soF7zKkut7IZSa/b/KC/waMcAkGwGUOgoAgIAgEMwL2H7sv8Rzhi4gI8dATQ4XQgUtfLi+ygDGMmhLMuMjcBAFBQBAQBLxAgIXLJ1zGcUG6eBz31+JiM1LiTxgFzefidSJHL1iURwUBQUAQEASshAALjVu52Pz1+PN9Lol2YbKNPxdzqcAFOuJNXKpaaW7CqyAgCAgCgkARIcACYwGX2hiePyFcfrX/HcZ/7+bylP36Ef57jPgvFNFCybCCgCAgCFgMgfKsTzmo4rkYCxGEvYK+BQZKyr35/HfHQAz/YjG8hV1BQBAQBIIbARYiUNqn6WbZnq8hSFpweUylyE/i69IiXALgO8ELBzPmmlxqccEvAMQqg2k0FhMBMFGQJmAXL6Cr1ALcREgQEASCHYF1bQZEnT9P8eGR4TXDKZtdC8IQCqs4O2NEhoXTxTDKzsjJDj8ZEZl9iC5fTrhm15cuXTEKwovfO3AUR0QP/jNMCVO/nP+Gk/hX/Pzj/PkNXyO6Sh0uRy1jisyMI3cKfEQ8pVR+YLgKEE+fN709z6UBd4owL9dwQQ77eA8GOcVtN3OBbwzC/K/kuV129TyP14rvD3LVJoDubeD5aOLEgTeeAyJRv+UBnxe4n5FG7bmvZ7ge9vnu0ufc1zp3G3vajvmBzwDMO90l+C+NMmrMfT3P9fjnLioyXD8jZpY1HPAGv6XwY8pjCqOcxdfu/tzUYLDLGg28mv2oH/CYGfsD2XFxT3Zd8gperqbT7PpDo0tEZHQNz8npSWE57ViYtORB4MvnDkEY7OHC3+GchZFZETOv3vfJSXceVLfh7xaEyA/83YNFGIL01uS/IVxK8d/buYzn6//j67G4toRwYWaxw0Jyr8JaIFzHk16mBsrff/Mc8HJ8iMtjXJqaOD6EDYTMFzzHf4z65bFhfz7N6F4A1v2GL6yeL54DcvvgO+AuwRFWcYrVPMN9Qbi8525H3G4K9/WQB+09asr8QFC848FDXzI/jxq1574QGRzHFUVFSEt+pzuDL200YB+3Uxx+3XlE3eZobEmqc9X6z9x2ti5oAObnL25zU0HtnN1PuRxdvMfeiXAoNI2WNh5wBUcnfJI7vIeL4mTubf9w1l7M35UPT+5Omt6PfnH541QZjNsjwvvPXBAtHj+My/Baf4f7fO86ex0wnIS/raLQx4IXVrBg7tj1FAkx6Ih0jF/cR7iM52KmYMGcoFBDwM+/8WLh0o+LHHe6Xu3v+bYnvzCRk8fboKiuOEK6Bk9oiieNg7Rt9ZQLYf8xa26LGw5ozH3daFZ/3vazvPHjDZc0GjCNBQuirSP1iFmCBazhvd+NBcPvVRqV28E7SPz4LJC4/V5u9DKXeVwOKYIFD/LfS/kDcRE/53IvX2dZRbgUequKiTNh6+bLl4N9GO0Hj4mXBn6dPcfFH+PjFyuiSd9gyJBU2hDgLz70VvgHcZew7UeoC9OJvyNXcKdQiLpLB7jhcncbB3M7PvofYtb8wsMJfRX5Sc7PdGfEskYDXszOCdvGzLj10vcSg4acynAajzlncbPBBf6A5/+dGTzeAC7v8nd3GZdPuXzFZQPXdedyE7fZD54CXrgw01B29/ESwNIXLlzox33gjBIFCnOffZGYZzgSwQYc4REQd8yvdPnyZZ/NzdcTYd7xnVTWSfmMSk1N9WhOjD/a6/tRr/s3nsyF+cIPHPX3J8KT51209WjXkpGR8T3/82IerubmYjjf3nK2fjyqR+vnDpesSLjm19r34weV8j+NHbvH48yvO6AM7xC8Pt34/uwar9ZkWf2HK1VtVG4Jz+t/PA+3orK7g5M7bXjMW8KzsrYsbjywS0Ht+fu3kcvN3A7C7ysu/8flaq57nAuO6W1kheOTu5jP4grDhf1MS0sbzM/iVx8IVli7uMACi3E1j/ilhqCQkO6tzevVs54OHTqEXRIww9GPJ8c/ng3kg9bHjx9H7hvYzSuE8+Gza9euzbj22mvdHjErKwvfbXU/WGesO7buF7kg/lESF/x4KZDCw8Nv6s40Z86cc9wYmOKY8zgXwyClBXbIDfi7AkGKs3R3KefJJ59ELCf1vPAs5oY57Xa3I1+1c7Z+PB7+9y6ZPW5WeObL3Cey0eJ7gqCuBz0dJzqKHmYAYZ3pFc1N3saKdk3mWnw3sF6w9nT5nlna6LE6ORQOfQWMfYqKKoXnZM/l47j7u+z67JeCmGBBcpbbQMdnSFYQLt4eidkmXrFixTbt2rXrumbNGggUvGTwRccniinELwuYEy/jUtuUDgvZydSpU/FrDvM8xCWRf/VHlCjhkKOskL379rFz587hZa8WzHiRH2SBqfwwcIsBu3DRC3gIhgQuF/kfI43XC8pJbPELJG4f0a9fv/tZuPzNjcETzsCBMRTKLl8cLjq/ju/hO+MWAYPJkydX5cYoagI/e7nYjiOKkpytH/MEQZzKpbBYGU6rSlSpG+sVK79yX8ZZmNqe5oI1gVLdPSU173T4H9YUS8q07KwreVz1jzm8Y/B9A29O572syYBqOdm0iNvU5lLUFM1bvx/nN3gk+8Y9X/7uiu+CGMUvp4Al/ueHFO9oBoP8cggfOnQoTJlxfl6GS20ueON6vI024od5hWIdDkXot0jp7NmzsJKCqSKsOrotWbLE7RdYkTLOg9uFAtZIKfhFWSI9Pd2j76r9WEzfTyz3heMsZc2neDLf66+/Hr9Mle9PPP+N75FHfOnG6+/J+H/88cc2+/jqeeFvHMfgV3uhd1Ge8OGqbWZmJo5z9LhjF+0NTk6HDKewyHsqtMSWFmNW4QKzbuDhFi1vMKAHN/TELN1pvzlkM8lVF3zfXP6A/6vF/bEsWGZzu9pOO/b/jYiosMhvP6t9G3At9PGvy4n7f04OI2LXYsrLHz3fdNNNrfgD5rr4B8DxFX59Ysvq1q8c9GFE9uMNWCA1Mrrvbl0S06ZNm/YeOHDgzMmTJy+hREZGhleuXLlEhQoVYuLi4ko3bty4Zo0aNarxMY3Tf9bs7Gzcwxcbx2Nltm7dGs8nOu6yEQjt1GuOvwv7HdA/p79eyX3D/t+to4j4+PgaXbt2rbh48WL8QsZLBDsInDF7fNzD3xm8cB1MrrnOkFjoZr733ns4YtHPAcdBOBKDkYKpZrCGjLhXadb6uTVax9habYuFR67IyM6CUKnD5SAXt3ZJfDA5zK1B3Guk/67q18qhl+JpJcbziuK9VChKupx2akdq4q7ErJTzpzNTLmTlXM4uHxUbWzkypnTj4pXqVY0qVTOMTVg87ZyfKFEzqux3rUtWu2nDxePYEXv83QpY4WJ/Yd/vKSiu2vNLutLdd99dnY+NcF7u1ctBN87zfH2jq7Gd3eNfepn8slr/wQcfbJg9e/ZJZ+3U9VWqVCnG84jv379/q9atWzeJYNI9p3zJ8Rm9YMGCCzfeeOOkRo0aJcbExGTyiyp8//79FVjo1Ocjsxj7r3ynQ/ft27d9KSanDXQ3Fi5cuObYsWMQ2h7Tzp078eL2C/Fulqee8w0P9pq7Aw4ePPgKXq8l3B5KdewIYQ3o1otMN0YvvsbOxy3auHHjziNHjhgd4Sr6Hxy9QNB4RLyrXXf48GHonkwhf66fwnDJiGJl7i7fotE3pzdA+ELg4xQBc3K5kytq8+MlDR/vzoLFrWNZ/eIkpCft+/T06nl/XzyUqL+nul5aP7p8qUcrtm3foWR8B+zyXLR1uBUTHlXj8fLt3x908Q/4YeFYOoWL0+M9fQceDaZ/2MfXOI+uZfYYjz32WEsWLke5X7wccLQBqVyYl4ONNX454ZfSf20XHtKePXsOPvTQ/7d3JmBWVVe+r1sjBVjMAgJCISAgg6IgOIFxiC9Kou0YRDDaaifql/iSr9PpTzvRvK/tpzG+1thBjQOTiqhRMU4oQyEIMo8CMhXzYDFVMRRU1X3/X1mnvJza55x97r1VxXDX9y2oe86eztprr2mvs8+d782aNYu9AGvYsWPHESmjNWDPnj0bP/zww/2kAAZqX8WU7hyZPHlykZDsNd6i5VmZ97OEhM3YQPf0ghiUFEWvMMrlpZdeWvz6669D4xMBxmqQjwbRwHkQeS595DROl3cIDRFkKAgEWWys3ea5h9sUcsqMHz9+sUd5BOhGId6T9cKPaXep9nEKPdo+YS5fc1rXC6VcSNYg1N1JuFXoux9WmX4creEJ1skzTx3yh8zItq1Phe1M32Evf2vvsg+e2/nlQpu6a0p3F/9uyyefDTmt8/J/bTN4WKP0LGsjkfbl/Vx5UeOOP55VUvixfpIwgpdsxWe+QsVm8LVYZqRt2xK21elvQXUuuuiiXo0bN8bSjxUOiSjZJ9VW6N1yWYzz+/TpMyasYnE/34oVK0qGDRtW0Lt377/Iop6HKe4uk/rtTQF5LwjW6d4ljr2j8GRzeYztdRWvEGVOeDVUNqOmiPR06zjl/v37i//6179iBLmBcG6REG8vaW+quzs5EX63y27SSUKQPRdC3hil0Njt0Vc/SrLSj+OlTcbWrXeqbo8w9bWnEx23Z9G7tooltu1pxeu2Pbbts7GlFWWhQrjpSmQZ2aIfJy5cICR8TLgd3g+E41K5aPHxADcGjr6qwOOPP/6J3mNBowYC1v2vfvUrNvAc4YCgCCUcnE40TvZYbgjs1FVg9uzZi6+44ooPlB5tE8agDIKDmCdhETwPkL+5huVavnbt2hJtOE+69dZbX5TCIWMmBfYUIDRmDSNHjuxdVRhBRmgMJWO14Krq3aL/8ZytYPr06Uv0fouJV+CLTUJra9KqwxO00K3NepNwwTyQBMK8eBp9pB9XlauXp9VbWKH3eqYWr5v60q65Sy0GjNGBXDhGXswu2bTpmZ0zX9P1UAZot5yWvbo0aJGvemRfEu2x4t3jUrlo8CgWGCQQUCpYdRLYhHys4OabbyaTCkA4QCxrbezq4Jf6HYqGCjFt1+b6JIVV/CaYewgOYpx4Zbij84WzhNOEWNozhV8JySAiLEJo5tDEiRMLP/nkE+Kwfu3rdmUSAwyIgvJF9iaokAA4z+Pbj884jiqxIdEx+A2fkCG0toJBgwb10t4VVjFIfB8rOYz3GypLbNSoUaaQGPRAeLB/GHdY1/DAtEuIL965MtXzDU8ZxlDj0uYj+9bXuOi60Cu3TZ822aeh6BF+CEMSdmp4L9G0P+j8x8rzunzBpk/fBjxuckCmbjkGikepYy9r477oye3TWfN+wJrGM2HvlhDhXGGB0JEXCz/Yt2rqysPfIjesAe/lp8374rnA6yQf8H8gvwcWsB5BcguOtG1OSmUFVp1i0su0aX2hTb1evXp11eZ2o1WrVmHxsecAsdj3YGFYgbwWFNOtVoW/LxT99a9/PUlJYX7xee4xLizSDUKUCwzDdZjHsWBRaiCLh8WElcaz4ImBKEyum5QfbaCMUMiBVre8PYRXIsDYNwh56YpnCKMoGGtRhw4drOcm7EClPEs0n2+r3gibulIsDR944IEuTzzxxCqVh+7thFuFgaGpqj06hIsVaLN9q0eiB3TEiIBv/fjJqp+YQrSFsUKoLexcmfpi/mgLRRhm3o9pa+ORfVuzIhlZrbMaw9tG0FnzWXe26Hfef22rFMIofEKW0OeYUNCMrlvZSO9ibKTqosJHh2Yf2LTkpuwmKKmkQkWk4saw5tqbu5d8erCijPkwgWNobNPNlUL4AhkCP0J/7juyosGk4hXruzW4dKo2+Mmus4I+uW0I4aGooCl/0z4REs85Pe6UixYfzDPY6olVSEql0k0cO3bs5qeffnpvs2bNmgbV1YZshoR8r3vvvXeOyhIS6yBEmGPJexLL1e4V+g0DW8PXX3+9riqZwFSHfukfIcUzbREWCxGqzpjcY4sNxcA8pKOuFzYT4pGdJWSM7nqOcqEfk/LR5e+hUaNGoeK0x1T+7gcCi3GtFcY+j6Go8dJRZcVhANQmjFHjVsqFQcj77V2lXFhD8M8KIQsO2voBXkvsvPmVTZNiWeRRAF5BCeBxuefXo4rVZWeu1qh0QgohpjeEXMLGweTib+YMb36ep3Khv0sadeqfmTZjdllahWdacjQ98mAQyRYe3LbgYPRoMpV2NTnSo2k/DjNhByqOFk/YveQbj9mjKeQEhiKKBUUOrR2lElsNvtv/we6Vu3/V8uKP0iMZ18fe9Pv79MzGbZV5lqcEAfpj7wXeQy7Ah0YIFCzGWrV7caSar+HKmrqUB7APpcI9wkxffPEFBLYChaZw7wCEAwxLFkUYelxdVd/6P2VReR2VwITBEDAQVhcWMUyCx+AwiYkfueYgVg3CAEutUEgY7XPhEiEeg3uh8BthCGP6okJSXhaTqloBz8Cz7K9C3/4M4zkkoyFIaFsNxKfQVN1jwVjBueee213vGzkvB6LMWwrxZoPgtqACzn2d01X+1FNPLTOUhxbMHYYIc55MgJ9okzlivsLOlam8w8cJjXNs0cIVByuOMCZPOC0jp9mtzfsg/FjXbYUYJdXzwmnDWjJBa7di3O4FhJSSDtPP+kUHERijzxqWHty2VMrSxP/MFcYFa5zQKZ4LAt/L43RkxdGMtIzR1gP4rmDkstPyz9SfKCgyJKExWxeehlIYYRpyLHEXH2Fbc+bMmcti9y7GjBljWojG5ngR8dprrz29ijgoljZCazdRZQcYG/a4yN4QqcMet7Hs1gtRCHhQMIiJmTyqH3MZBkJxsMhpC++sQIhX41YwVHQYzu9/yiUKfu0H3Uu078D6Co1B73GBBasKSOFmPvTQQ4QHWFyO90uIzHOxySs/X/fPse1D7yGtVrq6yWtkHlEsCNp4+cRvGEHzEfa+X1/W93S8Svmcks0Lgipck9eNtck8MB+dhNV7qhVpETbSPeeItteUFq1aemgHRlrSIZJZ3i9so18c2MieqwkwSLmHUV0kDAzLOo0cqsj5SH97eh2mzrrmtCIkBu1Q3B2FREU8o1/HlXLR4hukwcqysIOXX375GGXy1ltvbdu1axdEtoKf//zneC8QK1tIaMNXODiNapzQLRSTrFmzZpNeXmRRugErY4eQ8AeWR6gJdzcW85u+EELsrRQK8YSsmc+n3ZP51pgwD3fdddf1qSrveL++lpzKDg/TvpIzTBv5NOGExFA8Jp6y7kae0U1FRUW/dFBHB/2bXqx9X0bbcvH52pD4z9Ydx1lw9O4F88r1rodf9TNzmnbu37C947FgbWNpZ1SlHwcar5P2fo1B5quA/Pr3uyd6OhETv2Kx96JzD25CPrgBGhCRYOMemWcyHN11qn9XfdSMMJo1tMs+rXVVYWiDwkZmembaHlfKRQMdafukUiLfvvPOOwjjY0ChMa8F6S6aNnjw4D4NGjSABo4LzX6NTUgOdxtFZA061sUr5EIIYoUQSzRZiiV2XAgflEoo5rN+sJOooLwXwpEIFivo2rVrp/PPP5+MJBYb3i+LD0OlBkiowFfWITEJ+IPPPPOMKc6OUMGqJtEjYX7Jy8s7rXnz5s0cVPixudZEO9EiX+13Domsn1qF9aW7S1aW7gwKf0eGtTjX8V6YH6zs3JzMtLv0P/PkCbvLDu18f++KDZ4FEryhY1UYizUUl5fu236k2JRQw9zDH2SGxbW2xbTWspIBN8nIRUkD8DuhRjwZz4Sg40a5aPGhAW/5buzB/yr33xgCe+WVVxYG1/6uhF6mbKzjPIh/OpoYYnlq4ph2QzEI9XRkPGEpNzheC+ErGCghK9TdeOp3XBR41baWBHBEh6H2Vnn4x/F+vRbblSpD6NUKZCQtLSkpMVnoCBL4hbDnKckv7+xeHmgA9M5t3bdVZiMMQOYlv3labhMR6xdBxJ9esm5ObcQZnX4l59oHjSH2/p6yQ6ZIDENk/guFcXuvOpxgdZixNErPRlE7gLHEPiPK2hgaO26Uiwb4YyEbo1agzXGT9VIxadKkNUpNxlW0Ap3R1VcFHU2MC10dn/VpAJc7FGzZssUUOydmul64T2gSJKH6SBVOCgUmqBXmxQp0GCrKBWCBYZxg3ZnW1e1V5az+e+GFFwiTugFlghGyWRi3UHE3eqL9/qx4zZYdZSUoWE9Q2nL2nS37EYJiLlo81O7im7XKu3hW0I0j0fLDrxTNZ3O89iA9gkC2hsPRMlPCBgYGUZuE5IZe5KS+NWRF0nN0QKjD245B1UINGBNZTIvAurMkFxxp254E9baPP/6YsIAbKokui+9t9w2v3+edd153nXaLt4ImRml4EiumDazTUKCXJ91MgqBAQGwRmtzeUO2nCieHAnJGCDlNsm2tbdu2bYYOHUo4zPF+8U6O8X5lrcIvN9i2qeOMdrJ/aCiPAQLfE2s/7owRJa3gJWCcOchzI3igTVJhyv41XwY1eFnjzgMy0ypPD8/pkdM6UL4sOLB1/r6yw7W7LxkNF06XcjGFPpl7+AOZErf3GkmL+mbemejbJF1nG3wPyEwcAuMcHxfKRYuPBXm16WFM16ZMmWLyWigKY2zWi2dv6H8ropP185vf/OYclWcBWGX9qFyo/RYGtn37drc1DIMgJEgprU1PnO5TEI4Co8MUv+eee9jYj/V+3aGx63WfzX4rkOHkFQuHvzcKST897nhmxowZPTSua2Pwh/qbazahZivaOIXGFC1YejRa7pvRlZeR0/yfmp3T5YKG7du0ymrEHPlBraUfuzoNk5Gappc5TcoFIxrZYbrn94zH3ItWhFcuDTOy3coFT924z3hcKBcNbpjQGLczUCqq415M+y0sNjTxTr2DsFL/zzXUNV5S1g+hMYAxdBAGZf2E3kDTxqn7+VAuxFMTYpDvhp36N8kU+FjtmfbIjN0oMaR3dnY2a4k5xothYzt2vocbKxouytCKPvvss0tNt3QNT9exWA1F6veSMs3w+tnDdDBff5OuagybJDJa3lZfXfrtR0FtXNu0+4BhLfpeqHK+3tPa0qLVtZV+fMwYo+E8Tp064JbRyDkiHWBCBoYaDqXoeI6D5UdiPTvGhqzEg6kB7oHXKFBHF0bY9qMPaW3+8ssvSa91AwKfjCvHEyB2bgX5+flnXnnllcRCoQebVggIozauatC0f+LbV7t27dzWG4zBczBZVl6Wbwepm0mjgEJj8NLrtg3KcMi76667Oqo8AgyvtjoxRLridP2+yrYtneKwdv78+aZwhcPfCcXZbccRTzm984mQQZHEoiN4fIV7PP298u18lIuvcdYxu2mXvrltzwtqf9LelSQJJH2MNfqNVBoI1pCdnuFWAMgNPFeeOyG5EU1Pj92gtxlTVAkGsfR2+J05rkG7elcuWnxsujmeQ+AD6sNXJq+Fejx07Ebnm/ptrdn1zouT9cNk4r24QxuxYzMtft+xt2nTxh1KcyyQ4y527vsgp87N0WEedfjw4U7YBY/lTKGTGHKb/nZ7rZ5NK73etJFPefh7oxDBkpBQ8ew8OTcQMrGYnFYNrcw9sHm3wkbvG25VX+IrjJw55ldmT/mhne/tXb7eXUZnb1nLD3ddn9/MnzU0iGS6jVzmnhB7wmPTp/IIaVnD0WjFEZ0U4OY9aGvUI9ZMbz2C8AVH2laRIqr4y1/+ssJQHgGNF1D9oqCsz80qP1PXLjWUr3FJH4Hqq+2XaVXfcG+nAhDey0pkkYcCHZRJqGSTqxICI2EmCTWQVGErCoh/Fot/2PuwMnwuuOCCnnpH5MM9e/aw+AgPEQ4iLm6dJVZaWnr4z3/+M+/auAEegRd3CN17d+6yoX7r1Ij3ddKFdQjQr/Hly5eHNrr82rO5t7l83/Nnpbe4yaasV5npxeu/Mi1CKSbTZa9mrK5L6252S2e/io3Tc0x7dUmJdlRE0tqGOUCTwzxdY3WMCPRIDc+lXpWLFi/9Y9lZAV9uXLJkCfndbiBksEVISCx27tjYt1IuHHh59913d3z++eexYLA6CW3sFJosjcKqfmoQVNeNMGDAALyh2Fg642TcYXjN2HbqYq1RYIxafsqm9RwB3wn6/e9/T7IJIdD2+vonXnB/m/qUmTNnznIpJ1O2EtcwTOD9pPLLsmXLinQSAOHkExLuWvf2vOln3/OVZNuAeB6A9OOXi+aZEiiiGZGIaS7i6eb7OpHopjTlANtC88yGrZTxpjhttcfgyI2EFV8kGpHhZM9Ou8pLyFR0Aw+D51LjoYzujLt2Lf7+X2qbTDErWLx48cZLLrmkmRvldeT99re/jegI/TZSWPnCzqAaXSC0pt4dd9xBiA4i4YrGhjaOGZ+sWjQ4SsgaevTogXJxQ40JcRdI/a5XCoxX79bJGzfccENsaKyDvg56h+pbz/Grr75qEnIQAG8F5QLfWfNzvVKuDjvXcTDPxdvdIp1+7JF+XN4wPRtvMakQ9sVF3i3pmduaqEcswFPWfOX9ANGgDLpjqm47UoKxbQJ4sgZf1qvnogGNMI3U65qOOR8Cetz/ncd168v9+/fv0apVqw91tAyEYiOW0AbpjiYLhg1AFJgVaEO/tbyXJl999ZXDsDAH8cokMInVEFKFQlJARsQOGSlkjl1nU/Wcc87poiNhGsrDPqDPOjQVWIdrdLbX7tGjR7vDpnRLyJdwLyE2Ex/aDO2kLlN4pOzNztnZT2glkYhjDXw2WCcte2WVluoNfy9hat2Hu2B6WsW8CvMWhbto9e/+jdu3X3JoG3IIQF4kLLe/OPvnZ5enlZPEZA3rjxQRlnWD40nVUC715rlo0SK4h7pHWp+/lU6ao++89NAYmEA24NtX/W9SAF+EGasEVfrDDz/sdt3xkOptDsKM/xQuO9r22flOkE5KrnxnasSIEV0UKTN5q8bmPv/888UeXydFobDH52RBGusn8SJCgr1AspoICSeCtOHsD9QQPska8882vFqqSNMLYdtbX7pntYQ2StsNKPR9ejdLAkg2AAATaElEQVTGEeju+3H/bp6xj9C4e+/Ct72LG50JT8UCyiUhuaEPlg3z7bTmzeiMksJC12XmFFoZQ3QJDbBm/6Gu3KrS7jS7UA3URuHrr7/e2cBlAhEOXu+8vOtFVK9x6UuZ/Vq3bu1kf0B79nYStkK8+ktdTwoFeFvfWsjoO0GVoQaFWPuF6D2qjfUlhvIsXoQ7+4mhBJKhLdtLKAMyMqcIP00QP1N9EhR4k7xWITOtbJQ6COXZTdq3Uns1xsgBodANTTNyQ6UN2zzgOcsnorihizXk5zTvos83O9mmyA329Izvltg0KqbSy/nR223KOmV2lBVv/frQTneYEP50MtdqGA/1qVxGhnm4uirbrVu3fGX+kCkGbZoJWwnd6YBKcIywCTorzLh02myuDta8vKoOzEH7tG3yjMI0nSpbSxTQPLN4SAyxgk6dOrWXEdFy4MCBvawqqNDatWsLZ82aZVJgCDkyuciExEKsC6Afwh9rhauFKId4kTaqMzhrc/CXrHp5q1Jr37LtQ9+k3/XunmXrDOWxwvESN+jDY0nNzPu+r8h7hn49LyklOvMXrQYOrCqArMDgjTukXtDtvjukCc7y7NBwQ3tTpixdaEWSiXFfsl6Ui0Ji3TWgCw3PUO+XJEwiCm1gfTKJeFZs7GM1mBRA6I3Ea665ZqDa76L2UC6krNZQXLqWEIi+jpWTUDupytUUGBOCFhEdOvmThgLbOu+9957XRj5W7kYhFnQNy9C2/ZDl6AdhgWBNBtaVUkyrSE9/1vZZpxWvI/3YRFOeHU9xt96PMYZ7bPvwKnfkaKUSRIFZwyWNO17UK7c1xihyCM+FqEdo72V2lwfz0iLR/7LuWAUr9P2cv+9dgTfrBuhD+rnRY6wX5aLBjHCP8nj6LcszNjTWTmPLE5poBZO445C+j4Lyevzxx2+6/fbbUVowC15SUkJjUiq9hFPV3mDfQaRuhqKApmy2KmC9W4G8F8KpVnD06NEjf/rTn7ysQhYunkstWdCBQzQJ38BK9VVgyMrnv1Tf84L615lkh18tWuCl0AnhrROWyGOolee/at0LCi9FxwWNM/Z+Rlp61r+3vfz6vPQGGKMoFfas8V6s4c20mzMOZxx+SRXaWldSwWWHty82hMRoAsMBj9vZVzumWZPADNNv6LISfvQ5PHTFOqygjLGWw4YNa68uHReUyaixPyShg5XzcNihaaO3gb6iOfKxxx67QHU7Cv1OAwhsXjRtJfx/KrhQOCSwQqpAPBQI471Yt6+jXlZu27bNpDwcC5qwQ61Y0NaDPJEKRiOB3suCg1sX7Sk7iFfoBoQlGWKEBY3WuLtC/L+jT6iuad49m2yXldfxmY7X3dIwPRNZdIbQWm5E0/6Q3ubsZi/qxVDrDEYGIrlS8eKueTM8BgWPkhBhoqXRGvdoJ2mXf6CWrC27pPUasiG9UIn3gnLBUsDLcI7zcLfEuxChMsdoQJlp2Y888shwfSf9P/XFQd6vCe3iauIHCBF6m4S/FCbFA3I/YOp3JQXGCpMu5MePH7/Ig751EhJTunSOPK1cBzt37pyrc/by3n777abirWZxYtJDvR40qnH5QEX2BF30TCEm/Xj8nkVs5JsAYb9eWOsKffCqv6mfYEXoHmR+dvOu4/Jvu39ok+6DdI+oR6DcKOhyX8+Cs7fOkBv2M3d7Qb/nHdwyNyYNOra447WwH4iSqQH1IYxG1hiFzwUd471w7969ZMwkDFdccUU/21j4oEGDeuk8wk/279+Pa8yLnrzIBCGPsWjkvWj9Re/U9flCJjsU9OrV6wK9HzHl3nvvLcjKypqkdNYP1cCaKq+oui31gQtMiO5i4SXCwULSplNQBxTQfGzSHExVV1ckq7t9glGjRiHM3MDCZSO81jfDn3zyyWFCd/+J/r5DDYQK+yTaoVO/6tvwzvsuGISsFc4NDLLyoTnre7Ow1rPbGG9FZsaj6UfLrpcJyx6sNbTIbNj6120u/d93trxgUGZ6ZGyjspy/X7n+b3hb1TC5871NcrIiV0mZ3iS8QTdCK3ySHh7bOuUzj4GhULYJPfcD61S5aHGepsHwoFagj36VyIqapC9LJsVi/PTTT7O1nzLApvNcgTbeuz366KPEw9kgby8k/l3DXZbgWatnu1v3JgpNG/++Xap+ukJlQ1QIrDxuRO0hWHYJUSqnC9n3iQcIQzrzbHRf42n0FK0zWs+dNOUybdq0JTrLDuPFDfAY3ihGlem+u3zqt5kCzv5JJ932SspxaiIs2T/VfkjyPVTT8C5f/j8lBd3+5fZoWsUM3Q8l/DmQs2Vmw4tU7yLV/Ov0s+/lWbeJWY5IACGrGkmpmLq1uqZTD8qf3vHFO/srjB9Po2H6QxF7nhpR13suxPuwJqxA6ZnLk6VY6PC1114zZTx4juXGG290NvYR8ITGSAE00kwK4m29BPegZ2Phb7RUFTwTrJp4FAtKjqwS9otQqIQia+wb6VoK7CnwjooSMkkKPPfcc6ZNZRYuC9Z34SZlACd/I84eCkYahpWXtMV4RZFvEHpa4rVBrstWj/pKsY+RajtRA5q1nq9Ff7b+t5axHs9UodDhu8qowzMxAYqYjDrCjzWMbaeCUVCaWkvStRFh2hk3blwoZRDU9pgxYzYpxIbrawUKV3Xt2bOno1DIzkDge2ZoZGRkPCdl+G8q48XEVv0mWkiHHzJG0pxRjpcLCQsQsqvr+U70UY6r+jIgEEBvJ2NQGzdu3KyDLfFO3YBAJMThGct2V0j99qUAinqD0E9pICxR5mxO83edwmWrX3yjPK3iIXWaqIJJeNzsSU3Ys/j9l3bNXerRmGP8fKP7ZDN6jrnOhI3CPJ00kMEeA65xWQJyjzY7mXA38HAwAJZIKJRnUSpvyPQmtLuPyt/a/0jXcTAIZscLwPr3da8V3npCn1m+Sx9OqrcQ1Lvvvov18kMh7xIxZiyZOptr9XUyw5hkPNw//vEPk9dC085G/gkbEhP/Y5BhjDnIfiWWdeiQcRJojWVNuAuFjTDE83QjinxN1fV6MQx/sOpvz+wvK/2ZhLunJ5AEWvg2Uabvtby2e9Hf/2fnnEU+BRnfBuFWoa+Mq8s9F7wWa+aaPn36soCzlmAUrLxQMGXKlJIf/ehHl9lW0kuPWP9fCqEVsUz2jWBOr76jZ5555jiFPLYqrDZKx73k2/aVrHKrV6/uqracfHhoXufWWLKe5ThsZ5rGtF4Y97zK8Ch/6qmnlhueDSsQ3mLh1smmsmEMCV+S4jxfjcQKSYQQRt2qengulAXKY6owR2iSQazlPUJfYan7tQpD144e98f212w8t8Hpr+ZlNOhYq525Gt9bfujb/7u9YOKsksJjEgNcxaATIUZ4F5p6ei3UqxNrVl4LE3qHa6C+P/UeiCkkBqOgVOYLZwpnhUUt6rHaRMWls4IzzjijzU9+8hOyxXgGFIvxnRdXY2X333//DIXVbp0wYcLEgwKrzpJQaMOGDZvknREKQBkyZtNiSkJPp2YTZAfqyccl8vT6JtEqHfli4gmMABQLCsZ34SbSf23XVYYlngrrxEHWD95MYNpsLY0NoUgIEtqyV+BG9hY8N6ZraUymZise2fzxzAcL379+Tsmm9/WyZ60rO7yVguL1BSM2THw+QLHA9/Al4TLoGOhh1Yly0UAuErIxbQXbt2/fMWnSJJMGdRYf2hPNSWZHaFS06zWrgVQVuu+++/BeENJYPoSZgtIaqXlYx6ivvO22257Wvs0jr7/++mRF+hhz0kEeXrlexlumk3hfzM/P/1tBQQFWWEqxJJ3S1Q3yzkvc4ZM33njjpA2JQSEZk8gVFImD/K5vI4f5QmGbMO655HmTDEc3HN27+l+3fPTH+ze9/x+zDhQWHI6WJeVVDPc4lx3asfC+wneefWTr5Cke37RxqkCfEiEGP+FDv/2r6m7qKiw20v1gfr8VujJ5LVRBk5OiycPFbdlJubyu+r/3G0PsvUsvvbS3Dp2cfPjwYeiFNcbmOIrCL9zEhMAUXxcWFmbojf9SfUa54IEHHug2dOjQ7v369eumF9hoJy5Q4sARfUVwjTaFV+osq2/WrVuH5QXU9yKO63lOpEryXr6RACVUitEUCg4I9KluFqgbnNAMhlOgVeiunPp9UlGAtbx61aFdWb/b/EmxPlo29Zbmvbr3b9jh7LMaNO+aG8lKNBusklhZkYzsDaV7URp+gJxFjuGxgNap2vUpiOi7lfBHwnZCrBy/8fCQLLwPhbi1XnseuhUK8EbY+CZOTNjLbww0zMRz1tRCIW5iEGC10W43IR4Qz0w2V4TTl6+++uq2ffv2ba2PiTVt2bJlXqNGjXL5ZK4yz6gXVUTtsLCU/7VRWqQ3+nfMnj17p77/8a2u2dIAZTxVSKzUUUL6M27Ac7tGyN6OVxw7tnGYc7JwpZC3oJMBDv/8WI2h8IO8cJQ92UB/FxIGids4cQ0eg+Ms4Q+EZBMGjcNVvfondJkn5O1x+CpZ1jRzdZWwu9BmrqoHlMQ/2D8ijM2a8bPCEZrXCqFn5RrxGQOGJh4goXEEXrLo5dNlZaiZdTxE2EIYNNcI7reEGMRh+Y22CSXS33lCJ1M1wgGW/Ru1b9sxu2mrZhm5eU0yG+RlRzKzpSygWVpeek5eg/RM6gbC3AOb5/xm84cfeRREvsCLGPsollDZdHXluZjGTt/OBjmE9GMk6uMloFSYsLATZerfuUa7m4W8U8KEBI2DCTxTyOYkYwliasbKBK0Qsl+EguG5G86bN2+vkIWB0K1NYAxB46zN/k/mtuEfQriEItlrCBKKJlowNyh9+PB4iP2bxpi6VrcUYM0iX5ANKOQ+QozwRgpn7RbCb0boktMy7787XHd344zswMiIlNSF/952yP7/3DYN5e8A/IjyxpgnEWOdEDnlF6mpruz8EaR5a1RI4oVstWW7f0G3PCyLzyreF2Kczmafo5WDhDAeFlYElkulpWABMAoMsl5YIMQ6ZVMMQUL/QX2qSGigTZiBfnnZKSiMF7qDVIVqCjiKId4ML3iAOUJg2HqjKfKf/BRw5MZaPeoM4QIhhgx85ik31pR+u/+P2z8ff6SizCpK8cO8blf+4vQLz1WbjlJBVmAMTxd+LYQvQykWlQ906yhTG4BSIwfecfWC+oCQaE40aW1kUDBZeEU2k4FnQ84+itH3nRfddwNjR4gsEn4mnCtEYWKhcM+TYXTPBhyFwvNAL5gSZTZFyPOFZhCbTlNlKvdICH3E61UnWj81BScvBRyBj1JBuSA3yJblKCoMR6PcmF2yaed/75yllzOjNms+cnPTPkNvad6ns9pDHqFUCDcWVvWBkgsN9RUWc6x/BgyBgkJRLL6NQpswVGgiqAITAFGJ9QJBHh3ERjkSww4LjruLIsMiWC1sLTxD2EbI/gweEWNwEPrE0giGi0WUEu0St3dSLmE+2odmKJu4GET1TEDftOkwd9D88aw2TG7qy+8az0TbhB2D5owxM95EFbhpPIyjSIg3Ck+ECY0xLgwB+C9ez8c0JueaM1eOARM0V35txXsPvgQZix/EzmcQDRGqNm369Rf2HuNHFsFHRF6CeM7ht7D9mMrDt/A5kRvWOGF55IUjN9ivQp5Xy40P9q1c2zSzwYR7Wg74adV1/WeG9Egk476WA4Zpita+uXvpNJVKONJRH4zG09EvQpQ9DhRNEMB0TBTEhci1ATBLM2EQUzt9w2SE0mDyRABmoG+8IDwimIRxEC+FPlx3CywENf3TN3RBOIHs6fAbgcvCo1zQglaR0MCY2V9gbEELjMaZM5iVcSVzPMwVSr6u54xnckNYmsTWZy4xBJizZEMi40rWWFi/Dm/6GTmMlfm0eZufdhC0tFtbMsH9/MgteD5PCM8FAePC6Ej2vDIOR25AK8aErGBNMjaSOLjGGDMfbnv55VfldR2hvwOhVGnPz+yc+eAHe1e9p8KsWb/58m2vvpSL76BSN1MUSFHglKUAMslWLmGoJNNYsSW67RjrYnzOWDDSK5VJFToeTKUimtB52H+0yWr8LzYPWFxRWvR/tk+5a3bxpgKVR3nHpWBsvAab8aTKpCiQokCKAsmigCOUg/5PVn/xtBM0trpUevSFAsADxksivEqUAM+OSMaBeXuWfjakWY/uuelZPfXbF3IimQ3Pz21/8bxDW+foi514XnFFZ1LKxZfMqZspCqQokKLACU+BqOJbZUt3b/vokmb5A/UOTH7QE0kJNbmwUYeBM0oKvzhQUUrIFsUVCuprQz/UIFOFUxRIUSBFgRQFEqPA8rRdJROLF/20d1a7Ozcc2dPlUEWZ9meiHJZXIwypCzoQMlLRNrPx4B1H9+P9kHlqk01bPcgajSY2/FTtFAVSFEhRIEWB45gCyHw2/88Rni8keYj9GZMuINyGx8KJFk5qsnVyQiosJqqlIEWBFAVSFDiFKEAWKZm3yH8yzMhWdRIDYslQmQwgJPOMLFayx/BirDb4U8ollpSpv1MUSFEgRYGTnwJ4JGzS8/oCioXXHpx0frcHw2/0BOnNIPsvJAoEKpiUchGVUpCiQIoCKQqcYhRAwRDiQsE4ngnX8GpMyD3et0NnkEEW+MKvW0upTgpSFEhRIEWBFAVOEQqgLDgnsZ0w6NRsFAxeC6dJoJR8X179/xt005XD76ELAAAAAElFTkSuQmCC;" vertex="1" parent="13">
                    <mxGeometry x="20" width="117" height="96.01" as="geometry"/>
                </mxCell>
                <mxCell id="14" value="" style="swimlane;startSize=0;sketch=0;hachureGap=4;jiggle=2;curveFitting=1;fontFamily=Helvetica;fontSize=14;" vertex="1" parent="1">
                    <mxGeometry x="438.5" y="240" width="160" height="120" as="geometry"/>
                </mxCell>
                <mxCell id="3" value="currently active server node" style="shape=image;verticalLabelPosition=bottom;labelBackgroundColor=default;verticalAlign=top;aspect=fixed;imageAspect=0;image=data:image/png,iVBORw0KGgoAAAANSUhEUgAAAZcAAAFOCAYAAABKV1DqAAAABHNCSVQICAgIfAhkiAAAIABJREFUeF7sXQd4FFXXPmkEEnonQOgdAUGqoiA2muCnYsFeEBBQEFTws30WbOAvYMeCFStKl16U3pv0EmqoIRBSSf7zbnaSmdnZzW52drOze87z3Gczd+7ce+57N3P23tOIhAQBQUAQEAQEAUFAEBAEBAFBQBAQBAQBQUAQEAQEAUFAEBAEBAFBQBAQBAQBQUAQEAQEAUFAEBAEBAFBQBAQBAQBQUAQEAQEAUFAEBAEBAFBQBAQBAQBQUAQEAQEAUFAEBAEBAFBQBAQBAQBQUAQEAQEAUFAEBAEBAFBQBAQBAQBQUAQEAQEAUFAEBAEBAFBQBAQBAQBQUAQEAQEAUFAEBAEBAFBQBAQBAQBQUAQEAQEAUFAEBAEBAFBQBAQBAQBQUAQEAQEAUFAEBAEBAFBQBAQBAQBQUAQEAQEAUFAEBAEBAFBQBAIUATCApQvYUsQCHoEcnJyWvIkI51MNIPrU5zc01fncEWSvtLF9YWwsLAsF/flliAgCAgCgoAVEWDBchMXK1AqM3mWy+NWxFl4LjoEZOdSdNjLyCGKAL+osVvZyKW5hSA4xbw25B2PJzskC01PWDUbgXCzO5T+BAFBoEAEhnELKwkWTKgSlxcKnJk0EATsCMjORb4KgoAfEeBdS2UebheXsn4c1qyhMhISEq6sVavWXu4Qep5se8HfQoKABgFnykSBSRAQBHyDwFjuViNY0nbvoeQlyyi8VEkKCzP/MCG8ZCyFRUR4PJuY5s2oWM0a6ueKlS1bdjxXDOQCg4BL9gLjAwgaIUEgDwHZuciXQRDwEwK8a2nDQ63hki9BsrNp95330qUtW/3EhfvDxLZqSQ1+/p5Y4mkeGj9+/EvPPPPMSq6EHuYEF+hhIGBkB+M+vEHf0vyfSUEPmUxQEPAcARYseENP4qL5nzv7+x8BKVgww5RNm+nczNkOk73vvvueiI6Ors83anOBLqaEfl4OD0lFyCEgwiXkllwmXEQIPMjjdlCPnZ2SQsfHTygidtwb9tjb4yg7NVXTuHLlytXff//9G7gS+qMqXMpwKcZFTkLcgzUkWnl+EBsSsMgkBQHzEOBdSynu7Q8u+Myj4+M/oAt/rzBvIB/0BAEYFhlJJdu30/TetGnTWt9///2G8+fP4zgM0gf6F9G9+GANrNql7FysunLCt5UQeImZraZmOP1QAp369gdLzOHk519SxtFjGl5jmT766KObuLIcF+xgYKQQzUXeKZZYVd8zKTsX32MsI4QwArxrgW5iCheNZWbCqOcpfd9+SyCTk5VFWafPUNlbIEvyqW7dujVXrly5Y//+/QhTk8YFu5d0LqLY1yAVmhfyKyM0111m7T8EoFTBL/o8Sl6y1GZ6bCU6N2sOpaxbr2E5gumdd97pxZXYtWD3gl1McS7yXrHS4vqIV9m5+AhY6VYQ4F3LrYzCi2okcjIz6cCgYXQ5yXpRVFJ37qKK/e7QmCZXrVq1Mutdjq5ateoMzxO7Fuxi8Cl+LyH+LyC/MEL8CyDT9w0CLFhgPfWuvvdTU76l9AMH9NWWuE7dvoPO/jnDgddnn322J5smK7uXCtxATJMdUAq9ChEuobfmMmP/IDCSh2moHgp6i8SPPvPP6D4a5dg74+jyxYua3qsxvffee1dzJQQLjsfENNlH+FupWxEuVlot4dUSCPCupSoz+pye2WPvjqfLFy7oqy11DQEJ6zE9Pfzww7fUrFmzItfDqRJCJoaLHLvrgQqhaxEuIbTYMlW/IfAej1RaPdqlbdvp7B/T/caALwc69cXXbJp8VDOE3TT5Rq4U02Rfgm+hvuWXhYUWS1gNfAR419KJuXyfS763ek4OHXz6GcrU+YoE/myMOcy5fJkyE09S2e43axrUq1ev5ooVK8Q02Ri2kKuVnUvILblM2FcIsGDB/9P/cdGEQcGOJWXdBl8NWyT9Js35iy6uWasZG6bJb7/9dk+uFNPkIlmVwBpUhEtgrYdwY20EkAq4rXoK2Zcu0fH3IG+Cj46+/hYbHGstjlu3bt180KBBTXm20LtA/4KQN3AglbhjwfcVcDkjES4u4ZGbgoB7CPCuBbqG1/StT3z4CWWePKmvDorr1H93EqI66+mFF17oExUVBYsxWI6JabIeoBC5FuESIgst0/Q5Aq/yCPilnkfpCYfp1Nff+nzgohzg2HvvO1jAVa9evRp77sM0uTwXCBgYN0jU5KJcqCIYWxT6RQC6DBlcCPCuBcdAk7lo/p8Snh1D6Xv3BddkdbOxheNng4VSV3fU3GnevHn8d999tyE5OVmiJgf1N8D55GTn4hwbuSMIuIsArMOi1I0vrFhJyYuWuPu8pdud+uobSj94SDOHkkwTJ05Ezhe9abLoXiy92u4zLzsX97GSloKAAwK8a7mTK59X34Cp7oHBwyjrzFmH9kFZwUr9zMREKtezu2Z69evXr7lkyZKtCQkJyPei5HyRqMlB+SVwnJTsXBwxkRpBwC0EWLAghtY7+sanv/me0nbv0VcH9fX5eQvowj/axGeRTJyxUh01GSbKEjU5qL8J+ZMT4RIiCy3T9AkCCPFSW90zdisnJn3kk8ECvdOjb7xN2LWpqU2bNi2eeOIJ6KQQGgbKfTFNDvSFNIk/ES4mASndhBYCvGupyTMepZ81UhdfTrZ2/DD9nNy9Ttuzl87+8rtD8xdffPFWMU12gCXoK0S4BP0SywR9hACU+AjOmEepO/6ls79N89FwBXcbFhVFkeXKUVhE0alSj78/wUG4smly3FtvvYWwODBNhrm2mCYXvJyWbyGWG5ZfQpmAvxHgXcv1POZCzbhsjru3/0N0ce06v7ITVa0qVX7oASp9fReKrl0rd2xWsKeyzuf8X/Pp1Lff0+XzyX7lqfKjD1Hc89pNHZskJzds2HBsYmIiktns5pLA5TyXLL8yJ4P5DYGi+4njtynKQIKAeQiwYMH/DLYnVdS9nps5m059NcW8gdzoqdIjD1KdjydSybZtKLIsdOV2CgujqIoVqWSHdlTxrjsp41ACpe3b70aP5jRBBOhyPW7hXVQ+T5xMLJoDW4b/9NNPEC7wfbnEJY2LCBdzYA+4XuRYLOCWRBgKcASeZP5aqHnMTk3j+GE4JfMfVR/9LKGER0e7HDSiTBmqPfF9qnB3P5ftzLyJVM5H33JIwkm9e/fufPXVV9fgsXA0BgV/LBfEHRMKQgREuAThosqUfIMA71qgM3hJ33viJ59RxrHj+mqfXZfveyth1+I28U6mxiv/pdjWrdx+xNuGcCC9sPwfTTdsmRzFpskSNdlbcC3yvAgXiyyUsBkQCIxlLhCIMY8yjhwhJM/yF4WXKEHVnh3h8XBQ8ld/gX09WdD4i46+8ZaDaXLbtm1bDBgwQDFNVqImI7qB/xjzFwAhPo4IlxD/Asj03UOAdy1XcstH9a2Pjn2XstPhdO4fKnNjN4qqpImP6fbAMS2uoBJNm7jd3tuG0POcmfqzvpswjprcOzw8XImajN2gOFbqUQqCaznvDIJFtPIU+KWNF0tvJ3OAstcTp5Ekbp/jpC99dQpXQLHsDmVyo0lcNAYwF1euJnim+5NKXQOL3sJT6c5XU+r2HYXvwMMnj78/kcpyWBi1wUF8fHwNNk3u8Oyzz2IN4FgJczasBRT87q6fh5xIc38jIMLF34jLeHoEYLP6P31loF/DE/0IH/v4m4rVqO7VkMWqe/e8p4NfPn+eEid9QtX/qwm/Rnw0dsu777676dSpUxAs57hA0ECIi/WYpyAHaHs5FgvQhQkFtnjXAsshhFCxJulCnfhjEmER3v0eDCumCd7sD5bp4rr1DuOUYerfv38DvqHkfMExGUzfRPfigJY1K0S4WHPdgoXr93giMEe1HNkU5C+O8Tvf3ma1zDyR6HeeYTKtpwMHDiRMmDDhINdj/aFEQhHTZD1QFr4W4WLhxbMy67xruYb595/zhQ/AKtWpA5Xucp0PenbSJVt65aR5ZzxwcfUaJ537prps95upZPu2ms557XNGjx49Nzs7G7sUZKiEtyV0L/jE7kXeS75ZDr/2KltQv8ItgwEBu5c7zkpaqhH598ASOnR8o+kgRUREUbEoTRgwj8ZoXu9GqlAGcSodKZ2933f26EM5Ge7aBjj24U5NTMsWNr1FbCsNZO48mtcm8/gJ2nH9zZST5R+1Rnjx4tR47nTS63kWLVq0tlu3brPsjGXzJxT5p7ggTwFSdyIRjm8BzUNF/vAVAt4d4PqKK+k32BEYyBPUvCUvpZ2nXxe+SJfSYPAVWLQnYQU91neyIVPRteKpYv+7OfTLN4b3va1E7LBqI56i8n3YoE7xUeE4ZoXxVzk27v/8Jlgw78qPP+IgWNLS0lIHDhy4WIULfuBCEYRglvAhgpCBhSCU+2I5pgLKan/K9tNqK2ZxfnnXgrS3r+inMW/VBwEpWMDnviOradeh5XqW866rDhlMkeWhlzaP4CxZddiT1GT+bIJHviJMLqxYRbtuu5MurvLseOvMz7/SuT9nmMdgAT1FVa1iEy56+vrrrxfv2bMHccUUgnCBiTcEDMzScUyGa3k35UFkzT9kAa25blbm+nVmHnGl8uj46Z20dvtvAT2nGcveosuX8WPakSJKl6KqTw9xvFGYGt6dQE/ReO4Mqjp0cF7ssPQDB+ngsBG078FH2U/lX9o/YDAlcdRjd+jUl1PoyEv/c6epaW1scc9YQKqJIyKfHD58uD5sNHYnOBoDuDgew3EYMo7JrkWDnvUuJCqy9dbMshzzrqUZM/85F82Pmh//GkXnko8G9LxS089TTIkyFF/VWOcBz/fkBQsp6/SZQs8DHvS1J46nyhw3LKIUEjbyW5bD5Z+Y+CElPDuG0nbtzusbepOk2XMpdecuimbfl6gqrA9XhXaBH85F3uUkjHqezvzCghtHaX6i2DZXUnWE3NeFmhk5cuQvq1evhk+LmsAYBAr0LEe4wJztIhf/KIY0rMiFmQiIQt9MNKUvlwiwcMFZexd1oy175hKEixWoeHQpGnn/LIotjpM9R4LH/t4HHI+CHFtqa3CEVO2Zp7V6Fc7Jcnb6TDrG0YWROrkgKtGkMTWanrv7S164mA49N8bveVxsPIaHU8PfplJMc/yOyKd169Zt57hiv+jmAcECIYK8Loe4QHoe44JjM+xmhCyMgByLWXjxrMQ6C5a7md8uap4zs9Jpzor3LTONtPQLtGDVh075LdmxPZW54Xqn9/U3wksUd65X6XM77zpGuyVY0G/mKejBcymTd0/+ThCmjI38MXrBkpWVlTls2DCjMzwIENhWYzeDHQs+cS2CRQHUwp8iXCy8eFZhnQULDt8dYqUsXT+Zki7gh6p1aM32X+jEmfzjKT3n1cc8R2HFoJN2QXl6lZm5ehU22QWlHzyUr1fZ6XwMw57Vx15FdB4RUaY0VR0+1IG933///e+VK1fqzQCxa4FuBUdgkIwoKfY6hz6kwnoIiHCx3ppZkeMxzHQtNePnL56gZRu/ttxcsnOyaebyd5zyXaxmDar0wH1O78e0aE4Npn5HtSeMp2Jx1WztLidfoGPvjqedPftS0py/nD4b6DeqDhvC2Se1R4ZJSUnnBw8evMKAdwiWVC5QUp3kgqMx6F5k12IAlhWrRLhYcdUsxDPvWuoyuyP1LM/8+13KzIJxkPUIpsn/HoD6yJiqDhnoEBYfepX4d8dSw1+n5iftgl7lj+n070096ORnX3jniKnW1/sxZ4uCQPH69ajivXc5ADJu3Li5Z86c0ZvZKdZhCFoJwXKaC/QsEDhCQYKACJcgWcgAnsY45i333MfO5MHjG2j7XqMj+ACehY61WSwcsy7jh7YjhcfG5pkmQ69SecCj1OSvmRp/FSj/d3moV3EcSVWjOhYLKwLhYjsOjNT6ZO/evfvA66+//q+Ob+U4DLsWCBUIF3GadLm41rwpHvrWXDdLcM27lm7MaF81szhWmr70TXZiUP/UtsR0NEyeOX+YVm75gTpf+ZAh8xXu+A9lJBymCvfcxV7qcXltEC7mOHvKm378pdG5+FfpUuamG6gU54nRrDMHDmPT47kG4GDhIZWhvIdgwSe2sHIcZgCWlatEuFh59QKYdxYs+G79n57FNdt+puOnd+mrLXm9cO0n1KpRLyoVo/EJzZ0Lm+RWGzk8b17Zly7RyS++psRPPvfu+CvAkILxQtwox7TL8+bNWzNjxgx9CGbF9FitxBeflgBbU7PYkWMxs5CUfvQIDOOK5urK1PRkWrD6I307y16nZ6TQ/NXOTZNtE+MdBfQqO7rdQicmfOgzwcLCPB9HPx6LVX7sYYqurbHVoBSmJ554YonBwqpNj7FrgQWZmB4bABUMVSJcgmEVA2wO/KJD+PQX9WzNXzWJUtL0Dtr6Vta6Xrfjdzp2aqdTppF/5ch/X/HKc99p55obGo2+e4942SqqShWq8sRjDr1Mnjx5YUJCgt5aw0iJL6bHDugFT4UIl+BZy0CayVhmBrk58ijx7F5avf3nQOLRa17COGli83qsb4g1OBaz944XcKWHH/B6rAI7KAI/l7jnnqHwmBgNa0eOHDnOupaNOn7VSnzF9BiWYrAis7byrcCFCd0GonMJ3bX3ycx519KaO35I3/ks9g3Jzg4eS9MalZtRr87PUa1qV+qn6nBdZdAAOvv7n+RtFkmHjouwIvbKVlSuVw89Bzkvv/zyXPbI1wsMXEOQwJcFehjEs4G1WPB8IfRIyLWEtZbvgHkIsGCBmdIHXDQ74m1759GewyvNG6gIeyodW5lu6/oyDb7zhzzBksMWcNv3c9BKZ6bJ/Ou+2jNP+ZZrzamYj63F2Fih+n9HOwSmXLFixZYvv/wSMcLUpOxacAQGL3zoWrBrkcCUOqCC7VJ2LsG2okU7H5z/IH1xHiF+2OwVcHWxNkVFRlOnFv2p61UDKLpYbN5k9h9da/PYR9qAmzs+TV3aPGo4UeRkOf39VLq0Zavhfa8r/ejnAjNrRBpQU0ZGRjp74i8wmAd0LdC/KPHDoMQXT3wDoIKtSoRLsK1oEc2Hdy2IEf+mfvhlG7/icPrWih+mn0OTOl2od+fRVK50vr8KwtfMWzWRNuycntd88brPqE3jW1kHU0nfhS1aMNIU77mLQ8Oo9SOOLQtV4y9rsYiSJdlB1DF+2E8//bRs8+bNcIZUE3Yt2KEopsdwmhQlfqFW2HoPiXCx3poFKsewDst/+/LF+YuJtGzDl4HKb4F8Va/c1KZXqV0NaqRcyshMpeUbv6Yl67/gYzBY0eZTRuYl+mvVBLqj22uaeuXCpqfo2Z3OzZxteN8KlciOGVVJa8DA4V3ODhkyZLUB/9CpYNcCJT50LdC5QPciDpMGYAVblQiXYFvRIpgP/2quz8PCr0VDs/95j/AythpBr9Kt3SBq2/Q/nO8qV30Evcqm3bNozj/j6cIl/AA3JuxkOlxxF9WorD02UlrHPTeSzi9cRNmpektd4/7crvWDnwv8WSred48DS2PHjp2TnJys16EopscQKNC1QMCIEt8BveCtEFPk4F1bf84MSvxo9YCHjm+krXusFeEXepXrWj9CI/pPp3bN7sgTLAknttDHv95PP88f41KwYP4QQkiJ7Cy8jS23/CMPmb82fhAuUOKHRSHVfT5t3bp1Nwen3KObkKLERzBKSGLsWiR+mA6kYL+UnUuwr7CP58e7lt48hMYmFS/YmcvfdvqC9TFLheo+V6/yPOtVquc9r+hVNu6c4dFcEk5spq1sIdei/s2GvFQe+DidnfYnZRw7bni/cJV669/C9eLsqdLXd6HS13XW3L7M9PTTTxv9ggAzSvwwJQmYxA9zBm6Q1otwCdKF9ce0WLAgK9Z7+rHWbP+Njpzcrq/2y3WxqBJUtmQ1KhYVY9tlJLPex9kuAgzZ9CrXsF4lzj29iruTmP33e9Sk9nUUFakJCG17PJyTg1Ub8RQdGvm8u90VaTvsVqo/P8qBh1mzZq1ctGgRjrvUpFfi40gMCn3xaXFAMLgrRLgE9/r6enbP8AAN1YMgftj81RN9Pa5D/41qXUNXt7yf6lZvSxER+Uc3ySknbbuIpWxYcCElPxUwLLpuaDeYrmK9SriiV2ExtGnXzAL1Kg6DG1Rg17N84xS6vu0TBneJyt3ai07/+BOlrNc7sxs2L7hStXExO+Q+IgxE16mt4eHChQsX2fR4uQFjiukxHCXh0yJJwAxACoUqES6hsMo+mCPvWqpytw4/vRes+YhSUv0XPww7lH43vEHNOAyLEUE5f3XL+2zK+d8WvWxzduzQ/C66sf2T7K9SMu+Rw4lbbEd50K+YRUs4jXNrNk0uW6qaY5ccXLL66Gdp9533mmOa7COdS2TFCoQIA3r66KOP5h09elRrLpdrBQZrMDhJQrBA3yJJwPTghci1CJcQWWgfTBPHYaXV/Z48t59Wb/3JB0MZdxkZEU2P9vmM4qu2NG6gqoUQuufmd+hSahLFlCiXdwfm0vPYfNhTvUqBA3IDZNqEL0y/Gx3cf2yPx7RsYdvBnPtzhjvduWzjKz+XuGefIfi2qOngwYOHx4wZo/cGVSvxJX6Yy9UKjZtiLRYa62zqLPlF1ok75J/cWkL8sMvZeotUfSvzrnt2HuWWYMkfMSxPsMBEeuGaj+m9b3vaHCFd6WW84RjHbNgVOaO4UcMpvEQJZ7eLtD6meTMq3wf2GvnEa58zevTouZwLTG9BgGt9/DAo8UXXUqSrWHSDy86l6LC35Mj8bsEPEiQB0wSw2rF/Ee1O+Mdvc6pUrg6bC99ZqPGg6P/ol3sp6YKZ1lrGrEBo4bht4B3fMWCOMb8QNTn+7Tc4LMw2unxR7+Bu3KdRbVhERF51sfiaVOHuXGyyL6ZQzuXCvd8rP86hbDiygJqWLl26YerUqUd1PCi7FnUSMEzGf780jECRuiJFQIRLkcJvycEfY67bqjm/fDmT5qwY79fJtG7cJ08R7+nAJWMq2PxR/EXQ42zePYdaNXSIImxjoWz3m23FLIpp1pRiXnvFrO7y+klLS0sdOHDgIoOOFSU+4oZB1wKlm8QPMwAqlKrkWCyUVtvLufKuBcqK1/XdLONwKKeT9MFw9a3Mva5fs32hO8QOAlZl/qQ5/4yzZLQCNUbffvvtkl27diE2mJoU02PsVESJ788vVYCPJcIlwBcowNiDs0MlNU84YoJVlL+pTEkYqxWeDC24Ct9dgU/CJBpBPK1KmUwjRoxYp+NfOQ5DWBclfphEPbbqIpvMtwgXkwEN8u6W6OdXvFgpiimuSTqpb+KTa2+Ptbx9vjCT8oeOpzB8ufNMFBNnmGysa6tW4mPXAgEjSnx3AA2BNiJcQmCRzZoiO+fN475mqvtDPK7unYabNYTb/cCE2BtKYidHfxJywNzcwSG2pz9Z8HqsYcOG3VC2bFlFT6vsWnBMBn8WCBclfpjXY0kH1kdAhIv119DfM4AkgbI2j1o0uIXqxLXxKx97vchsCZ+QfUfW+JXfbm0HGud58SsX3g1WjmnSpEkd7b1AuMCJUkkChk9c+89SwrvpyNM+RsDRNtLHA0r31keAX87v8yyeVs/k2Kl/adLPd/vNCqti2Vo0/N4/2VI23wTXE2Q37ppBs1nJfvGSPjSWJ72417ZCmXh6+t5pFBmBUGyOdPD9Pyjh0zmON9yoiYgtTmER/BuRPf47rc612Du7dBvtHPWFG08bNwkvFsm+N8WoUve2VGdEX00jzjiZ0bZt24lbtmyBMIF+ZR+X3VywFZTglMaQhmSt7FxCctm9nvT/uAccheRRXKUmtlAn/iJYp63aOrXQw13ZqDc903+GLcS+OhZZoTt08WDva593KljSDp+mI18bZQd20aHq1uWUNMpKvkRZ5/ONuODXYqsrZMk4nUw2vr74iy7t1WYRLcbEu5euzAJ2LtjBYmCEeJEkYO4tWci0EuESMktt3kRZ93KOPbQhYDR0C+eQV8fr0t83+xq+NQePbXC7Wzg0/r3pW067nOsDWDy6FN3C+qKn7v6dGsQj6ID51KBmR2pUSxuqXj3Kvrd+pux0vJdNJN7FmEE5l7Np35s/O3R1zTXXXHnXXXchNwHeH4gSCj0M/jZnYIcRpcKKCBTuTMGKMxWeTUWga9euG2rVqnU7C5rKSseI3wXad8Qo462pw9s6y865TFv2zKXypWtQ1QoNXA6QlnGRfvrrOfpn83e0ZvsvlJ19mUPHtOBjtUiKLVGWsJOpUbkZIckZ2ppB2BE90HOSrX8jSlq5k3AkZhbVerKX7Xgs9WAinZq11pRusYMp1aIOlaiVt8w8RFhYmzZtqkycOHE9H5FCzwLAsIOBRz52NEKCAIlwkS9BoRCYMmVKNseY2hMZGXm/uoOaVa6gzXvmUGo6Iq37nrI5ltm2fQtsOxiYRJcrHcee+/lf66QLx1iY/Eo//jWKjp7aYWMIgmX/0bW2mGKxHMSyWsVGtvqKZWtT++Z3UkR4FEdH3mwTXt7QNa0ecOqVj13BjiEfU+aZwod80fNWa0iucEk7lEgnZ5ojXDDGxe0JVO2uaylMFQqGdftl+NapJUuWwEoMx2M4GhMzZP2ihPC1HIuF8OJ7O/XixYsv4GSEmkyE+LV+SyeNrt/bYdx6HrulKTOfpO9mPZXXHtGO355ysy00jVEaAORcQeriyX88RojoDEJyr27tBtFT9/zu8jirIKZKlijvNJcLnj32/WJK2a0P0VVQrwXcz9szmHs6dWn/CTr2wxKHwYcOHdqzTJkyiNoAx9oKXBCBU36wOiAVmhUiXEJz3c2adU5qauoI7kyjNGhe70aqX7ODWWN41E9Wdj4r6Rn6SCXGXUEwTfjxdluASeUZWKM91PsjerDXJE3qY+MeHGuhyymuyhejbgHle8JHsxwf8rIGJtY2Mknnombn0KSZlHlOe1xYvnz5cpzXBcp9CBicm+H8DyZx5ko3NSPyt2UQEOFimaUKTEZLlSq1gyODfK7nrscInAxuAAAgAElEQVTVIwsdWFLflyfXeS9YPOTBSxapAqCPGf/9rQQzZSUEf2NOVQyTZwgLpFB2hwqynDswbhplJrkn+NwZzx9tYHl2aNIMh6HuuOOO61u1aoVsaNi9VOQSy0V2Lw5IhV6FCJfQW3PTZ3zy5MmX+KWOtLZ5BD1GG87+WJRkFOK+IH4QAwxHZZ9Pe4ROnNlja44oBDBZHsGmywWZW2NMmB6H2VMn68e7+O9hOvGbj1MT+GjfcHzqMoejPLZMjv7ggw968Dyxa8HuBbuY4lzk3aJf/BC7li9AiC24L6Zbo0aNM+xb94a+75s6DHV6NKRvG2jXB46uo4k/3Wk7KlOsx8qUrEJ3ckrlx/pOpsrl6xmy3KpRL6pdrbXhPVTCtBfKfJ+QD4/FwK8z0+TOnTtfde+99zbkJti5oCB1JcyTfSTmfIKedGoyAiJcTAY0VLubPn36JPZ9+Vc9/4KU2r7ASptR0rt3G6zKbEdl3/W2WZwpwS7r1WhPw+7+lXp3fp79enAKlEswxXZlzADz4PNr4czuI7ILFw9OAz1mJGnVTjqzWJtZE6bJr776KpuqESzIsHspz0V2Lx6jG1wPiHAJrvUsstn069cvg3Uvz+kZ6NSiP5v41tJX++5a+fXOI5j1kkVagWmLX7Vlr1RSFkewf0ynlv35qGy67agMx2FdrxpApWPz/UHUk8xOyyToWnxJqqn7chjaP5YdPzO0SSbr169f96WXXrqKB4bVGEAozQUOlt5JeJ/ORDr3JQIiXHyJboj1zabJM9k0GZGT8wimyd2vfqaIkDD3vXbk5Hb6+Nf76ZcFL+SZNkOY4Khs0J3fU+crNS4/mjknfDaH0o75Po6ZbVCzpKqTVUtNOGUzpdbTU0891UtMk/WohO61CJfQXXtfzDwnOTkZkkRjmty0TlefhVfRT0J7LKa/6/01jsbgfDnuu160YvP37GiZqz+B82hEuHFgyvTj5+jIl/O9H7ygHnysc1EPD9NkxCBTE0yT7XHHcCwmpskFrVeQ3xfhEuQL7O/p8QtmOx+POYTk7XXNs4WOYOzRHDTHYubuXNR8pKYn04zlb9GHHAk68SwCAzunfThGStNkKXDe2Js7fgy8goCZhyZMd+CWj0e7tWjRQkyTHZAJvQoRLqG35r6ecc7p06dfZNNkhGTPI1hXtWt6h6/HzvNPyR3Id8JFmciJM6ygd6HsQOiU0/PcD67pHUB+lC7M6PFf/+bQMIc0LNtNk2/hSsU0GZ+i3PduYS35tAgXSy5bYDMdFxd3mk2Tx+q5vJFNk/2ZEpmNmPQsmH7d8Yp7qUqF+k77Ldm0JjV6+2GKKl/KaRuzb/hj3jaes3No/zu/ObB/3XXXtb3ttttgqw2zZDhXimmyA0rBXyHCJfjXuEhmuGjRogm8e8n1QrRzEFO8DMfbGuBbfvz44x2C8vq2T7ieDwu4Kn06UNu5/6PqD3TLTezl+olC380P/1LoLjx+MGn1Ljo9f6PmORZu4W+//XZfrhTTZI8RDZ4HRLgEz1oG1Ex69OiRzrqXZ/VM2X7pl3f+S1/f3tNrM/1cChr7lo5P8U4M709HQriUnaO+pPTjuYELIkvHUL0x/ejKX8ZQ6dbGDpiOvXhYowhWP+zY1Jztf+dXh5w0DRo0qPvCCy/Am1RMkz1cxmBpLsIlWFYyAOcRHR39J5sma9IsIi0x4nT5jvK3Lr48FEP8MFfhbQ7+3590csZqWtv9ZY7JNTPPLwTHZK2+H2U7KitWEa4gJpIL3Y+Jozh0hZwvR79Z5FA/YsSI3mKa7ABLyFSIcAmZpS6SicI0eQSPrPG4a1z7WmoYf43PGfKl7qFX5+ecBuZEauDjPy2zzQ9WYgj4uL7Xq4Tc9jZSjsrmv061hvSmsChESjGR/LxzAecJn8ymjFPaHD5sOVie44514duKaTK2eeJYaeJSB3JXIlwCeXWCgDd+v2zj3cuX+qn07DyK/UJMfqnyIJqoyPpBTbpu2bAH1Ylr47Q3o/hhqQknadsTE2n7oA8p7chp27MRJaJZuPSiq6a/ROWuaea0P7dv+C7ifoEswDQZuzU9cTrkbo0bN67C9RI1WQ9OkF+LcAnyBQ6A6eWcOXMGUZM1P2srl6vLWR/7+YA9tUbf/IMxREiGrsUZnf5rA51boQmxpmmKuFzrer3CoWB+p8uXkCGYM2zVqUJXTB5GzT95korHQUVROMoXrObP2x2OTkxbQRe2HtQ05agNxTnnS3euVEdNjuZrefe4A6qF28gCW3jxrMJ6lSpVElm572CafEP7Jym2OCK0m0dqtYMvjsW6tHmcypaKM2Q4Oz2T9r/raJqrb4w4Y4c//4vW9XiZEv9clXe7fJcWdNXsV2xHZeHFCrGrKyKdS94E2DQZuza930+XLl3a6UyTYZctUZP1X4wguxbhEmQLGqjTWbFixQd60+QS0aVtKYV9R+b+gi9bqhrHD3vQKbtHvpiXd+TltJHqRvqJc7Trua9oy0Pv06W9x213wosXsx2VtZn5MpXvcoU73Ti2MXfajv27qEneuI9O8e5NTXbT5D5cJ6bJLrALtlsiXIJtRQN0Pl27dk3j3cvzevbaX3EXVa3QQF/txbXvHF0QwiYqEs7mjgRBgd1IYQhh7Nf3fc32qx+6C1CJ+Mp8TDYk96isJnwRXVNsw+oUHg1dOVGp5rWoDetxmk0aRNXuupYiS7mXQdP1CO7f3f/2Lw7hbtg0ud7zzz+vmCZD/yJRk92H1JItRbhYctmsyTSbJk9j5f5CNffhnLERlldmkVqhb+axGHK4NKt3g1M2cRx2OTVXh+K0kYsbOVmX2Zx3oc102XZUZj/iwlFZ29mvUr0X7qKIGKgqtAT/mcbvPUpt/nwxT7hg9wNhU+GGVtTg1f7Udv4bVPVO31vnKZzZAnV+rbFAt91i0+ResbGxiu4FyiVIPUmJrFvTYLkU4RIsK2mNeeSkp6ePYlYvq9nFixu56s0h83cuuQLQwR80j13bUdDsdaawn3EyyXZUtvmB8XkphWGqXP3+61kf8ypV6dshb5xilcvSlT89T5V7tXMZZj+qbCw1fO1+m4DyFyV8MocdSDXh5ahSpUoVJ06ciIUW02R/LUQRjiPCpQjBD8Wh+ZfrJt69fK2fe6/Oz1JkhHHIen1bd6+RwMsMyj26QxZfA4IS+42fHJTYBi09qkLGyg23vU57XvqOMpNSbM9GVy1Hjd56mFp8PZxiG9ekZh8OslmauUsQUAhB4w+Cf8/BD/5wGOqee+65oVGjRgjHL6bJDugEV4U5/33BhYnMxscInDx5smrFihV38bGVxkV92955dCb5iFejl4qpaMsMCTp4fAPtP7KWMjIvedXnta0fcRrm5fjPy20CwJeEnUf8k72oev+urPHP/ZfNyc6msHDPfxvCUm3tLS8SdEQ+J3bmxM6qVIvamqEWLly44oYbbvgeS8QF8eeOcUnlkpscR9NaLqyKgAgXq66cxfnm47ExHJ79DStPA/HD1t7yEmWeveCXaUBRX+/Fu6l0y7pejZfw8WzeVTg6PHrVqZOHwWurqXykqIoakM3EpsnvT58+fQs/BuFygAuCsCHJnPnnmk54k2rfIuD5Tx/f8iO9hwgCbJo8npXve608XcQM85dgAU4Xth2iTfe8Q4cmOibp8gTHQps4ezKIvW3y5v10ctZazZPhTGPHju3NlYppMpydJOdLIfAN5EdEuATy6gQxbzBNZt3LZ1adIqy7Etkj3e/EOp5LB096NWxMnapePe/pw4cmzHB4pGnTpg2HDh0KRx4larI4VjqgZO0KES7WXj9Lcx8ZGdnTqhMIi4yg6g85N0325bwiY419bdwdM7x4lPnBMl0MXvEWuLdoiZPJpS9btgxHYdC7QcEvpsl6kCx+LcLF4gtoVfb5SOxe5t0s++MigaHmozd7FQussEwr1mOFfT7rfArlZGoCVRe2qwKfK1ahNMUPQGgxLf34449LN2/eDDM4SErFNBk+MBI1WQ+WRa8LEcDIojMVtgMGARYsMcyMQ6yxhCPnKTXV+KUXGxNF4REF259ERYZTpYqxtrleuJjBxbVjYwn+FR/JzzgjGGfFxhqbSGMHUOeZ2+jfZyY7e9z0+gpdW1C95+/0ql99cEmvOivg4TrP3k4RJbU7LQ5kenbYsGFr+FEsKN5BSIMM02SYsF3kAsW+8ReBbwhZAwERLtZYp2Dj8gWeULx6UseOX6BHBk+nzEyNf6XH865buxx99THCWBH9MXMnTZ6ijXPlaYfhbOX0yQe9qFED42jFlXq2pWM/LqXz6zQZnT0dpsD2SDJWb/RdVKat96Fy9LG/Chy8kA1gKVbl1vYOT7/55ptzOM8PhAeECyQ7pDeU+hAwOCrDjgZfBLEcYxCsSs5/sll1RsJ3QCPAuxbY0Y7QMznhk9VeCxZ9n2ZcZ3MYlo8ma62d9P3WG8Oe73b/E/09b6+jypW0edYjPXKeYGGektjJsjCEvDKJ01YW5lHPnmE8bBEBdInLtmzZsmv8+PF6SYwQMNjeQKmPbSeOxuTd5BniAddaFjDgliToGXqfZ6g5J1m34RitXOOd86SCmvqnbsGHaO5hvWnLCVr2zyGnjbGrqNKno9P7hblhC/nC3vTtOC4YPOvDInL/VXGktened2nL/ePo6BRNmLYCh0FKgJ2jviRYuvmaqvbt6OA8ydaBl4cPHz5PN7Z6mbB8iiOl7Fp8vUg+7l+OxXwMsHSfjwDvWmBeles+b6/OysqmDz5ebR5MmoQu5nX78eR11KFtDSpWzDjOYp2Rt9Hp+Rvo8sXcqMbejGzTq/BuqLgqGnJ6YhIdfH8aB7VkrOxz3P/OrxTGeV/i7inYLgIOn/+OmEwXNsNf0bcUwdZstYf3dRhkxowZKxYtWnRGdwNCBNIOR2FIKIfPDC7ire+AoLUqjP9TrDUH4dYCCLBgwVEHHB408eN/mbaDFizZb9oMypYpTrf1bmzrb+uOk7R+U26eFG8HgHFADBsVXNHMOJaXLWIxvyYRPr+whB1Qk/GPU022roosA5sHfsNyjK4jXy2gf5/+jLM86nZPLGTOLt1KKbuOUskmNQlHaA7EfjGn5q63PX+RnTD9QXWG93FI28w6luSbb77515SUFP22CUIEoV/gvHOYyyn7tQgXfyyWD8eQnYsPwZWuNQg8xVe5b3179bmkNJry42bLwPTtj1vo5m71qUJ54/woNR6+kRJ/W0HQa3hCSuywuHu75B1/YXcCxfuBd36jtGP6H/va3k/P30inF2yiK38dQ6WaxVNORhYlfDaXE5edonPLd1DGmWRP2PGqLfLQxN13vUMfkyZNmp+YmIgdiZogQGAZBgYB2mkuCASnF0Cah+TCGgiIcLHGOlmaS9614Of+f/WT+Oyr9ZSSon/f6Ft5ds1j5T2g0yV71pFB60upmTbrs+eGX21wlzXQfEQF0+QdT31qeF9fCUdMCJRaQ3trEnpBr4LEYQjl7zbxvJVEY9nsw3JokqNXvNt9edEQSnx9iuYDBw4cfvHFF7fpulWOwyBMID0hXCBkJL6YF/gH0qMiXAJpNYKXl7d4aogjlUe7956hufPNDy2m1gKbFXJfzTd47tOzETVuaJwdsuLNrdmqqyEhZL4rgl6l7uh+nHES1re5ZKRXcdWHwz1FsJotVR0GMq4o16kJlb+uueYmC/ucMWPGzOVYlXoFPa4hSKBnSeQCE2QorGTXYgyv5WrFWsxyS2Ythvnd0oY5fkDNNd6BEz9dQzDzNZ200sX07sEzeHfFer0x/fKPt3QcxNSrRs0/H0bNPn4yT7BAr4IUyeu6v0SJf6wqfG6YPOFi+rQL7BDWbfVfvMeh3dKlS9dPnTr1qO6GsmuBwyR2LNCzILS0OE46IGjdCtm5WHftAp5zFiwwM/2Qi+ZHzPzF+2jLNvxYtSZtY0OBJcsPUtdraxtOAMr1Kv/pRCd++Tvvvrd6FcOB9JV2wWpmemf9EM6uYS6tT1yWlpaWOnDgwMUGz0DXgl0KPPIhXPApFmIGQFm5SoSLlVcv8Hl/iFnUuGinpWd57TXvatq+1Lmox4VjZcf2Nah4tPG/UJ2n+9JpttK6nJphrFdhy619b/5EyRs80Ku4mngR3ouqUIriB/Vw4OCbb75ZsmvXLpgWqwkiEDsU7FQUJb7ike/Qh1RYFwHj/wzrzkc4DxAE+CUPb2uHZGCwuEo8qX/fmMe09lTMLDdKR/5OnkohmFHff3cLx5tcgxdug//dR7ENqlNM/Wp5bTJOJrGyfSYd/5V3NQ5qCMOu3K7MF6y+m7cRM3We+Y/GIAFt2DLsFDtMrtO1V47DYHqsKPGhc4HuRUyPjcC1cJ0IFwsvXoCz/jLzl/9W5YtjJy7Qz9O2+5RttS7E13rt76bCNLkeVa6UGyhTP7FK3a/Kq0J64aPfLqKET2bnWXXp25t27UfZUrJpPMEbX08cP2zupUuX9Mp5CBdFiY9dCwSMKPH14AXJtSj0g2QhA2ka/Asa0RWH6Hn68DPOZ5+hf9/oW1nn2t0jvrNLttC6ni/TgXG/+1aw+NtajKW3LX6YLq7a+vXrt0+YMEF/3qfsWrBthT8LhAuOxiBshIIQAREuQbioATClD5gHdlnPJ3jK/70yweesqXUutpi7PqZ5i/bRzt14Vzqno98uprSjrh0hnT/twR1XJmwedONuU0Q8LtOmvqZ5VlZWJmeYnG/QB469kP8AyntYc+AT13IcZgBWMFSJcAmGVQygOfDLHfHuNdmhLl/OpklsvusXUild/GE11bpVHJUprc1Xop9nPfZnUQJP6u/54trXx4HgGeFu4DCqp2nTpv2zcuXKJF29smuB6THMjlFEia8HL8iuRecSZAtalNNhwYK8HO/qeZg2YyftP4gfqr6nHFUKEF9uXOJrlqEnH29rC2ZZEEGhX/XOa+j41GUFNfXqft7GxQ/SJX5gDypWGYkj8+k806BBg/4xmIRieqxW4ovpsQFQwVQlO5dgWs2in8soZkGTzSr5Qrql4ocVBGHpUtE0bGB7+poTkqkFy/qNxyk93bk+qQ5HCY4sY6z4L2hMt+/7SeeCaM3VH+zmwNa4ceP+4iyTeh2KEj8MVmHYsUDASPwwB/SCr0KES/CtaZHMiHct1Xng5/WDI35YcjKO1v1DWmsx8/YuSIXcu3tD+m7ybXR7nyYUYc+vsmvPGRo6ag6NGPMX/fjrVqeThGDBr32fktoO24cD4ZgvPBpBrvNp9+7dB1577bUdumGV4zCJH+bD9QjUruVYLFBXxnp84ThME/N97/6zNOuvPX6diUanbZJsaXNlHA19oh3VqZV/DHTmbCp99d1G2/yUsFk//LyVut9Yn6pUNgh9zyhUv78rHf95GaUesG50grIdG1OF61tq1pTjhmWPHDlyrsFCQ7jg+As6GHX8MFHiG4AVbFWycwm2FS2C+fCu5Woe9m790BM/4fhhJjsK6sdwvM7/+e6tbImvUYbeevUGGv/mTXmCJZOTm/325790/+O/04w5uzXzS2cz68++3uDIkr0GUZDrPXeH0/te37BLVl8ZMsAowZbSWUcLFixYw4nA9BJTrcRX4odBoS/xw/QABum17FyCdGH9NS0WLPiB8n9cNO/yhUsP0KatJ/zFhqnjQK/yUP9W1LdXo7zjLwywYvVhmvDJajp+Au9IY1rIic/6ctRkZ0nFyndpQeU7N6Ozy33hTGoXrN5KVeOpcZ6WrhxxIE5zNzU19dLgwYONLBX08cOwexHTYyfYBmO1CJdgXFX/zukJHi7fFR1vEP4F/+mX6/3LhX00b3Qu0KvgWOuxB1sTMloqhPQAMKXe7EawTYw/gXdsn07oxb6Fxm/5us/fSedW7jQ9l70v3VwQeLPW4J4Oa/r5558v3LdvH3QqalKU+OokYGJ67IBecFeIcAnu9fXp7HjXUo4H+J9+kO9/Qvww57/u9e3NvC5VMt9308m73XA4m15lQFuqUxtTyiUjvYrhw7pKCKP5i/bbQsMYEcLuV7vrWjr2/WKj297XeTJxN0erPeI2B2u3o0ePHh81atRGXRfKcZg6fpgkAXMT52BqJsIlmFbT/3N5jYesqB4WAR1/+s0XRz7OJ9e2dRzd2qMRtWtTnYoXz/9KX9MxnnayNddfC/Y61f1ArzLosauoU/uaeQNArzJ91i764psNlHJJb1nrnA/1nU++WEedO8VTTAmtVZXSpvZTt9KpWWsoM8nEIJ4+2rqUbFqTqt4OtZqGcl566aW5GRkZeuU8hAv0KjA9hq4FScAgaJzbaWv7lasgQUCES5AspL+nwbuWZjwmjsQ0NOmzNYSYW/6gkrHF6IVRnTWCQT1uxQox9DynJO53W1N66fXFdPhofi75UiWL0b39rqA7b2tGUXwcphD0KjBEQJBNb+jsuVT68Zdt9OgDVxp2E1k6huKH9KZ9r081vF+oynxbBtaA8ZGcScKm3ui7HCIMrFq1asuXX355SMensmvRxw/zzxeiUKDJQ75CQKzFfIVs8Pc7iaeo+XGycfMJWvq3/n3jGyAgWCaN6+FUsKhHrctHXR//Xy/bkRf8U3L9Vf5D9955RZ5g2bPvLA1jf5XRryz0WrAoY0/9bRudSHR+PBh3z3UOCnKv0NIonLzqKe/hyj3bctpmjV8sBx/NyOAkYAsMRlAr8SV+mAFAoVQlO5dQWm2T5sq7FtijdlF3B5PjiZ+uNmmEgrvBjkXtd1LQE9ipjHvjJrrAEQNqq/xVzien0TecY+b36f86PTorqG9n9xEB+pMv19ErozVQ5TWHaW9ddkjc+giM7QKPwotHUW2D+GG//PLLss2bN+u3dspxGKSpkgRMPPEDb1n9xpHsXPwGdXAMxIKlBM/kbf1s/mQdxb4D/okfBh2LWkei58XZdYXyJfIES5bdX+Weh3+jX//YYbpgUXhYvOygSyuzcp2aUPnrmjtj2aN6Xpu89mb4usQ/0YOKx1XQ8HCWiU2PVxkwBp0KcrMgvAt2LTA9lvhhBkCFSpXsXEJlpc2b52juqpa6uwsXM9hbfZN5IxTQE5T33pBNr8KmxceO6398e9Or82cnsm/MZxN7OzVNbv7pUOcPO7mTw5GmL6fgXZ5PESXyLeU6rhzn5EnX1VkXWPdud3yNrpZvOac89dZbb81NTk7W61CM4oeJEt811EF/V4RL0C+xeRPkX8bx3Nsz+h4nT9lAOF7yB0FPfRXvXLwh+OD4S7CAT+hz5s7fSz1u0uouvJkDjtRgFOCMXN1z9gzqXT23a9eufe++++5u3fNq02MktsGuRUkCpjYxcDWs3AtCBORYLAgX1YdTep/71rzRDhxKsoVB8ReVYu95Z+a97vJQpbKPoxMbMIKwMIU1azbozu9Vl5mGDBkyx2BgCBAcf6mTgOGXht5E2eBRqQpmBES4BPPqmjg33rXA3byuvsuNm48TkoH5iyJ0KXULMy488f1N59g0ednfB/09rGnjHTp06AjHENOn3DRS4kOhLz4tpiFv3Y78/19mXaxCmnNWEONFMlwPQm/Wf9SoXlpf7bPr8+fTCU6O3tCp0/poJd705t6z8Lnpem0d9xoHYKuaNWtWa9myZSkda4rpMRwlYSEmSvwAXLuiYkmES1Ehb8FxWcAsYbZ/V7MOB8SBj2pCi/l0ZtlsEbXFi4CYqWlZfrNqUwMxmKMAqKMH+BQkH3QeFRVV7MMPP7xe1bWixFfHDxPTYx9gb9UucdQhJAi4jQAfj+FoDEmh8k2T+GLkC/No7YZjbvfjTcObOGbXCyM7F7oLOHt+8PEqgr7IH9S8aWWa9F4Pm9O8EZ05nkypF6C2MKZiJSIpwo2jvFLlSlAx9k0BnT2R7NJBH86k0U5C0yhclGD9lpp47XPuvffeyVOnTj3K9bAYwxFYAhco3Q5zkeCUGsRC+8LJ1z20QZHZu0aA3zHwc3lW3epgQhI9Mni6X/QviDYM094G9cq7ZtTFXfi5wDfHm/hhLrrPuwVeP/6/ntS4oSYEW979FLayG3vfT3SJnTu9pQde6katuuYGy3zuli8p08swPAPe7k6N2+XHXAN/Bw4cOFy/fv0vOD8YGIYOBoIFGeFwNOb9JLwFQZ4PGATkWCxglsJSjLzO3GqStdSOL0u9bjHP1NYVGjgaQ6wwT9InI4IAcrHs2Ik07mxyyzsBpCv+9vP/2KIXO9tVuOLDnXs9bm7gVLDg+VmfrzFFsKAvs6O//PnRSrqs02/VqVOnJgesbMrDKfoW7FZgHab3fXEHHmkTxAiIcAnixfXV1Fj3coF/ub6i7x95UJBoyx+EwJJPjpytCUbpbNyLKRn03MsLbBkkB4+YRW++t5zOJeX65cBrfwwfsU14pzvVr1v4nZDR2LExUU4DV6L90T2nac3sXUaPFqpO7aGvTd1WqO4okY8NV0zHCaiWhg0bdmO5cuVw/hbBBZ/wl5NTED1QIX6NL4eQIOAxAs2bN9/UpEmTW1nQVFUejo6OtO0I1q73j+7lfHI6zZq7m1JSMymuWilS53IBT4gjBh+cV8YuoX3780PTIEzNrL92E/jFcRVCpSDvfe8eDalGtdK0ZdtJSvfySAnjP/HIVXQV54lxRt/+byHrRsyLEtCCrdGq2QXkgu83Ouw6nPHhqv7QvyepQ4/GrMvJ97cuwVSrVq2s3377bR8/CymNScjuxRWQIXhPfm2E4KKbNWVOcdutePHimui40GU8POhPSjiCdB7+JZhEQ0jAgg15ZaAHwnGYK8Ju5enB7TVpiZNZKE35YbNXwSxr1SxDX37UxyZsjWjDwr303euLjG4Vuu6+/15PrbvVtz0/usdXlM5C1wzq/J/mdNvQTpquEBm5Q4cOb23cuBE6F5SDXCDB5XjMDNCDoA/jb34QTEym4HsE+AfsInbcnqEeCS9TJN8qCjrC+VrWbzxGq9Yeof0HzxUoWMDj3v1naSiH2n/5zSU2gQTC0Vd0xmIAACAASURBVN7QJ9rRpx/0omZNKhVqKkMGtHMqWKBoh67FbNKkbzHxZ+M/f+6g4wegr8+nYkwTJ07swTVluVTmgkBkyA0t7xQ1UCH8t3wRQnjxTZh6TkpKCmKNaayEELG43VXVTejeP13gpbxk+UG6f8A0+vr7TXlOmg3rV6APx/W0mT2XK4v3pnt0dQfX81/AY5xzkefFvVEMWqmjIpuoAsnmCAx/TFrpMGCnTp3a9O/fvyHfgCkcpDCcLEX/4oBUaFaIcAnNdTdt1mXKlNmTmZn5sb5DV7/c9W0D5TqNHSwR3fnhgX/QmnVw5chN6Ai/mu8m/4fu6NvUlmzMFeFIbtBjbZ02OXfyIi39eYvT+4F6Y8+Go7RjVYKGPdZVhb3++ut9wsPDld0LLCJk9xKoi+hnvkSh72fAg3G4Rx55ZDULmUf4XZMXEbJsmeKUdD6N/t2lD0cV+AhA5zJ/8X7avfcMNW9SmUpyorFixSKoPe/GsCuBLifxZO4Rmn4299zRnK53Eeblp7eX0jE+ivMFXXFNHYqrl5t/ZeGPmygr09wQXwk7T1LH3k0oXCVgyzKxcDm9ePFihH+BJyi89KHcN3dwXwAmffoUAdc/w3w6tHQeLAiw70MS63df08/nkfuvpNKl/WOarB/bjGvkfXnwiT9sR2XIKgmCAcDEd7vT2Fe6UeVK2ujK5dhDvv9dLZwOvYf1QVuWH3B63/sb+cYLvvDbOc06rX84sZqeOFpyT/5xAZ0LjsYg3ZBQTn646oEKsWv5AoTYgvtquhzYcOOVV175H969QLlro2j+tQ9z39X2IyZfje3LfrNY37BpywlauPQAxVUtRTVrlLENh89buzeiqKhw2v7vKZvxwDNDOlKTRsae+Lj/9Yvz6AJHR/YVNb+mNlVnPRFo0dTNlGUXiGaOd2j7SWrHwUrVoWNgmhwfH5/1+++/H+KxYKKm7F7EcsxM8C3Wl+xcLLZggcruE088waqXzKf1/PXt2Yjq1HbMaKhvF+jXSC42+pWFNGLMPEo4nGtmjUCUD/VvRV9/3IfuvK0p3Xh9bugVo7msYIsrXx2HGY1norGYpvu0Sxn019frHYa84447rm/VqlU1voHdCyQstnXy49UBqdCpEOESOmvt85myz8tCNk2epR4ICnCY9QYLwdT5kcF/2tIkp9r9SOBfAwMGZ0dRiBtm9EI2HRPXLj2mDbdq5r8OgpItk6M/+OADMU02DWXrdyTCxfprGEgzgGkycr5oTJPb8A/aju1qBBKfXvGCfDK/su7hvsen0byFcFJ3TbO/WEsIUOlrUod/QdQBXxGO+P6YtMKh+86dO1/FUZPVpskluZGYJjsgFRoVIlxCY539Nku7afKn+gGxe4GZbjDR6TOX6P0PVxGsy5zRCXbmXDVzp7PbptZrNi6+ky02nvfyDm7r3wc1/MM0+dVXX+3FlVBMQfcmpskahELrIrj+20Nr7QJ2tomJia/yr+gzagarx5Wmvr0aByzPhWXswf4tXQbrhFK9Ug0/ZepUO1H6WLgAr+kfrXIwd+Zw/HU5ajJCNECwQMBg8ghu6QeOCruK8pwvEBDh4gtUQ7xPthw7y6bJ/9PD8NB9rahMafc93fXPB9o1BObttzZxyVYNDow5cvIdtthc0RwlOZgISc6W/7bNYUpPPfVULzFNdoAl5CpEuITckvtnwlOmTPmYw/JrnCJKxhbjEPSt/MOAH0YZNpCP+qKMDaKwYzm2L3fzhiySCP74/JR+dNVNUEn4hjSxxfy0UZj37QZK5uNBNZUvX77cpEmTunKdsnuBB38xLrJ78c3SB2SvIlwCclmsz5Qz0+Te7BtSr471TZOvah1HHdo6N1KAh/y4x3+nH8YuoRSOVAAqUzGW7h3dhQa/34uq1jE3d4xtAJXSxYf6fM2XM/1SJs39ap3DF7Zfv37dxDTZAZaQqhDhElLL7d/JIhw/mybPVY8aHh5GQyxumgzDhKcGtXcKZhJHV17MToyw3lo3bzeNvf8nWv77trwozfVbxdFIzoCJo7LivJszi3KKQrow86s54dnhXbkZPpW52E2Tb+FrJe4YPiXumFmLbYF+RLhYYJEszGIO53xB1GRNYpHWLavRNR3jLTut2/s0pXi7p77RJKZzeuAMDoKpEPxcpk1cQf83cBod3J5oq0Z8LhyVjf6mH3Xs1cSWsMyqBCGKqMnaYzkiNk1ue/vttyPBjBI1WUyTrbrIheBbhEshQJNH3EegVKlSO9hz/zP9E08OaOtUX6FvG0jXCL3/wD3O44cd2HaCNi/db8jyEU5rPHHon7ajsotJuWFgSpWPoTuf6UxPfdSX4hvnRc4xfL7AyiI4FlN4wry3LNPOmwVm+NixY/twGzFNLnDxgq+BsTYy+OYpMypCBFj/spqFzGP8skFAQxshJXFKSiZt4zS6VqKn+TisKUdKNqIcdi786qX5DgpufVso+lfN2mlLHVwTaZb5qBD6mPYcs6ti9TKEF7V656N/3tl10w7xVLNRbnKzJRzW36xMlM7G09cf2sFRk9l6DgYMClWoUKEcH42eWrZsGc7NEDUZ4aThGCRRk/UABtm17FyCbEEDcTo1atQ4w6bJr+t5g49IeY4kbBVC8rCbb8xNI2zE80oOi3Jkt3spBlIvZtiOyt555Ffave6IrTsImatuakDPf3MXXXt7c4J+yiPS7Fw8fNajgYwbJ3GummW/bnW4OXz4cDFNdkAl+Ctk5xL8axwQM2zRosWGJk2a3MG7l9yf1swVzHhhnozQ9oFOUIm8OqYLVa0MtYEjpbJeBbsWpDD2hGBJtm7+HsKRWZ0rqlIJxiOKI0k3bleTmnaqRcc59wsMBJxRLOfNaXdLQ7rpgda2Z7AbAsEUGiHy01KwWfAfJXCE6Ha3cNRklU8PoiZXr149c9q0aVhodc4Xz8Dy3zRkJBMQ8P/PGxOYli6siUBaWlqv6OjoGWrus1kLPPCpmbRrj8ahP+AmiGyUSHfsjLALgUWYNwTB0PXultTt3lYUafefgZJ8PQufGZ+s0oTrh7C77s4WdNODral4jLHFGZKFwckRsc0uczw0f1FbFnb3PNdFMxyvfRqnZBi7c+fOvXxjN5dDXM5xEQHjr4Xx8zgiXPwMeIgPF5aVlTU3IiLiJjUOW/msfujI2Q7WRoGCVYkSUfTd57dRxQoxhiwlHjpH7z32m2kv8EpsidZ3SCdq0r5m3ng4Rlv4wyZa+ssWgm7n3jFdqXU350d0akb3bTlOnz83p1B6HMMJF1AJy7enPurjYKCwZMmSVV27dv2WHz/IZQ+X41zggek/yVcA73LbPATkWMw8LKUnNxB4+umnN/EpyePcNO+7V4UzOu7nAI+HEnLzpLjRjV+bIKOmK4fJH95cTKeOmMf7peR02rBgr+2orHazKlSCjR+iOPFawzbVqVWXulSnRTW60kXuGD045auUosq1ytImTt3sL0LAznbdG2vSENSqVStuy5Ytu3n3cpH5gGepotwX4eKvhfHjOLJz8SPYMpQNgTBW7n8YFRU1SI3H8RMX6eU3l3CVY1KSy5dz6BJ7gptNFznxFXYBrgipjD/9oJdTs+mtyw+yrmWeqy68ugf9y/X38FHZPXxUxgLGG/rihb9o+wqcRvmH7n+xm4MQ3LNnz/6GDRt+wBwkcMHxGKwZIGTEesw/y+K3UUS4+A1qGUhB4MiRIxXi4uJ28/GJD2Kg+A9n6DTeZWsvM3ctzrivUK009eKEZC1551JYOrD1BE0cNr2wj3v8XFkWzLB8U4wMlA5Gjx799VtvvfU3X0P/goQ4MLGDebJrSe8xB/JAUSIgpshFiX6Ijm03TX7T6tNf8tMWvwgW4IQIxN/8b4FX1l84YoN1mb8IVm7wt9HTiBEjesXGxiphYSrwfdije7ct0w8i10WOgAiXIl+C0GRg0aJFkzhsCI5FLEnnT6fYFOz+JAgGb2KRwY8GxgL+JGB0jv1f1FSpUqWKEydO7MJ1StRkMCU5X/y5MH4YS4SLH0CWIRwR6NGjRzrrXkY53rFGDfw5/O0BH+3E5NgTxEqUNDZb9qQPT9rC72ftXMffEBw1uWtkZGQp7gt+T4g9FstFdi+egBvgbXM9rgKcSWEvOBHgqMkzLl26NOz06dPVoIc5efJkBQ50GcPmyrbvJe9sbDrBsmU5oJebxH40URyR163vdTi7wPPxTHRBXbN1WzF2AK2PNL5K2+bX1LY5PUKP4S9S4pF5M17y2dyYZt704cmzcKbs0NMxA+ny5cs38zpjt6Icj8HcDszBckysxzwBOUDbuvVPGKC8C1vWRyAnJibmI54GfrUiOQoyacVzCbjouXPmzLmFqYMCOcQMQua//8Q0W2h9fxByp5w8nESVa+J97Dll8C7iVEKS5w968cRND7Sh0jr/oBQmjje3lLvFTgVrj50LHCovcIFZIIp/QOWBhHyDgByL+QZX6dV9BPArFT4PZ7kgiiV+wSJECF4uAfOCGTRo0FLeZWlSLtZoUJHa3NjA/Zma0HLLsgOF7mXHygSCgPEXVaxemtMKNHMY7rPPPluQkJAA6zC8f3BOp0RNRhY57CTlveSAmvUq5IzTemsWjBwrggQvFVgOoSgJ55VjEv0nntHXmXWt8JP3mZSUlFG7du3MNm3aYHeVR7WbV6FVM3YSzJL9Qcf2nqWOvZvYnCo9oWz25/n2fws51H9uVkxPni1s2/4vdKUq8dqso3z8eaxXr16zOQU2ulWOGfEJrHEsBu2/RE0uLOgB9Jxn39AAYlxYCSoE1C9zfCdxXIu3D3YweOGoC96O6oIXkb5Of402KOhP+dvVp9IOn3ll3rx5B/k4pwXraaCItlE0h4bBi3LvxmNKlU8/oSA/dSSJWl1X16MEY7M+W0Nb/z7oU97UnTe8qgZ1f/gq/Xg5Tz755M+bNm1K1t2AcMGWCoIFO1c4Vfpvi6XnUq5NQUCEiykwSicmIKDsRLAFwJk7XjA4h8dxmbNS0H08hzZKcdaPUo92UEqgKH/nPc95Sc5WqVLlcKdOna7n+3lUi/O7rOdwLYj/5Q86yXqT5DOXbFGQCwrLD3XQgu820PxvN/qDNdsYyOfy2Js3O/jU/PPPP5s5/M8aA0bwQwLrDWdK5H2BkPHPVtCAGakyBwHx0DcHR+nFHASUM3hEiHR29q4+SnHn+6tuDy4L84xmdnxE9mWZMmWuVVduWrKfvnl1gTkouNkLEoPdOqgD1eO00UZ0jMP1z/h4Fe2y54sxauOLuq53taDeA/NsH2xDsNl5etu2bSdxbDEo7dUEIQJdFrZ+sFk+yAU7G9m5qFGy4N/u/KNZcFrCsoURwHcSO+qClLqefHc9aQvoXLbnY53GLVu2XM3tFL2QDe4Pn5pBiEDsb4JjZKO2NagcB6iMiAhjp8UU2rvpGB3lwJf+ppJlS9CY7+5ycPacMmXK/IceeugfHT/YrWK7h50jwsAgHAyMOnBkaVPKCFkXAZf/RNadlnAuCPgUAQTfnMTBNwerR8HLfLwfTZN9OsNCdn73s9dxNORGmqfPnDlztm7duh8lJyerdyMQLNi14DjsMBfsWvCJIzHZtWgQtOZFQb8OrTkr4VoQ8C0COezw+RL7t+AXdx5VZ9NkZIUMVYJpdtubHec/duzYOTrBAoggXKBbgwIfuxVki4PhhuhagE4QkAiXIFhEmYL/EbAH33xDP3JPjlzsTfwvfX9WuVacShG/TE1bt27dNW7cOCQGU5Oya4GuBWd3EC6KAyXuCQUBAiJcgmARZQpFg8D06dMnsRnyv+rRoXNAmuJQIziTIhyOmti67jJbh80zwAICBHoVWOIl2j9hPi56FgOwrFolwsWqKyd8FzkCHHwxIzMz8zk9I136tfB79GE9D/68hq9PrwHtHYacOXPmCo5+jeMuNUGwKD4tMDsW02MH5IKjQoRLcKyjzKKIEODgmzP5B7rm1zn8PHA8Fip0w31XOsQPu3DhwkV2mERCMD1hd4JdCnYt6nA/smvRI2XxaxEuFl9AYb/IEchhZfUzzIUmD3OLznUIXurBTsiQed0dVzhMc9KkSfOOHj2Koy81QYAAJ/ixQLBA3wK9iyjxNTAFx4UIl+BYR5lFESJQvnz57Xw89oWehVsHti/Qg17/jNWu+w7pSJG6OGcHDhw4/N///nerbi5qJT6OyiBcIGQkArLVFt1NfkW4uAmUNBMEXCCQwzlpXmTTZBz15FFcvQrUvodjLhMX/VjqVoPW1alZp1oanhmDnDFjxsxlQwe91Zfa9BhKfJhx43hMdi2WWnX3mRXh4j5W0lIQcIpAXFzcaXasHKtv0P3RtuTv7I96HnxxHR4RTti16Gnp0qXrp06delRXr+xa4CCpKPFheizOknoAg+hahEsQLaZMpWgRYMuoCfzDXePTUZKTaN5wX+uiZcwHo19zWzOqVqe8pue0tLTUgQMHLjYYTq/Exw4PYV9EiW8AVrBUiXAJlpWUeRQ5Aj169Ehn3cuzekauvb15UJkmQ2De/GAb/TTpm2++WbJr1y6Ec1GTYnqMnYoo8R1QC94KES7Bu7YysyJAIDo6+k82TdaER4ZpMqIXBwv1eLSdw1FfYmLiqeHDh6/TzVE5DkNYF0WJj3QGsmsJli+Di3mIcHEBjtwSBAqBAEyTR/BzGn0CFN+NOXKx1ckWP62HNjAl5vTmm2/O5SzQeuW8WomvxA8TJb7VvwRu8i/CxU2gpJkg4C4CbJq8jXcvX+rb93myI0ERbmWCEl+foGz9+vXbJ0yYgJD5alJ2LUoSMHX8MCtDILy7iYC1v+luTlKaCQJ+RiCHw8wjajIi/uZRlVrlqGMv65omt+5Wn+q10CYmy8rKyhw6dOh8A3yhrNfHD5M8LQZABWuVCJdgXVmZV5EiwOmQE1m5b2iaHFu6eJHyVpjBo6IjqefjjiFtpk2b9s/KlSuhR1GTkekxdjD6Y7PCsCLPWAQBES4WWShh03oIrFix4gO9aXJMqWi68f4rLTeZG/q34kyXJTV8n2caNGiQPrsk2iimx4oSHzs4UeJbbtW9Y1iEi3f4ydOCgFMEunbtmsa7l+f1DeAjUrV2OX11wF6Xq1ySruNIz3riPC1/8fGfJqYat1Hih0GgwGESAkbih+nBC4FrES4hsMgyxaJDgE2Tp7Fyf6GaAyj1e3PcMatQH1biF+NjMTXt3r37wGuvvbZDNwflOAzCROKHWWWBfcSnCBcfASvdCgJ2BHLS09NH8d8afUOT9vHUpH3NgAepwZVxhAjPauKjvuyRI0fONWAewgXHX9DBqOOHiSe+AVjBXiXCJdhXWOZX5AjExsZu4t3L13pG+gzuSHCwDFSCyXGfIZ0c2Js/f/7aGTNmQHioSa3Eh9mxkgRM4oc5IBgaFYH7zQ4N/GWWoYFAztmzZ//Lv/gRYj6PKseXpU63Ng1YBDr1aUpxdbXxw1KZBg8evNSAaX38MOxexPTYAKhQqdIepIbKrGWegoCfEahcufIJPh57u1ixYm+oh775oTZ0eNcpyso0ttJNS8mgHB8cKqVdyiDHqPj5nBWPiaJbHr7KAaXJkycv2LdvH3QqalKU+OokYGJ67IBeaFWEhdZ0ZbaCQNEhsHjx4uLXXXfd1rCwsPpFx0XhR+bMksfr1q37OacWUIs7JTAlwukf5rKbyxEuuDaWmIVnQZ60EAJyLGahxRJWrY2A3TR5jEVnkfPKK6/M1QkWTEURLjA9hq4FScAQqFIEi0UX2iy2ZediFpLSjyDgHgJhHDJlQURExPXuNQ+MVqtWrdrSsWPH33XcqAXLQb6HXctxLjg288FhXmBgIVy4h4DsXNzDSVoJAmYhYGiabFbnvuiHdysZrMTXpBGwj6NW4sN6DEnARInvi0WwYJ+i0LfgognL1kaATZM3Xrx48VEOzd/gyJEj5TkXSsWUlJRY9uaPwszYqsx2osAOmBElSpSw1RVE4Ww3zP26HbSM20bjmYL6xX1OXbx348aNGks3rlbrWiQJmDtAhlgbt75cIYaJTFcQ8AcCODWI4RLHpSGXWlzKcMEPPiv8X8J/BRZhUOIjtTM+kW1S/FoYBCGiCAFBEBAEigQB/PJHARXjEsulBBdFuASygMFxGDzxobyHZRgKdjYiWBgEoVwE5FhMvgmCQNEhAIsq/PqHN3tZLhAw2NG4OgrzpdBxp2/FE19JAgZdC3YsCGCpCEv+UyjUERDhEurfAJl/USKAHQAU4PBmP8EFOhO8pKOdMKW8/PHpjiBAN562VZ5xwoJNgGDXgsCUsAzD7gWpi8U6zBliIVpvCeHCCk78klOSSWSwExp+NbkkfgZHfqUNGmXx8/il5TbZFaz4ZQnK5uc1GQbd7ogbcl8N+KM+lwpc8CKBMnSDsz51Y6dxO/gQuCR+Ronnns7tNd7UfA9rXsplB9qbXs3Xg3FCtSleylgj7ADw4sbLGsdkRsLDE+GitHXXIlQRQgUJI8UbH5ZhEIjiLMkgCDkiYPQFdmxVxDX8QoTjmRI24wD/XZ9fmi5/KfEziF2x1gnr+CdO4IJER59yX8uctLNVc19d+WORvQ2OMmrzMzhndov4eQi54Vwe5lLL4CHMZQWXT7n8oJ4bPwtBoFjqjON7Iw2ez6vi9niZKA5sH3P7wer2fL8zX7ucr67/E9yHNretKwbkXmEQwJpBoEDngl2LM11oYYSL+pmCeHOnrXIshh85ECzYeYnDZEHIhuD9gN+58MsQX3i8lBWqw3904aK87FW33P4TfeIlj3IvjzGeX6DPuHj6EdU9/OM/yEUTI8rZs9w3Enf8waWqqg0E2zEu6KsGF7y8r7GXQfx5taqt/Bn8CCjHY4oFVkEzVoRAQe1w35O27rZXBAyEissfee4wKG0EgSJBgF/O13JRKNH+x7cFMcPtrlI99xT/Xc5eKvNney4juJxVtXnUqE++X4ZLir2dMv4evi7wn5bbdOJyyf5sOn+O5wLhqCGua8LlXXtbHDfkEdeVsj+Pj/f0z+qvuU24qv1HBvc7q+4P57/rFlCMdlr6buVaEBAEBAFrIcAvvq/tL8Ot/ImXIQgvbPgEOCW+rxYujxs15DatuWTmdpmz00mbJ+z3IRx62f/Gx7VG7ZU6vg9hlmBvD35vdNUe97hNbS4aT2i+9qVwua8gnuS+ICAICAKFQQBnvQFLeLEyc3fYGfyGP3/ggqMDnE3f7S3jfBS2gftYbu+nEY9X2aBP5UhuFrefyfd32duoj8oMHqOhXFnTfuN5fna+USN1Hbc5yNfdC2on9wUBQUAQCHQEAlq4MHj9uMD2H2e73/PLFxY1SnpVtR7GG5zVOxaNcGFh04w7VpKdQ7iBlCO5O+zCz2FsrgeuT9pvQLfysUMjJxU8R1iQCQkCgoAgYGkEAl24KLuDBfzSxUsapLzkoTfBy99bqqLqQG/irAiw09xmtr0dhAuUmBB6EH5GdAVXKoLqVxEYRhBJnSAgCAQzAgFrLcaCozEDryTwVgQK1mI6Fyi94cuBl79L01xXi8djILaTYpkFc9/DSnu+B9+a++3XU1lAwHGM+BN6lMX8ZzcuGP8L5RnVZzvV32sM7he2qgqP3aaAhz35wQAdT0H9HVcJ9gKGltuCgCAgCAQ4AvzSe5sL6DwXCIE84uuP7fdO8CeEgANxvUuFPt+vyGW6vR98fKYbo6/qXlvdvQdU9xrpB+d7o1X3u+jve3LN/agV+qpu3fqzIGsxdzp5xRN+pa0gIAgIAkDAk1+5fkOM33jYUSm7BhwrXdINPsV+jSOtHm4wBouvn+1lGn9u5meOcultf/YAf76o60c5ktvB4+udMX/jtnAgAxnpftSWbEo7XfdyKQgIAoKAIOBXBPjl31v1k/o6o8H5/k57mz+d3FfvXFTdaf6EefF3XNR6F5gEV+WimCg/56R/xUT6GLfVHC/y9X9Vo7g0WTbqW13H/YgpckEgyX1BQBAIOAQCVeei7Aawo1jmBDXoYeAl3x3CgHcXiHPkjJCeVdF9wBoLscGgX1nLz2mcFu0dYNcEbKC4/95ep//A7gme+vCuv4ULzJQVQlA/hTSCS1UvfwoCgoAgELQIBJxwYUEBK6tedsQRGuUM1xktgKJrwSecAV15r89lIfK5USdO6tRHXVucjB+mehbt1cIF/jMKXcV//OJkHKkWBAQBQSAoEQhEnQsEhVpwwCrMqChRkrEwRnqPQi0YC5KO/GAT+8PAx2hs1ClRktEUnvuVVANCuCjBJv/D99SCSNVM/hQEBAFBIDgRCLidC8OsCIr1/PcTBcAOc+C3uTTlF3gH3p2sKqC9O7cVRT6MCNC/K6dG7LJmc0FEWwjF9zEA8wF9DUyUh3Opz+UuLlNxT0gQEAQEAUHAzwjwC7kdF4WGFTQ8NyzJRQkqiXD1ecT1Lk2RjfrmZ2K5wPQZhFAzBRK3W2Vvv0XdmOuqczlnv3eaP5sX1Bm3KcsFuqQ84mtR6BcEnNwXBASBgEMg0I7FlF0L4of9VBBavEOAma9iLXYXv4g1/jAFPW9w/3auUxKMuSVcuL3S7goeH/oVGzFvMHXGLggKIyQGW873h3BBXDQNcV1pLsi7soOLYh6tb+aLawhTJVq0q89A+574AgvpUxAQBIIRAbx0uSRxAc1xd47cVh2pWPGNgTlxYXYuS+zjn+JPQ+dMPV/cDl7zitnyhwb3EYNM2V2he0RIXsrlBy5TufzDBSbRCv2r7oMrfblzUQ3r8s96+nnJtSAgCAgClkCAX239Va+3PCFREPP8TBQXCANQXgIx/tsj4cLt63PJtvfjICRc8cHPzLE/h/wwyIOuIa5DzpQpXFLt7Yw+DnDlc1z00QhEuOgBlWtBQBAIeAQCxoqJX6oVGS3lSOowlOLuosfPwtcEx005/Bx8Y7BzQbrY6vY+TnH9BVf9cXtYn0FBDyqwvbovfrY8XyvWY0d4LFscMj3ZBQfipTXkgvlijse5wHhhKL/TQgAAIABJREFUOz/nkNWPn8GRVG0uoPPcRu1DY6/WfvAzde01ydweQTfziO9B+MUZPui80qP1cN6N3BEEBIFgQIDfI3i33soF7zKkut7IZSa/b/KC/waMcAkGwGUOgoAgIAgEMwL2H7sv8Rzhi4gI8dATQ4XQgUtfLi+ygDGMmhLMuMjcBAFBQBAQBLxAgIXLJ1zGcUG6eBz31+JiM1LiTxgFzefidSJHL1iURwUBQUAQEASshAALjVu52Pz1+PN9Lol2YbKNPxdzqcAFOuJNXKpaaW7CqyAgCAgCgkARIcACYwGX2hiePyFcfrX/HcZ/7+bylP36Ef57jPgvFNFCybCCgCAgCFgMgfKsTzmo4rkYCxGEvYK+BQZKyr35/HfHQAz/YjG8hV1BQBAQBIIbARYiUNqn6WbZnq8hSFpweUylyE/i69IiXALgO8ELBzPmmlxqccEvAMQqg2k0FhMBMFGQJmAXL6Cr1ALcREgQEASCHYF1bQZEnT9P8eGR4TXDKZtdC8IQCqs4O2NEhoXTxTDKzsjJDj8ZEZl9iC5fTrhm15cuXTEKwovfO3AUR0QP/jNMCVO/nP+Gk/hX/Pzj/PkNXyO6Sh0uRy1jisyMI3cKfEQ8pVR+YLgKEE+fN709z6UBd4owL9dwQQ77eA8GOcVtN3OBbwzC/K/kuV129TyP14rvD3LVJoDubeD5aOLEgTeeAyJRv+UBnxe4n5FG7bmvZ7ge9vnu0ufc1zp3G3vajvmBzwDMO90l+C+NMmrMfT3P9fjnLioyXD8jZpY1HPAGv6XwY8pjCqOcxdfu/tzUYLDLGg28mv2oH/CYGfsD2XFxT3Zd8gperqbT7PpDo0tEZHQNz8npSWE57ViYtORB4MvnDkEY7OHC3+GchZFZETOv3vfJSXceVLfh7xaEyA/83YNFGIL01uS/IVxK8d/buYzn6//j67G4toRwYWaxw0Jyr8JaIFzHk16mBsrff/Mc8HJ8iMtjXJqaOD6EDYTMFzzHf4z65bFhfz7N6F4A1v2GL6yeL54DcvvgO+AuwRFWcYrVPMN9Qbi8525H3G4K9/WQB+09asr8QFC848FDXzI/jxq1574QGRzHFUVFSEt+pzuDL200YB+3Uxx+3XlE3eZobEmqc9X6z9x2ti5oAObnL25zU0HtnN1PuRxdvMfeiXAoNI2WNh5wBUcnfJI7vIeL4mTubf9w1l7M35UPT+5Omt6PfnH541QZjNsjwvvPXBAtHj+My/Baf4f7fO86ex0wnIS/raLQx4IXVrBg7tj1FAkx6Ih0jF/cR7iM52KmYMGcoFBDwM+/8WLh0o+LHHe6Xu3v+bYnvzCRk8fboKiuOEK6Bk9oiieNg7Rt9ZQLYf8xa26LGw5ozH3daFZ/3vazvPHjDZc0GjCNBQuirSP1iFmCBazhvd+NBcPvVRqV28E7SPz4LJC4/V5u9DKXeVwOKYIFD/LfS/kDcRE/53IvX2dZRbgUequKiTNh6+bLl4N9GO0Hj4mXBn6dPcfFH+PjFyuiSd9gyJBU2hDgLz70VvgHcZew7UeoC9OJvyNXcKdQiLpLB7jhcncbB3M7PvofYtb8wsMJfRX5Sc7PdGfEskYDXszOCdvGzLj10vcSg4acynAajzlncbPBBf6A5/+dGTzeAC7v8nd3GZdPuXzFZQPXdedyE7fZD54CXrgw01B29/ESwNIXLlzox33gjBIFCnOffZGYZzgSwQYc4REQd8yvdPnyZZ/NzdcTYd7xnVTWSfmMSk1N9WhOjD/a6/tRr/s3nsyF+cIPHPX3J8KT51209WjXkpGR8T3/82IerubmYjjf3nK2fjyqR+vnDpesSLjm19r34weV8j+NHbvH48yvO6AM7xC8Pt34/uwar9ZkWf2HK1VtVG4Jz+t/PA+3orK7g5M7bXjMW8KzsrYsbjywS0Ht+fu3kcvN3A7C7ysu/8flaq57nAuO6W1kheOTu5jP4grDhf1MS0sbzM/iVx8IVli7uMACi3E1j/ilhqCQkO6tzevVs54OHTqEXRIww9GPJ8c/ng3kg9bHjx9H7hvYzSuE8+Gza9euzbj22mvdHjErKwvfbXU/WGesO7buF7kg/lESF/x4KZDCw8Nv6s40Z86cc9wYmOKY8zgXwyClBXbIDfi7AkGKs3R3KefJJ59ELCf1vPAs5oY57Xa3I1+1c7Z+PB7+9y6ZPW5WeObL3Cey0eJ7gqCuBz0dJzqKHmYAYZ3pFc1N3saKdk3mWnw3sF6w9nT5nlna6LE6ORQOfQWMfYqKKoXnZM/l47j7u+z67JeCmGBBcpbbQMdnSFYQLt4eidkmXrFixTbt2rXrumbNGggUvGTwRccniinELwuYEy/jUtuUDgvZydSpU/FrDvM8xCWRf/VHlCjhkKOskL379rFz587hZa8WzHiRH2SBqfwwcIsBu3DRC3gIhgQuF/kfI43XC8pJbPELJG4f0a9fv/tZuPzNjcETzsCBMRTKLl8cLjq/ju/hO+MWAYPJkydX5cYoagI/e7nYjiOKkpytH/MEQZzKpbBYGU6rSlSpG+sVK79yX8ZZmNqe5oI1gVLdPSU173T4H9YUS8q07KwreVz1jzm8Y/B9A29O572syYBqOdm0iNvU5lLUFM1bvx/nN3gk+8Y9X/7uiu+CGMUvp4Al/ueHFO9oBoP8cggfOnQoTJlxfl6GS20ueON6vI024od5hWIdDkXot0jp7NmzsJKCqSKsOrotWbLE7RdYkTLOg9uFAtZIKfhFWSI9Pd2j76r9WEzfTyz3heMsZc2neDLf66+/Hr9Mle9PPP+N75FHfOnG6+/J+H/88cc2+/jqeeFvHMfgV3uhd1Ge8OGqbWZmJo5z9LhjF+0NTk6HDKewyHsqtMSWFmNW4QKzbuDhFi1vMKAHN/TELN1pvzlkM8lVF3zfXP6A/6vF/bEsWGZzu9pOO/b/jYiosMhvP6t9G3At9PGvy4n7f04OI2LXYsrLHz3fdNNNrfgD5rr4B8DxFX59Ysvq1q8c9GFE9uMNWCA1Mrrvbl0S06ZNm/YeOHDgzMmTJy+hREZGhleuXLlEhQoVYuLi4ko3bty4Zo0aNarxMY3Tf9bs7Gzcwxcbx2Nltm7dGs8nOu6yEQjt1GuOvwv7HdA/p79eyX3D/t+to4j4+PgaXbt2rbh48WL8QsZLBDsInDF7fNzD3xm8cB1MrrnOkFjoZr733ns4YtHPAcdBOBKDkYKpZrCGjLhXadb6uTVax9habYuFR67IyM6CUKnD5SAXt3ZJfDA5zK1B3Guk/67q18qhl+JpJcbziuK9VChKupx2akdq4q7ErJTzpzNTLmTlXM4uHxUbWzkypnTj4pXqVY0qVTOMTVg87ZyfKFEzqux3rUtWu2nDxePYEXv83QpY4WJ/Yd/vKSiu2vNLutLdd99dnY+NcF7u1ctBN87zfH2jq7Gd3eNfepn8slr/wQcfbJg9e/ZJZ+3U9VWqVCnG84jv379/q9atWzeJYNI9p3zJ8Rm9YMGCCzfeeOOkRo0aJcbExGTyiyp8//79FVjo1Ocjsxj7r3ynQ/ft27d9KSanDXQ3Fi5cuObYsWMQ2h7Tzp078eL2C/Fulqee8w0P9pq7Aw4ePPgKXq8l3B5KdewIYQ3o1otMN0YvvsbOxy3auHHjziNHjhgd4Sr6Hxy9QNB4RLyrXXf48GHonkwhf66fwnDJiGJl7i7fotE3pzdA+ELg4xQBc3K5kytq8+MlDR/vzoLFrWNZ/eIkpCft+/T06nl/XzyUqL+nul5aP7p8qUcrtm3foWR8B+zyXLR1uBUTHlXj8fLt3x908Q/4YeFYOoWL0+M9fQceDaZ/2MfXOI+uZfYYjz32WEsWLke5X7wccLQBqVyYl4ONNX454ZfSf20XHtKePXsOPvTQ/7d3JmBWVVe+r1sjBVjMAgJCISAgg6IgOIFxiC9Kou0YRDDaaifql/iSr9PpTzvRvK/tpzG+1thBjQOTiqhRMU4oQyEIMo8CMhXzYDFVMRRU1X3/X1mnvJza55x97r1VxXDX9y2oe86eztprr2mvs8+d782aNYu9AGvYsWPHESmjNWDPnj0bP/zww/2kAAZqX8WU7hyZPHlykZDsNd6i5VmZ97OEhM3YQPf0ghiUFEWvMMrlpZdeWvz6669D4xMBxmqQjwbRwHkQeS595DROl3cIDRFkKAgEWWys3ea5h9sUcsqMHz9+sUd5BOhGId6T9cKPaXep9nEKPdo+YS5fc1rXC6VcSNYg1N1JuFXoux9WmX4creEJ1skzTx3yh8zItq1Phe1M32Evf2vvsg+e2/nlQpu6a0p3F/9uyyefDTmt8/J/bTN4WKP0LGsjkfbl/Vx5UeOOP55VUvixfpIwgpdsxWe+QsVm8LVYZqRt2xK21elvQXUuuuiiXo0bN8bSjxUOiSjZJ9VW6N1yWYzz+/TpMyasYnE/34oVK0qGDRtW0Lt377/Iop6HKe4uk/rtTQF5LwjW6d4ljr2j8GRzeYztdRWvEGVOeDVUNqOmiPR06zjl/v37i//6179iBLmBcG6REG8vaW+quzs5EX63y27SSUKQPRdC3hil0Njt0Vc/SrLSj+OlTcbWrXeqbo8w9bWnEx23Z9G7tooltu1pxeu2Pbbts7GlFWWhQrjpSmQZ2aIfJy5cICR8TLgd3g+E41K5aPHxADcGjr6qwOOPP/6J3mNBowYC1v2vfvUrNvAc4YCgCCUcnE40TvZYbgjs1FVg9uzZi6+44ooPlB5tE8agDIKDmCdhETwPkL+5huVavnbt2hJtOE+69dZbX5TCIWMmBfYUIDRmDSNHjuxdVRhBRmgMJWO14Krq3aL/8ZytYPr06Uv0fouJV+CLTUJra9KqwxO00K3NepNwwTyQBMK8eBp9pB9XlauXp9VbWKH3eqYWr5v60q65Sy0GjNGBXDhGXswu2bTpmZ0zX9P1UAZot5yWvbo0aJGvemRfEu2x4t3jUrlo8CgWGCQQUCpYdRLYhHys4OabbyaTCkA4QCxrbezq4Jf6HYqGCjFt1+b6JIVV/CaYewgOYpx4Zbij84WzhNOEWNozhV8JySAiLEJo5tDEiRMLP/nkE+Kwfu3rdmUSAwyIgvJF9iaokAA4z+Pbj884jiqxIdEx+A2fkCG0toJBgwb10t4VVjFIfB8rOYz3GypLbNSoUaaQGPRAeLB/GHdY1/DAtEuIL965MtXzDU8ZxlDj0uYj+9bXuOi60Cu3TZ822aeh6BF+CEMSdmp4L9G0P+j8x8rzunzBpk/fBjxuckCmbjkGikepYy9r477oye3TWfN+wJrGM2HvlhDhXGGB0JEXCz/Yt2rqysPfIjesAe/lp8374rnA6yQf8H8gvwcWsB5BcguOtG1OSmUFVp1i0su0aX2hTb1evXp11eZ2o1WrVmHxsecAsdj3YGFYgbwWFNOtVoW/LxT99a9/PUlJYX7xee4xLizSDUKUCwzDdZjHsWBRaiCLh8WElcaz4ImBKEyum5QfbaCMUMiBVre8PYRXIsDYNwh56YpnCKMoGGtRhw4drOcm7EClPEs0n2+r3gibulIsDR944IEuTzzxxCqVh+7thFuFgaGpqj06hIsVaLN9q0eiB3TEiIBv/fjJqp+YQrSFsUKoLexcmfpi/mgLRRhm3o9pa+ORfVuzIhlZrbMaw9tG0FnzWXe26Hfef22rFMIofEKW0OeYUNCMrlvZSO9ibKTqosJHh2Yf2LTkpuwmKKmkQkWk4saw5tqbu5d8erCijPkwgWNobNPNlUL4AhkCP0J/7juyosGk4hXruzW4dKo2+Mmus4I+uW0I4aGooCl/0z4REs85Pe6UixYfzDPY6olVSEql0k0cO3bs5qeffnpvs2bNmgbV1YZshoR8r3vvvXeOyhIS6yBEmGPJexLL1e4V+g0DW8PXX3+9riqZwFSHfukfIcUzbREWCxGqzpjcY4sNxcA8pKOuFzYT4pGdJWSM7nqOcqEfk/LR5e+hUaNGoeK0x1T+7gcCi3GtFcY+j6Go8dJRZcVhANQmjFHjVsqFQcj77V2lXFhD8M8KIQsO2voBXkvsvPmVTZNiWeRRAF5BCeBxuefXo4rVZWeu1qh0QgohpjeEXMLGweTib+YMb36ep3Khv0sadeqfmTZjdllahWdacjQ98mAQyRYe3LbgYPRoMpV2NTnSo2k/DjNhByqOFk/YveQbj9mjKeQEhiKKBUUOrR2lElsNvtv/we6Vu3/V8uKP0iMZ18fe9Pv79MzGbZV5lqcEAfpj7wXeQy7Ah0YIFCzGWrV7caSar+HKmrqUB7APpcI9wkxffPEFBLYChaZw7wCEAwxLFkUYelxdVd/6P2VReR2VwITBEDAQVhcWMUyCx+AwiYkfueYgVg3CAEutUEgY7XPhEiEeg3uh8BthCGP6okJSXhaTqloBz8Cz7K9C3/4M4zkkoyFIaFsNxKfQVN1jwVjBueee213vGzkvB6LMWwrxZoPgtqACzn2d01X+1FNPLTOUhxbMHYYIc55MgJ9okzlivsLOlam8w8cJjXNs0cIVByuOMCZPOC0jp9mtzfsg/FjXbYUYJdXzwmnDWjJBa7di3O4FhJSSDtPP+kUHERijzxqWHty2VMrSxP/MFcYFa5zQKZ4LAt/L43RkxdGMtIzR1gP4rmDkstPyz9SfKCgyJKExWxeehlIYYRpyLHEXH2Fbc+bMmcti9y7GjBljWojG5ngR8dprrz29ijgoljZCazdRZQcYG/a4yN4QqcMet7Hs1gtRCHhQMIiJmTyqH3MZBkJxsMhpC++sQIhX41YwVHQYzu9/yiUKfu0H3Uu078D6Co1B73GBBasKSOFmPvTQQ4QHWFyO90uIzHOxySs/X/fPse1D7yGtVrq6yWtkHlEsCNp4+cRvGEHzEfa+X1/W93S8Svmcks0Lgipck9eNtck8MB+dhNV7qhVpETbSPeeItteUFq1aemgHRlrSIZJZ3i9so18c2MieqwkwSLmHUV0kDAzLOo0cqsj5SH97eh2mzrrmtCIkBu1Q3B2FREU8o1/HlXLR4hukwcqysIOXX375GGXy1ltvbdu1axdEtoKf//zneC8QK1tIaMNXODiNapzQLRSTrFmzZpNeXmRRugErY4eQ8AeWR6gJdzcW85u+EELsrRQK8YSsmc+n3ZP51pgwD3fdddf1qSrveL++lpzKDg/TvpIzTBv5NOGExFA8Jp6y7kae0U1FRUW/dFBHB/2bXqx9X0bbcvH52pD4z9Ydx1lw9O4F88r1rodf9TNzmnbu37C947FgbWNpZ1SlHwcar5P2fo1B5quA/Pr3uyd6OhETv2Kx96JzD25CPrgBGhCRYOMemWcyHN11qn9XfdSMMJo1tMs+rXVVYWiDwkZmembaHlfKRQMdafukUiLfvvPOOwjjY0ChMa8F6S6aNnjw4D4NGjSABo4LzX6NTUgOdxtFZA061sUr5EIIYoUQSzRZiiV2XAgflEoo5rN+sJOooLwXwpEIFivo2rVrp/PPP5+MJBYb3i+LD0OlBkiowFfWITEJ+IPPPPOMKc6OUMGqJtEjYX7Jy8s7rXnz5s0cVPixudZEO9EiX+13Domsn1qF9aW7S1aW7gwKf0eGtTjX8V6YH6zs3JzMtLv0P/PkCbvLDu18f++KDZ4FEryhY1UYizUUl5fu236k2JRQw9zDH2SGxbW2xbTWspIBN8nIRUkD8DuhRjwZz4Sg40a5aPGhAW/5buzB/yr33xgCe+WVVxYG1/6uhF6mbKzjPIh/OpoYYnlq4ph2QzEI9XRkPGEpNzheC+ErGCghK9TdeOp3XBR41baWBHBEh6H2Vnn4x/F+vRbblSpD6NUKZCQtLSkpMVnoCBL4hbDnKckv7+xeHmgA9M5t3bdVZiMMQOYlv3labhMR6xdBxJ9esm5ObcQZnX4l59oHjSH2/p6yQ6ZIDENk/guFcXuvOpxgdZixNErPRlE7gLHEPiPK2hgaO26Uiwb4YyEbo1agzXGT9VIxadKkNUpNxlW0Ap3R1VcFHU2MC10dn/VpAJc7FGzZssUUOydmul64T2gSJKH6SBVOCgUmqBXmxQp0GCrKBWCBYZxg3ZnW1e1V5az+e+GFFwiTugFlghGyWRi3UHE3eqL9/qx4zZYdZSUoWE9Q2nL2nS37EYJiLlo81O7im7XKu3hW0I0j0fLDrxTNZ3O89iA9gkC2hsPRMlPCBgYGUZuE5IZe5KS+NWRF0nN0QKjD245B1UINGBNZTIvAurMkFxxp254E9baPP/6YsIAbKokui+9t9w2v3+edd153nXaLt4ImRml4EiumDazTUKCXJ91MgqBAQGwRmtzeUO2nCieHAnJGCDlNsm2tbdu2bYYOHUo4zPF+8U6O8X5lrcIvN9i2qeOMdrJ/aCiPAQLfE2s/7owRJa3gJWCcOchzI3igTVJhyv41XwY1eFnjzgMy0ypPD8/pkdM6UL4sOLB1/r6yw7W7LxkNF06XcjGFPpl7+AOZErf3GkmL+mbemejbJF1nG3wPyEwcAuMcHxfKRYuPBXm16WFM16ZMmWLyWigKY2zWi2dv6H8ropP185vf/OYclWcBWGX9qFyo/RYGtn37drc1DIMgJEgprU1PnO5TEI4Co8MUv+eee9jYj/V+3aGx63WfzX4rkOHkFQuHvzcKST897nhmxowZPTSua2Pwh/qbazahZivaOIXGFC1YejRa7pvRlZeR0/yfmp3T5YKG7du0ymrEHPlBraUfuzoNk5Gappc5TcoFIxrZYbrn94zH3ItWhFcuDTOy3coFT924z3hcKBcNbpjQGLczUCqq415M+y0sNjTxTr2DsFL/zzXUNV5S1g+hMYAxdBAGZf2E3kDTxqn7+VAuxFMTYpDvhp36N8kU+FjtmfbIjN0oMaR3dnY2a4k5xothYzt2vocbKxouytCKPvvss0tNt3QNT9exWA1F6veSMs3w+tnDdDBff5OuagybJDJa3lZfXfrtR0FtXNu0+4BhLfpeqHK+3tPa0qLVtZV+fMwYo+E8Tp064JbRyDkiHWBCBoYaDqXoeI6D5UdiPTvGhqzEg6kB7oHXKFBHF0bY9qMPaW3+8ssvSa91AwKfjCvHEyB2bgX5+flnXnnllcRCoQebVggIozauatC0f+LbV7t27dzWG4zBczBZVl6Wbwepm0mjgEJj8NLrtg3KcMi76667Oqo8AgyvtjoxRLridP2+yrYtneKwdv78+aZwhcPfCcXZbccRTzm984mQQZHEoiN4fIV7PP298u18lIuvcdYxu2mXvrltzwtqf9LelSQJJH2MNfqNVBoI1pCdnuFWAMgNPFeeOyG5EU1Pj92gtxlTVAkGsfR2+J05rkG7elcuWnxsujmeQ+AD6sNXJq+Fejx07Ebnm/ptrdn1zouT9cNk4r24QxuxYzMtft+xt2nTxh1KcyyQ4y527vsgp87N0WEedfjw4U7YBY/lTKGTGHKb/nZ7rZ5NK73etJFPefh7oxDBkpBQ8ew8OTcQMrGYnFYNrcw9sHm3wkbvG25VX+IrjJw55ldmT/mhne/tXb7eXUZnb1nLD3ddn9/MnzU0iGS6jVzmnhB7wmPTp/IIaVnD0WjFEZ0U4OY9aGvUI9ZMbz2C8AVH2laRIqr4y1/+ssJQHgGNF1D9oqCsz80qP1PXLjWUr3FJH4Hqq+2XaVXfcG+nAhDey0pkkYcCHZRJqGSTqxICI2EmCTWQVGErCoh/Fot/2PuwMnwuuOCCnnpH5MM9e/aw+AgPEQ4iLm6dJVZaWnr4z3/+M+/auAEegRd3CN17d+6yoX7r1Ij3ddKFdQjQr/Hly5eHNrr82rO5t7l83/Nnpbe4yaasV5npxeu/Mi1CKSbTZa9mrK5L6252S2e/io3Tc0x7dUmJdlRE0tqGOUCTwzxdY3WMCPRIDc+lXpWLFi/9Y9lZAV9uXLJkCfndbiBksEVISCx27tjYt1IuHHh59913d3z++eexYLA6CW3sFJosjcKqfmoQVNeNMGDAALyh2Fg642TcYXjN2HbqYq1RYIxafsqm9RwB3wn6/e9/T7IJIdD2+vonXnB/m/qUmTNnznIpJ1O2EtcwTOD9pPLLsmXLinQSAOHkExLuWvf2vOln3/OVZNuAeB6A9OOXi+aZEiiiGZGIaS7i6eb7OpHopjTlANtC88yGrZTxpjhttcfgyI2EFV8kGpHhZM9Ou8pLyFR0Aw+D51LjoYzujLt2Lf7+X2qbTDErWLx48cZLLrmkmRvldeT99re/jegI/TZSWPnCzqAaXSC0pt4dd9xBiA4i4YrGhjaOGZ+sWjQ4SsgaevTogXJxQ40JcRdI/a5XCoxX79bJGzfccENsaKyDvg56h+pbz/Grr75qEnIQAG8F5QLfWfNzvVKuDjvXcTDPxdvdIp1+7JF+XN4wPRtvMakQ9sVF3i3pmduaqEcswFPWfOX9ANGgDLpjqm47UoKxbQJ4sgZf1qvnogGNMI3U65qOOR8Cetz/ncd168v9+/fv0apVqw91tAyEYiOW0AbpjiYLhg1AFJgVaEO/tbyXJl999ZXDsDAH8cokMInVEFKFQlJARsQOGSlkjl1nU/Wcc87poiNhGsrDPqDPOjQVWIdrdLbX7tGjR7vDpnRLyJdwLyE2Ex/aDO2kLlN4pOzNztnZT2glkYhjDXw2WCcte2WVluoNfy9hat2Hu2B6WsW8CvMWhbto9e/+jdu3X3JoG3IIQF4kLLe/OPvnZ5enlZPEZA3rjxQRlnWD40nVUC715rlo0SK4h7pHWp+/lU6ao++89NAYmEA24NtX/W9SAF+EGasEVfrDDz/sdt3xkOptDsKM/xQuO9r22flOkE5KrnxnasSIEV0UKTN5q8bmPv/888UeXydFobDH52RBGusn8SJCgr1AspoICSeCtOHsD9QQPska8882vFqqSNMLYdtbX7pntYQ2StsNKPR9ejdLAkg2AAATaElEQVTGEeju+3H/bp6xj9C4e+/Ct72LG50JT8UCyiUhuaEPlg3z7bTmzeiMksJC12XmFFoZQ3QJDbBm/6Gu3KrS7jS7UA3URuHrr7/e2cBlAhEOXu+8vOtFVK9x6UuZ/Vq3bu1kf0B79nYStkK8+ktdTwoFeFvfWsjoO0GVoQaFWPuF6D2qjfUlhvIsXoQ7+4mhBJKhLdtLKAMyMqcIP00QP1N9EhR4k7xWITOtbJQ6COXZTdq3Uns1xsgBodANTTNyQ6UN2zzgOcsnorihizXk5zTvos83O9mmyA329Izvltg0KqbSy/nR223KOmV2lBVv/frQTneYEP50MtdqGA/1qVxGhnm4uirbrVu3fGX+kCkGbZoJWwnd6YBKcIywCTorzLh02myuDta8vKoOzEH7tG3yjMI0nSpbSxTQPLN4SAyxgk6dOrWXEdFy4MCBvawqqNDatWsLZ82aZVJgCDkyuciExEKsC6Afwh9rhauFKId4kTaqMzhrc/CXrHp5q1Jr37LtQ9+k3/XunmXrDOWxwvESN+jDY0nNzPu+r8h7hn49LyklOvMXrQYOrCqArMDgjTukXtDtvjukCc7y7NBwQ3tTpixdaEWSiXFfsl6Ui0Ji3TWgCw3PUO+XJEwiCm1gfTKJeFZs7GM1mBRA6I3Ea665ZqDa76L2UC6krNZQXLqWEIi+jpWTUDupytUUGBOCFhEdOvmThgLbOu+9957XRj5W7kYhFnQNy9C2/ZDl6AdhgWBNBtaVUkyrSE9/1vZZpxWvI/3YRFOeHU9xt96PMYZ7bPvwKnfkaKUSRIFZwyWNO17UK7c1xihyCM+FqEdo72V2lwfz0iLR/7LuWAUr9P2cv+9dgTfrBuhD+rnRY6wX5aLBjHCP8nj6LcszNjTWTmPLE5poBZO445C+j4Lyevzxx2+6/fbbUVowC15SUkJjUiq9hFPV3mDfQaRuhqKApmy2KmC9W4G8F8KpVnD06NEjf/rTn7ysQhYunkstWdCBQzQJ38BK9VVgyMrnv1Tf84L615lkh18tWuCl0AnhrROWyGOolee/at0LCi9FxwWNM/Z+Rlp61r+3vfz6vPQGGKMoFfas8V6s4c20mzMOZxx+SRXaWldSwWWHty82hMRoAsMBj9vZVzumWZPADNNv6LISfvQ5PHTFOqygjLGWw4YNa68uHReUyaixPyShg5XzcNihaaO3gb6iOfKxxx67QHU7Cv1OAwhsXjRtJfx/KrhQOCSwQqpAPBQI471Yt6+jXlZu27bNpDwcC5qwQ61Y0NaDPJEKRiOB3suCg1sX7Sk7iFfoBoQlGWKEBY3WuLtC/L+jT6iuad49m2yXldfxmY7X3dIwPRNZdIbQWm5E0/6Q3ubsZi/qxVDrDEYGIrlS8eKueTM8BgWPkhBhoqXRGvdoJ2mXf6CWrC27pPUasiG9UIn3gnLBUsDLcI7zcLfEuxChMsdoQJlp2Y888shwfSf9P/XFQd6vCe3iauIHCBF6m4S/FCbFA3I/YOp3JQXGCpMu5MePH7/Ig751EhJTunSOPK1cBzt37pyrc/by3n777abirWZxYtJDvR40qnH5QEX2BF30TCEm/Xj8nkVs5JsAYb9eWOsKffCqv6mfYEXoHmR+dvOu4/Jvu39ok+6DdI+oR6DcKOhyX8+Cs7fOkBv2M3d7Qb/nHdwyNyYNOra447WwH4iSqQH1IYxG1hiFzwUd471w7969ZMwkDFdccUU/21j4oEGDeuk8wk/279+Pa8yLnrzIBCGPsWjkvWj9Re/U9flCJjsU9OrV6wK9HzHl3nvvLcjKypqkdNYP1cCaKq+oui31gQtMiO5i4SXCwULSplNQBxTQfGzSHExVV1ckq7t9glGjRiHM3MDCZSO81jfDn3zyyWFCd/+J/r5DDYQK+yTaoVO/6tvwzvsuGISsFc4NDLLyoTnre7Ow1rPbGG9FZsaj6UfLrpcJyx6sNbTIbNj6120u/d93trxgUGZ6ZGyjspy/X7n+b3hb1TC5871NcrIiV0mZ3iS8QTdCK3ySHh7bOuUzj4GhULYJPfcD61S5aHGepsHwoFagj36VyIqapC9LJsVi/PTTT7O1nzLApvNcgTbeuz366KPEw9kgby8k/l3DXZbgWatnu1v3JgpNG/++Xap+ukJlQ1QIrDxuRO0hWHYJUSqnC9n3iQcIQzrzbHRf42n0FK0zWs+dNOUybdq0JTrLDuPFDfAY3ihGlem+u3zqt5kCzv5JJ932SspxaiIs2T/VfkjyPVTT8C5f/j8lBd3+5fZoWsUM3Q8l/DmQs2Vmw4tU7yLV/Ov0s+/lWbeJWY5IACGrGkmpmLq1uqZTD8qf3vHFO/srjB9Po2H6QxF7nhpR13suxPuwJqxA6ZnLk6VY6PC1114zZTx4juXGG290NvYR8ITGSAE00kwK4m29BPegZ2Phb7RUFTwTrJp4FAtKjqwS9otQqIQia+wb6VoK7CnwjooSMkkKPPfcc6ZNZRYuC9Z34SZlACd/I84eCkYahpWXtMV4RZFvEHpa4rVBrstWj/pKsY+RajtRA5q1nq9Ff7b+t5axHs9UodDhu8qowzMxAYqYjDrCjzWMbaeCUVCaWkvStRFh2hk3blwoZRDU9pgxYzYpxIbrawUKV3Xt2bOno1DIzkDge2ZoZGRkPCdl+G8q48XEVv0mWkiHHzJG0pxRjpcLCQsQsqvr+U70UY6r+jIgEEBvJ2NQGzdu3KyDLfFO3YBAJMThGct2V0j99qUAinqD0E9pICxR5mxO83edwmWrX3yjPK3iIXWaqIJJeNzsSU3Ys/j9l3bNXerRmGP8fKP7ZDN6jrnOhI3CPJ00kMEeA65xWQJyjzY7mXA38HAwAJZIKJRnUSpvyPQmtLuPyt/a/0jXcTAIZscLwPr3da8V3npCn1m+Sx9OqrcQ1Lvvvov18kMh7xIxZiyZOptr9XUyw5hkPNw//vEPk9dC085G/gkbEhP/Y5BhjDnIfiWWdeiQcRJojWVNuAuFjTDE83QjinxN1fV6MQx/sOpvz+wvK/2ZhLunJ5AEWvg2Uabvtby2e9Hf/2fnnEU+BRnfBuFWoa+Mq8s9F7wWa+aaPn36soCzlmAUrLxQMGXKlJIf/ehHl9lW0kuPWP9fCqEVsUz2jWBOr76jZ5555jiFPLYqrDZKx73k2/aVrHKrV6/uqracfHhoXufWWLKe5ThsZ5rGtF4Y97zK8Ch/6qmnlhueDSsQ3mLh1smmsmEMCV+S4jxfjcQKSYQQRt2qengulAXKY6owR2iSQazlPUJfYan7tQpD144e98f212w8t8Hpr+ZlNOhYq525Gt9bfujb/7u9YOKsksJjEgNcxaATIUZ4F5p6ei3UqxNrVl4LE3qHa6C+P/UeiCkkBqOgVOYLZwpnhUUt6rHaRMWls4IzzjijzU9+8hOyxXgGFIvxnRdXY2X333//DIXVbp0wYcLEgwKrzpJQaMOGDZvknREKQBkyZtNiSkJPp2YTZAfqyccl8vT6JtEqHfli4gmMABQLCsZ34SbSf23XVYYlngrrxEHWD95MYNpsLY0NoUgIEtqyV+BG9hY8N6ZraUymZise2fzxzAcL379+Tsmm9/WyZ60rO7yVguL1BSM2THw+QLHA9/Al4TLoGOhh1Yly0UAuErIxbQXbt2/fMWnSJJMGdRYf2hPNSWZHaFS06zWrgVQVuu+++/BeENJYPoSZgtIaqXlYx6ivvO22257Wvs0jr7/++mRF+hhz0kEeXrlexlumk3hfzM/P/1tBQQFWWEqxJJ3S1Q3yzkvc4ZM33njjpA2JQSEZk8gVFImD/K5vI4f5QmGbMO655HmTDEc3HN27+l+3fPTH+ze9/x+zDhQWHI6WJeVVDPc4lx3asfC+wneefWTr5Cke37RxqkCfEiEGP+FDv/2r6m7qKiw20v1gfr8VujJ5LVRBk5OiycPFbdlJubyu+r/3G0PsvUsvvbS3Dp2cfPjwYeiFNcbmOIrCL9zEhMAUXxcWFmbojf9SfUa54IEHHug2dOjQ7v369eumF9hoJy5Q4sARfUVwjTaFV+osq2/WrVuH5QXU9yKO63lOpEryXr6RACVUitEUCg4I9KluFqgbnNAMhlOgVeiunPp9UlGAtbx61aFdWb/b/EmxPlo29Zbmvbr3b9jh7LMaNO+aG8lKNBusklhZkYzsDaV7URp+gJxFjuGxgNap2vUpiOi7lfBHwnZCrBy/8fCQLLwPhbi1XnseuhUK8EbY+CZOTNjLbww0zMRz1tRCIW5iEGC10W43IR4Qz0w2V4TTl6+++uq2ffv2ba2PiTVt2bJlXqNGjXL5ZK4yz6gXVUTtsLCU/7VRWqQ3+nfMnj17p77/8a2u2dIAZTxVSKzUUUL6M27Ac7tGyN6OVxw7tnGYc7JwpZC3oJMBDv/8WI2h8IO8cJQ92UB/FxIGids4cQ0eg+Ms4Q+EZBMGjcNVvfondJkn5O1x+CpZ1jRzdZWwu9BmrqoHlMQ/2D8ijM2a8bPCEZrXCqFn5RrxGQOGJh4goXEEXrLo5dNlZaiZdTxE2EIYNNcI7reEGMRh+Y22CSXS33lCJ1M1wgGW/Ru1b9sxu2mrZhm5eU0yG+RlRzKzpSygWVpeek5eg/RM6gbC3AOb5/xm84cfeRREvsCLGPsollDZdHXluZjGTt/OBjmE9GMk6uMloFSYsLATZerfuUa7m4W8U8KEBI2DCTxTyOYkYwliasbKBK0Qsl+EguG5G86bN2+vkIWB0K1NYAxB46zN/k/mtuEfQriEItlrCBKKJlowNyh9+PB4iP2bxpi6VrcUYM0iX5ANKOQ+QozwRgpn7RbCb0boktMy7787XHd344zswMiIlNSF/952yP7/3DYN5e8A/IjyxpgnEWOdEDnlF6mpruz8EaR5a1RI4oVstWW7f0G3PCyLzyreF2Kczmafo5WDhDAeFlYElkulpWABMAoMsl5YIMQ6ZVMMQUL/QX2qSGigTZiBfnnZKSiMF7qDVIVqCjiKId4ML3iAOUJg2HqjKfKf/BRw5MZaPeoM4QIhhgx85ik31pR+u/+P2z8ff6SizCpK8cO8blf+4vQLz1WbjlJBVmAMTxd+LYQvQykWlQ906yhTG4BSIwfecfWC+oCQaE40aW1kUDBZeEU2k4FnQ84+itH3nRfddwNjR4gsEn4mnCtEYWKhcM+TYXTPBhyFwvNAL5gSZTZFyPOFZhCbTlNlKvdICH3E61UnWj81BScvBRyBj1JBuSA3yJblKCoMR6PcmF2yaed/75yllzOjNms+cnPTPkNvad6ns9pDHqFUCDcWVvWBkgsN9RUWc6x/BgyBgkJRLL6NQpswVGgiqAITAFGJ9QJBHh3ERjkSww4LjruLIsMiWC1sLTxD2EbI/gweEWNwEPrE0giGi0WUEu0St3dSLmE+2odmKJu4GET1TEDftOkwd9D88aw2TG7qy+8az0TbhB2D5owxM95EFbhpPIyjSIg3Ck+ECY0xLgwB+C9ez8c0JueaM1eOARM0V35txXsPvgQZix/EzmcQDRGqNm369Rf2HuNHFsFHRF6CeM7ht7D9mMrDt/A5kRvWOGF55IUjN9ivQp5Xy40P9q1c2zSzwYR7Wg74adV1/WeG9Egk476WA4Zpita+uXvpNJVKONJRH4zG09EvQpQ9DhRNEMB0TBTEhci1ATBLM2EQUzt9w2SE0mDyRABmoG+8IDwimIRxEC+FPlx3CywENf3TN3RBOIHs6fAbgcvCo1zQglaR0MCY2V9gbEELjMaZM5iVcSVzPMwVSr6u54xnckNYmsTWZy4xBJizZEMi40rWWFi/Dm/6GTmMlfm0eZufdhC0tFtbMsH9/MgteD5PCM8FAePC6Ej2vDIOR25AK8aErGBNMjaSOLjGGDMfbnv55VfldR2hvwOhVGnPz+yc+eAHe1e9p8KsWb/58m2vvpSL76BSN1MUSFHglKUAMslWLmGoJNNYsSW67RjrYnzOWDDSK5VJFToeTKUimtB52H+0yWr8LzYPWFxRWvR/tk+5a3bxpgKVR3nHpWBsvAab8aTKpCiQokCKAsmigCOUg/5PVn/xtBM0trpUevSFAsADxksivEqUAM+OSMaBeXuWfjakWY/uuelZPfXbF3IimQ3Pz21/8bxDW+foi514XnFFZ1LKxZfMqZspCqQokKLACU+BqOJbZUt3b/vokmb5A/UOTH7QE0kJNbmwUYeBM0oKvzhQUUrIFsUVCuprQz/UIFOFUxRIUSBFgRQFEqPA8rRdJROLF/20d1a7Ozcc2dPlUEWZ9meiHJZXIwypCzoQMlLRNrPx4B1H9+P9kHlqk01bPcgajSY2/FTtFAVSFEhRIEWB45gCyHw2/88Rni8keYj9GZMuINyGx8KJFk5qsnVyQiosJqqlIEWBFAVSFDiFKEAWKZm3yH8yzMhWdRIDYslQmQwgJPOMLFayx/BirDb4U8ollpSpv1MUSFEgRYGTnwJ4JGzS8/oCioXXHpx0frcHw2/0BOnNIPsvJAoEKpiUchGVUpCiQIoCKQqcYhRAwRDiQsE4ngnX8GpMyD3et0NnkEEW+MKvW0upTgpSFEhRIEWBFAVOEQqgLDgnsZ0w6NRsFAxeC6dJoJR8X179/xt005XD76ELAAAAAElFTkSuQmCC;" vertex="1" parent="14">
                    <mxGeometry x="23" width="117" height="96.01" as="geometry"/>
                </mxCell>
                <mxCell id="16" value="NFS v4&lt;br style=&quot;border-color: var(--border-color);&quot;&gt;storage" style="shape=cylinder3;whiteSpace=wrap;html=1;boundedLbl=1;backgroundOutline=1;size=15;sketch=0;hachureGap=4;jiggle=2;curveFitting=1;fontFamily=Helvetica;fontSize=14;" vertex="1" parent="1">
                    <mxGeometry x="720" y="330" width="80" height="80" as="geometry"/>
                </mxCell>
            </root>
        </mxGraphModel>
    </diagram>
</mxfile>
